G04 #@! TF.GenerationSoftware,KiCad,Pcbnew,(5.1.4)-1*
G04 #@! TF.CreationDate,2020-01-12T22:13:26+01:00*
G04 #@! TF.ProjectId,Project2.1,50726f6a-6563-4743-922e-312e6b696361,1.0*
G04 #@! TF.SameCoordinates,Original*
G04 #@! TF.FileFunction,Soldermask,Bot*
G04 #@! TF.FilePolarity,Negative*
%FSLAX46Y46*%
G04 Gerber Fmt 4.6, Leading zero omitted, Abs format (unit mm)*
G04 Created by KiCad (PCBNEW (5.1.4)-1) date 2020-01-12 22:13:26*
%MOMM*%
%LPD*%
G04 APERTURE LIST*
%ADD10C,3.450000*%
%ADD11C,2.390000*%
%ADD12C,3.200000*%
%ADD13C,2.050000*%
%ADD14C,2.250000*%
%ADD15C,2.100000*%
%ADD16C,5.300000*%
%ADD17C,5.000000*%
%ADD18R,2.000000X2.000000*%
%ADD19C,2.000000*%
%ADD20C,1.625600*%
%ADD21R,2.250000X2.250000*%
%ADD22C,1.800000*%
%ADD23R,1.800000X1.800000*%
%ADD24R,2.286000X1.524000*%
%ADD25O,2.286000X1.524000*%
%ADD26C,1.582000*%
%ADD27C,1.980000*%
G04 APERTURE END LIST*
D10*
X80390000Y-125858000D03*
X64390000Y-70658000D03*
D11*
X80390000Y-62328000D03*
D12*
X197612000Y-145288000D03*
X66548000Y-145288000D03*
X66548000Y-44704000D03*
X197612000Y-44704000D03*
D13*
X140462000Y-43180000D03*
D14*
X143002000Y-45720000D03*
X143002000Y-40640000D03*
X137922000Y-40640000D03*
X137922000Y-45720000D03*
D15*
X199538000Y-70914000D03*
X189738000Y-54864000D03*
D16*
X189992000Y-124460000D03*
D17*
X195992000Y-124460000D03*
D16*
X192992000Y-119760000D03*
D18*
X166624000Y-106426000D03*
D19*
X166624000Y-98826000D03*
D20*
X148590000Y-95758000D03*
X148590000Y-98298000D03*
X151130000Y-98298000D03*
X151130000Y-95758000D03*
X146050000Y-95758000D03*
X146050000Y-98298000D03*
D21*
X127000000Y-148336000D03*
D14*
X132000000Y-148336000D03*
X137000000Y-148336000D03*
X142000000Y-148336000D03*
X147000000Y-148336000D03*
X152000000Y-148336000D03*
X157000000Y-148336000D03*
X162000000Y-148336000D03*
X167000000Y-148336000D03*
D22*
X185260000Y-148336000D03*
X180260000Y-148336000D03*
D23*
X175260000Y-148336000D03*
D24*
X107442000Y-117856000D03*
D25*
X107442000Y-115316000D03*
X107442000Y-112776000D03*
X107442000Y-110236000D03*
X107442000Y-107696000D03*
X107442000Y-105156000D03*
X107442000Y-102616000D03*
X107442000Y-100076000D03*
D26*
X92242000Y-146511000D03*
X97242000Y-146511000D03*
D27*
X91242000Y-149211000D03*
X98242000Y-149211000D03*
D23*
X200660000Y-100076000D03*
D22*
X200660000Y-105076000D03*
X200660000Y-110076000D03*
M02*
