M48
; DRILL file {KiCad (5.1.4)-1} date 23.12.2019 17:53:29
; FORMAT={-:-/ absolute / inch / decimal}
; #@! TF.CreationDate,2019-12-23T17:53:29+01:00
; #@! TF.GenerationSoftware,Kicad,Pcbnew,(5.1.4)-1
; #@! TF.FileFunction,Plated,1,2,PTH
FMAT,2
INCH
T1C0.0157
T2C0.0197
T3C0.0354
T4C0.0394
T5C0.0415
T6C0.0472
T7C0.0520
T8C0.0551
T9C0.0591
T10C0.0669
T11C0.1245
T12C0.1433
%
G90
G05
T1
X2.85Y-2.8
X2.85Y-3.0
X2.85Y-3.2
X2.85Y-3.4
X2.85Y-3.6
X2.85Y-3.8
X2.85Y-4.0
X2.85Y-4.2
X2.85Y-4.4
X2.85Y-4.6
X2.85Y-4.8
X2.85Y-5.0
X2.85Y-5.2
X3.0Y-1.65
X3.0Y-1.95
X3.2Y-5.55
X3.2Y-5.8
X3.3Y-1.8
X3.4Y-2.1
X3.4Y-2.4
X3.45Y-5.15
X3.45Y-5.35
X3.45Y-5.55
X3.4813Y-1.6984
X3.4813Y-1.9629
X3.6Y-2.9
X3.65Y-5.15
X3.65Y-5.35
X3.65Y-5.55
X3.85Y-2.9
X3.9Y-1.85
X3.95Y-2.46
X4.0Y-2.1
X4.0Y-3.6
X4.0Y-4.7
X4.0Y-4.9
X4.1Y-3.8
X4.15Y-2.75
X4.2Y-4.9
X4.25Y-2.1
X4.25Y-3.8
X4.4Y-4.65
X4.4Y-4.9
X4.45Y-1.85
X4.45Y-3.05
X4.45Y-3.2
X4.5Y-2.1
X4.53Y-4.77
X4.5393Y-5.1717
X4.55Y-4.65
X4.75Y-2.1
X4.75Y-4.05
X4.75Y-4.35
X4.75Y-5.6
X4.75Y-5.75
X4.75Y-5.9
X4.7666Y-4.5246
X4.7952Y-4.552
X4.8Y-3.2
X4.8Y-3.4
X4.81Y-3.69
X4.8251Y-4.5778
X4.85Y-1.75
X4.8536Y-4.5381
X4.8906Y-4.4189
X4.9Y-3.79
X4.95Y-2.95
X4.971Y-4.5669
X5.0216Y-1.6386
X5.0388Y-3.9235
X5.05Y-4.05
X5.05Y-4.25
X5.1Y-2.8
X5.1Y-3.05
X5.1Y-3.4
X5.11Y-3.69
X5.1471Y-4.3242
X5.2Y-1.55
X5.2Y-1.75
X5.2589Y-4.7089
X5.4Y-1.95
X5.5124Y-4.0416
X5.55Y-2.5
X5.55Y-2.85
X5.55Y-3.05
X5.65Y-1.9
X5.65Y-3.6
X5.7Y-2.3
X5.7Y-2.6
X5.73Y-1.55
X5.8Y-3.41
X5.8Y-5.0
X5.8Y-5.25
X5.9Y-2.3
X5.9Y-2.6
X5.9Y-2.82
X6.0Y-1.55
X6.0Y-1.75
X6.05Y-5.0
X6.05Y-5.25
X6.07Y-3.51
X6.11Y-2.82
X6.1518Y-2.2832
X6.25Y-1.75
X6.25Y-3.7
X6.3102Y-2.4742
X6.41Y-2.71
X6.4291Y-2.2435
X6.5Y-1.75
X6.5Y-3.7
X6.6Y-2.71
X6.75Y-1.75
X6.75Y-3.7
X6.7886Y-2.5532
X6.8Y-5.0
X6.8Y-5.25
X6.8235Y-2.3734
X7.0Y-1.75
X7.05Y-3.55
X7.05Y-3.75
X7.05Y-3.95
X7.05Y-4.15
X7.05Y-4.35
X7.05Y-5.0
X7.05Y-5.25
X7.1Y-3.05
X7.1Y-3.05
X7.15Y-2.25
X7.15Y-2.45
X7.15Y-2.65
X7.25Y-1.75
X7.35Y-2.25
X7.35Y-2.45
X7.35Y-2.65
X7.35Y-3.05
X7.4Y-4.55
X7.45Y-5.25
X7.45Y-5.45
X7.55Y-3.5
X7.55Y-3.7
X7.6Y-3.05
X7.6Y-4.55
X7.7Y-5.45
X7.75Y-3.5
X7.75Y-3.7
X7.8Y-4.55
X7.85Y-3.05
X7.95Y-3.5
X7.95Y-3.7
X7.95Y-5.25
X7.95Y-5.45
T2
X3.39Y-3.37
X4.325Y-3.715
X4.4Y-3.37
T3
X5.75Y-3.77
X5.75Y-3.87
X5.85Y-3.77
X5.85Y-3.87
X5.95Y-3.77
X5.95Y-3.87
T4
X3.99Y-2.26
X7.26Y-3.92
X6.56Y-3.8908
X6.56Y-4.19
X4.23Y-3.94
X4.23Y-4.04
X4.23Y-4.14
X4.23Y-4.24
X4.23Y-4.34
X4.23Y-4.44
X4.23Y-4.54
X4.23Y-4.64
T5
X3.6316Y-5.7681
X3.8284Y-5.7681
T6
X6.9Y-5.84
X7.0969Y-5.84
X7.2937Y-5.84
X7.9Y-3.94
X7.9Y-4.1369
X7.9Y-4.3337
T7
X3.5922Y-5.8744
X3.8678Y-5.8744
T8
X7.47Y-2.16
X7.8558Y-2.7919
T9
X5.0Y-5.84
X5.1969Y-5.84
X5.3937Y-5.84
X5.5906Y-5.84
X5.7874Y-5.84
X5.9843Y-5.84
X6.1811Y-5.84
X6.378Y-5.84
X6.5748Y-5.84
X5.53Y-1.7
T10
X5.43Y-1.6
X5.43Y-1.8
X5.63Y-1.6
X5.63Y-1.8
T11
X7.7Y-4.84
T12
X7.8181Y-5.025
X7.9362Y-4.84
T0
M30
