G04 #@! TF.GenerationSoftware,KiCad,Pcbnew,(5.1.4)-1*
G04 #@! TF.CreationDate,2019-12-23T17:53:35+01:00*
G04 #@! TF.ProjectId,Project1.1,50726f6a-6563-4743-912e-312e6b696361,1.0*
G04 #@! TF.SameCoordinates,Original*
G04 #@! TF.FileFunction,Legend,Top*
G04 #@! TF.FilePolarity,Positive*
%FSLAX46Y46*%
G04 Gerber Fmt 4.6, Leading zero omitted, Abs format (unit mm)*
G04 Created by KiCad (PCBNEW (5.1.4)-1) date 2019-12-23 17:53:35*
%MOMM*%
%LPD*%
G04 APERTURE LIST*
%ADD10C,0.150000*%
%ADD11C,0.120000*%
%ADD12C,0.200000*%
%ADD13C,0.100000*%
%ADD14C,0.127000*%
%ADD15C,0.350000*%
%ADD16C,0.254000*%
%ADD17C,0.050000*%
G04 APERTURE END LIST*
D10*
X163108190Y-92130571D02*
X163251047Y-92178190D01*
X163298666Y-92225809D01*
X163346285Y-92321047D01*
X163346285Y-92463904D01*
X163298666Y-92559142D01*
X163251047Y-92606761D01*
X163155809Y-92654380D01*
X162774857Y-92654380D01*
X162774857Y-91654380D01*
X163108190Y-91654380D01*
X163203428Y-91702000D01*
X163251047Y-91749619D01*
X163298666Y-91844857D01*
X163298666Y-91940095D01*
X163251047Y-92035333D01*
X163203428Y-92082952D01*
X163108190Y-92130571D01*
X162774857Y-92130571D01*
X163917714Y-92654380D02*
X163822476Y-92606761D01*
X163774857Y-92559142D01*
X163727238Y-92463904D01*
X163727238Y-92178190D01*
X163774857Y-92082952D01*
X163822476Y-92035333D01*
X163917714Y-91987714D01*
X164060571Y-91987714D01*
X164155809Y-92035333D01*
X164203428Y-92082952D01*
X164251047Y-92178190D01*
X164251047Y-92463904D01*
X164203428Y-92559142D01*
X164155809Y-92606761D01*
X164060571Y-92654380D01*
X163917714Y-92654380D01*
X165108190Y-92654380D02*
X165108190Y-92130571D01*
X165060571Y-92035333D01*
X164965333Y-91987714D01*
X164774857Y-91987714D01*
X164679619Y-92035333D01*
X165108190Y-92606761D02*
X165012952Y-92654380D01*
X164774857Y-92654380D01*
X164679619Y-92606761D01*
X164632000Y-92511523D01*
X164632000Y-92416285D01*
X164679619Y-92321047D01*
X164774857Y-92273428D01*
X165012952Y-92273428D01*
X165108190Y-92225809D01*
X165584380Y-92654380D02*
X165584380Y-91987714D01*
X165584380Y-92178190D02*
X165632000Y-92082952D01*
X165679619Y-92035333D01*
X165774857Y-91987714D01*
X165870095Y-91987714D01*
X166632000Y-92654380D02*
X166632000Y-91654380D01*
X166632000Y-92606761D02*
X166536761Y-92654380D01*
X166346285Y-92654380D01*
X166251047Y-92606761D01*
X166203428Y-92559142D01*
X166155809Y-92463904D01*
X166155809Y-92178190D01*
X166203428Y-92082952D01*
X166251047Y-92035333D01*
X166346285Y-91987714D01*
X166536761Y-91987714D01*
X166632000Y-92035333D01*
X168441523Y-92654380D02*
X168108190Y-92178190D01*
X167870095Y-92654380D02*
X167870095Y-91654380D01*
X168251047Y-91654380D01*
X168346285Y-91702000D01*
X168393904Y-91749619D01*
X168441523Y-91844857D01*
X168441523Y-91987714D01*
X168393904Y-92082952D01*
X168346285Y-92130571D01*
X168251047Y-92178190D01*
X167870095Y-92178190D01*
X169251047Y-92606761D02*
X169155809Y-92654380D01*
X168965333Y-92654380D01*
X168870095Y-92606761D01*
X168822476Y-92511523D01*
X168822476Y-92130571D01*
X168870095Y-92035333D01*
X168965333Y-91987714D01*
X169155809Y-91987714D01*
X169251047Y-92035333D01*
X169298666Y-92130571D01*
X169298666Y-92225809D01*
X168822476Y-92321047D01*
X169679619Y-92606761D02*
X169774857Y-92654380D01*
X169965333Y-92654380D01*
X170060571Y-92606761D01*
X170108190Y-92511523D01*
X170108190Y-92463904D01*
X170060571Y-92368666D01*
X169965333Y-92321047D01*
X169822476Y-92321047D01*
X169727238Y-92273428D01*
X169679619Y-92178190D01*
X169679619Y-92130571D01*
X169727238Y-92035333D01*
X169822476Y-91987714D01*
X169965333Y-91987714D01*
X170060571Y-92035333D01*
X170917714Y-92606761D02*
X170822476Y-92654380D01*
X170632000Y-92654380D01*
X170536761Y-92606761D01*
X170489142Y-92511523D01*
X170489142Y-92130571D01*
X170536761Y-92035333D01*
X170632000Y-91987714D01*
X170822476Y-91987714D01*
X170917714Y-92035333D01*
X170965333Y-92130571D01*
X170965333Y-92225809D01*
X170489142Y-92321047D01*
X171251047Y-91987714D02*
X171632000Y-91987714D01*
X171393904Y-91654380D02*
X171393904Y-92511523D01*
X171441523Y-92606761D01*
X171536761Y-92654380D01*
X171632000Y-92654380D01*
X151677619Y-100393523D02*
X151677619Y-99917333D01*
X151201428Y-99869714D01*
X151249047Y-99917333D01*
X151296666Y-100012571D01*
X151296666Y-100250666D01*
X151249047Y-100345904D01*
X151201428Y-100393523D01*
X151106190Y-100441142D01*
X150868095Y-100441142D01*
X150772857Y-100393523D01*
X150725238Y-100345904D01*
X150677619Y-100250666D01*
X150677619Y-100012571D01*
X150725238Y-99917333D01*
X150772857Y-99869714D01*
X151677619Y-100726857D02*
X150677619Y-101060190D01*
X151677619Y-101393523D01*
X148137619Y-99774571D02*
X149137619Y-99774571D01*
X148423333Y-100107904D01*
X149137619Y-100441238D01*
X148137619Y-100441238D01*
X149137619Y-101107904D02*
X149137619Y-101298380D01*
X149090000Y-101393619D01*
X148994761Y-101488857D01*
X148804285Y-101536476D01*
X148470952Y-101536476D01*
X148280476Y-101488857D01*
X148185238Y-101393619D01*
X148137619Y-101298380D01*
X148137619Y-101107904D01*
X148185238Y-101012666D01*
X148280476Y-100917428D01*
X148470952Y-100869809D01*
X148804285Y-100869809D01*
X148994761Y-100917428D01*
X149090000Y-101012666D01*
X149137619Y-101107904D01*
X148185238Y-101917428D02*
X148137619Y-102060285D01*
X148137619Y-102298380D01*
X148185238Y-102393619D01*
X148232857Y-102441238D01*
X148328095Y-102488857D01*
X148423333Y-102488857D01*
X148518571Y-102441238D01*
X148566190Y-102393619D01*
X148613809Y-102298380D01*
X148661428Y-102107904D01*
X148709047Y-102012666D01*
X148756666Y-101965047D01*
X148851904Y-101917428D01*
X148947142Y-101917428D01*
X149042380Y-101965047D01*
X149090000Y-102012666D01*
X149137619Y-102107904D01*
X149137619Y-102346000D01*
X149090000Y-102488857D01*
X148137619Y-102917428D02*
X149137619Y-102917428D01*
X146550000Y-100584095D02*
X146597619Y-100488857D01*
X146597619Y-100346000D01*
X146550000Y-100203142D01*
X146454761Y-100107904D01*
X146359523Y-100060285D01*
X146169047Y-100012666D01*
X146026190Y-100012666D01*
X145835714Y-100060285D01*
X145740476Y-100107904D01*
X145645238Y-100203142D01*
X145597619Y-100346000D01*
X145597619Y-100441238D01*
X145645238Y-100584095D01*
X145692857Y-100631714D01*
X146026190Y-100631714D01*
X146026190Y-100441238D01*
X145597619Y-101060285D02*
X146597619Y-101060285D01*
X145597619Y-101631714D01*
X146597619Y-101631714D01*
X145597619Y-102107904D02*
X146597619Y-102107904D01*
X146597619Y-102346000D01*
X146550000Y-102488857D01*
X146454761Y-102584095D01*
X146359523Y-102631714D01*
X146169047Y-102679333D01*
X146026190Y-102679333D01*
X145835714Y-102631714D01*
X145740476Y-102584095D01*
X145645238Y-102488857D01*
X145597619Y-102346000D01*
X145597619Y-102107904D01*
X145597619Y-90749619D02*
X146073809Y-90416285D01*
X145597619Y-90178190D02*
X146597619Y-90178190D01*
X146597619Y-90559142D01*
X146550000Y-90654380D01*
X146502380Y-90702000D01*
X146407142Y-90749619D01*
X146264285Y-90749619D01*
X146169047Y-90702000D01*
X146121428Y-90654380D01*
X146073809Y-90559142D01*
X146073809Y-90178190D01*
X146121428Y-91178190D02*
X146121428Y-91511523D01*
X145597619Y-91654380D02*
X145597619Y-91178190D01*
X146597619Y-91178190D01*
X146597619Y-91654380D01*
X145645238Y-92035333D02*
X145597619Y-92178190D01*
X145597619Y-92416285D01*
X145645238Y-92511523D01*
X145692857Y-92559142D01*
X145788095Y-92606761D01*
X145883333Y-92606761D01*
X145978571Y-92559142D01*
X146026190Y-92511523D01*
X146073809Y-92416285D01*
X146121428Y-92225809D01*
X146169047Y-92130571D01*
X146216666Y-92082952D01*
X146311904Y-92035333D01*
X146407142Y-92035333D01*
X146502380Y-92082952D01*
X146550000Y-92130571D01*
X146597619Y-92225809D01*
X146597619Y-92463904D01*
X146550000Y-92606761D01*
X146121428Y-93035333D02*
X146121428Y-93368666D01*
X145597619Y-93511523D02*
X145597619Y-93035333D01*
X146597619Y-93035333D01*
X146597619Y-93511523D01*
X146597619Y-93797238D02*
X146597619Y-94368666D01*
X145597619Y-94082952D02*
X146597619Y-94082952D01*
X148185238Y-90916285D02*
X148137619Y-91059142D01*
X148137619Y-91297238D01*
X148185238Y-91392476D01*
X148232857Y-91440095D01*
X148328095Y-91487714D01*
X148423333Y-91487714D01*
X148518571Y-91440095D01*
X148566190Y-91392476D01*
X148613809Y-91297238D01*
X148661428Y-91106761D01*
X148709047Y-91011523D01*
X148756666Y-90963904D01*
X148851904Y-90916285D01*
X148947142Y-90916285D01*
X149042380Y-90963904D01*
X149090000Y-91011523D01*
X149137619Y-91106761D01*
X149137619Y-91344857D01*
X149090000Y-91487714D01*
X148232857Y-92487714D02*
X148185238Y-92440095D01*
X148137619Y-92297238D01*
X148137619Y-92202000D01*
X148185238Y-92059142D01*
X148280476Y-91963904D01*
X148375714Y-91916285D01*
X148566190Y-91868666D01*
X148709047Y-91868666D01*
X148899523Y-91916285D01*
X148994761Y-91963904D01*
X149090000Y-92059142D01*
X149137619Y-92202000D01*
X149137619Y-92297238D01*
X149090000Y-92440095D01*
X149042380Y-92487714D01*
X148137619Y-92916285D02*
X149137619Y-92916285D01*
X148137619Y-93487714D02*
X148709047Y-93059142D01*
X149137619Y-93487714D02*
X148566190Y-92916285D01*
X150677619Y-90630571D02*
X151677619Y-90630571D01*
X150963333Y-90963904D01*
X151677619Y-91297238D01*
X150677619Y-91297238D01*
X150677619Y-91773428D02*
X151677619Y-91773428D01*
X150725238Y-92202000D02*
X150677619Y-92344857D01*
X150677619Y-92582952D01*
X150725238Y-92678190D01*
X150772857Y-92725809D01*
X150868095Y-92773428D01*
X150963333Y-92773428D01*
X151058571Y-92725809D01*
X151106190Y-92678190D01*
X151153809Y-92582952D01*
X151201428Y-92392476D01*
X151249047Y-92297238D01*
X151296666Y-92249619D01*
X151391904Y-92202000D01*
X151487142Y-92202000D01*
X151582380Y-92249619D01*
X151630000Y-92297238D01*
X151677619Y-92392476D01*
X151677619Y-92630571D01*
X151630000Y-92773428D01*
X151677619Y-93392476D02*
X151677619Y-93582952D01*
X151630000Y-93678190D01*
X151534761Y-93773428D01*
X151344285Y-93821047D01*
X151010952Y-93821047D01*
X150820476Y-93773428D01*
X150725238Y-93678190D01*
X150677619Y-93582952D01*
X150677619Y-93392476D01*
X150725238Y-93297238D01*
X150820476Y-93202000D01*
X151010952Y-93154380D01*
X151344285Y-93154380D01*
X151534761Y-93202000D01*
X151630000Y-93297238D01*
X151677619Y-93392476D01*
X174864857Y-79721000D02*
X174674380Y-79625761D01*
X174388666Y-79625761D01*
X174102952Y-79721000D01*
X173912476Y-79911476D01*
X173817238Y-80101952D01*
X173722000Y-80482904D01*
X173722000Y-80768619D01*
X173817238Y-81149571D01*
X173912476Y-81340047D01*
X174102952Y-81530523D01*
X174388666Y-81625761D01*
X174579142Y-81625761D01*
X174864857Y-81530523D01*
X174960095Y-81435285D01*
X174960095Y-80768619D01*
X174579142Y-80768619D01*
X176674380Y-81625761D02*
X176674380Y-80578142D01*
X176579142Y-80387666D01*
X176388666Y-80292428D01*
X176007714Y-80292428D01*
X175817238Y-80387666D01*
X176674380Y-81530523D02*
X176483904Y-81625761D01*
X176007714Y-81625761D01*
X175817238Y-81530523D01*
X175722000Y-81340047D01*
X175722000Y-81149571D01*
X175817238Y-80959095D01*
X176007714Y-80863857D01*
X176483904Y-80863857D01*
X176674380Y-80768619D01*
X177531523Y-81530523D02*
X177722000Y-81625761D01*
X178102952Y-81625761D01*
X178293428Y-81530523D01*
X178388666Y-81340047D01*
X178388666Y-81244809D01*
X178293428Y-81054333D01*
X178102952Y-80959095D01*
X177817238Y-80959095D01*
X177626761Y-80863857D01*
X177531523Y-80673380D01*
X177531523Y-80578142D01*
X177626761Y-80387666D01*
X177817238Y-80292428D01*
X178102952Y-80292428D01*
X178293428Y-80387666D01*
X180579142Y-79625761D02*
X181055333Y-81625761D01*
X181436285Y-80197190D01*
X181817238Y-81625761D01*
X182293428Y-79625761D01*
X183912476Y-81625761D02*
X183912476Y-80578142D01*
X183817238Y-80387666D01*
X183626761Y-80292428D01*
X183245809Y-80292428D01*
X183055333Y-80387666D01*
X183912476Y-81530523D02*
X183722000Y-81625761D01*
X183245809Y-81625761D01*
X183055333Y-81530523D01*
X182960095Y-81340047D01*
X182960095Y-81149571D01*
X183055333Y-80959095D01*
X183245809Y-80863857D01*
X183722000Y-80863857D01*
X183912476Y-80768619D01*
X184864857Y-81625761D02*
X184864857Y-80292428D01*
X184864857Y-80673380D02*
X184960095Y-80482904D01*
X185055333Y-80387666D01*
X185245809Y-80292428D01*
X185436285Y-80292428D01*
X186102952Y-80292428D02*
X186102952Y-81625761D01*
X186102952Y-80482904D02*
X186198190Y-80387666D01*
X186388666Y-80292428D01*
X186674380Y-80292428D01*
X186864857Y-80387666D01*
X186960095Y-80578142D01*
X186960095Y-81625761D01*
X187912476Y-81625761D02*
X187912476Y-80292428D01*
X187912476Y-79625761D02*
X187817238Y-79721000D01*
X187912476Y-79816238D01*
X188007714Y-79721000D01*
X187912476Y-79625761D01*
X187912476Y-79816238D01*
X188864857Y-80292428D02*
X188864857Y-81625761D01*
X188864857Y-80482904D02*
X188960095Y-80387666D01*
X189150571Y-80292428D01*
X189436285Y-80292428D01*
X189626761Y-80387666D01*
X189722000Y-80578142D01*
X189722000Y-81625761D01*
X191531523Y-80292428D02*
X191531523Y-81911476D01*
X191436285Y-82101952D01*
X191341047Y-82197190D01*
X191150571Y-82292428D01*
X190864857Y-82292428D01*
X190674380Y-82197190D01*
X191531523Y-81530523D02*
X191341047Y-81625761D01*
X190960095Y-81625761D01*
X190769619Y-81530523D01*
X190674380Y-81435285D01*
X190579142Y-81244809D01*
X190579142Y-80673380D01*
X190674380Y-80482904D01*
X190769619Y-80387666D01*
X190960095Y-80292428D01*
X191341047Y-80292428D01*
X191531523Y-80387666D01*
X193912476Y-81530523D02*
X194198190Y-81625761D01*
X194674380Y-81625761D01*
X194864857Y-81530523D01*
X194960095Y-81435285D01*
X195055333Y-81244809D01*
X195055333Y-81054333D01*
X194960095Y-80863857D01*
X194864857Y-80768619D01*
X194674380Y-80673380D01*
X194293428Y-80578142D01*
X194102952Y-80482904D01*
X194007714Y-80387666D01*
X193912476Y-80197190D01*
X193912476Y-80006714D01*
X194007714Y-79816238D01*
X194102952Y-79721000D01*
X194293428Y-79625761D01*
X194769619Y-79625761D01*
X195055333Y-79721000D01*
X195722000Y-80292428D02*
X196198190Y-81625761D01*
X196674380Y-80292428D02*
X196198190Y-81625761D01*
X196007714Y-82101952D01*
X195912476Y-82197190D01*
X195722000Y-82292428D01*
X197341047Y-81530523D02*
X197531523Y-81625761D01*
X197912476Y-81625761D01*
X198102952Y-81530523D01*
X198198190Y-81340047D01*
X198198190Y-81244809D01*
X198102952Y-81054333D01*
X197912476Y-80959095D01*
X197626761Y-80959095D01*
X197436285Y-80863857D01*
X197341047Y-80673380D01*
X197341047Y-80578142D01*
X197436285Y-80387666D01*
X197626761Y-80292428D01*
X197912476Y-80292428D01*
X198102952Y-80387666D01*
X198769619Y-80292428D02*
X199531523Y-80292428D01*
X199055333Y-79625761D02*
X199055333Y-81340047D01*
X199150571Y-81530523D01*
X199341047Y-81625761D01*
X199531523Y-81625761D01*
X200960095Y-81530523D02*
X200769619Y-81625761D01*
X200388666Y-81625761D01*
X200198190Y-81530523D01*
X200102952Y-81340047D01*
X200102952Y-80578142D01*
X200198190Y-80387666D01*
X200388666Y-80292428D01*
X200769619Y-80292428D01*
X200960095Y-80387666D01*
X201055333Y-80578142D01*
X201055333Y-80768619D01*
X200102952Y-80959095D01*
X201912476Y-81625761D02*
X201912476Y-80292428D01*
X201912476Y-80482904D02*
X202007714Y-80387666D01*
X202198190Y-80292428D01*
X202483904Y-80292428D01*
X202674380Y-80387666D01*
X202769619Y-80578142D01*
X202769619Y-81625761D01*
X202769619Y-80578142D02*
X202864857Y-80387666D01*
X203055333Y-80292428D01*
X203341047Y-80292428D01*
X203531523Y-80387666D01*
X203626761Y-80578142D01*
X203626761Y-81625761D01*
X185674380Y-82775761D02*
X186341047Y-84775761D01*
X187007714Y-82775761D01*
X188722000Y-84775761D02*
X187579142Y-84775761D01*
X188150571Y-84775761D02*
X188150571Y-82775761D01*
X187960095Y-83061476D01*
X187769619Y-83251952D01*
X187579142Y-83347190D01*
X189579142Y-84585285D02*
X189674380Y-84680523D01*
X189579142Y-84775761D01*
X189483904Y-84680523D01*
X189579142Y-84585285D01*
X189579142Y-84775761D01*
X191579142Y-84775761D02*
X190436285Y-84775761D01*
X191007714Y-84775761D02*
X191007714Y-82775761D01*
X190817238Y-83061476D01*
X190626761Y-83251952D01*
X190436285Y-83347190D01*
X101004666Y-115823142D02*
X101004666Y-115346952D01*
X101290380Y-115918380D02*
X100290380Y-115585047D01*
X101290380Y-115251714D01*
X101290380Y-114918380D02*
X100623714Y-114918380D01*
X100814190Y-114918380D02*
X100718952Y-114870761D01*
X100671333Y-114823142D01*
X100623714Y-114727904D01*
X100623714Y-114632666D01*
X101290380Y-113870761D02*
X100290380Y-113870761D01*
X101242761Y-113870761D02*
X101290380Y-113966000D01*
X101290380Y-114156476D01*
X101242761Y-114251714D01*
X101195142Y-114299333D01*
X101099904Y-114346952D01*
X100814190Y-114346952D01*
X100718952Y-114299333D01*
X100671333Y-114251714D01*
X100623714Y-114156476D01*
X100623714Y-113966000D01*
X100671333Y-113870761D01*
X100623714Y-112966000D02*
X101290380Y-112966000D01*
X100623714Y-113394571D02*
X101147523Y-113394571D01*
X101242761Y-113346952D01*
X101290380Y-113251714D01*
X101290380Y-113108857D01*
X101242761Y-113013619D01*
X101195142Y-112966000D01*
X101290380Y-112489809D02*
X100623714Y-112489809D01*
X100290380Y-112489809D02*
X100338000Y-112537428D01*
X100385619Y-112489809D01*
X100338000Y-112442190D01*
X100290380Y-112489809D01*
X100385619Y-112489809D01*
X100623714Y-112013619D02*
X101290380Y-112013619D01*
X100718952Y-112013619D02*
X100671333Y-111966000D01*
X100623714Y-111870761D01*
X100623714Y-111727904D01*
X100671333Y-111632666D01*
X100766571Y-111585047D01*
X101290380Y-111585047D01*
X101290380Y-110966000D02*
X101242761Y-111061238D01*
X101195142Y-111108857D01*
X101099904Y-111156476D01*
X100814190Y-111156476D01*
X100718952Y-111108857D01*
X100671333Y-111061238D01*
X100623714Y-110966000D01*
X100623714Y-110823142D01*
X100671333Y-110727904D01*
X100718952Y-110680285D01*
X100814190Y-110632666D01*
X101099904Y-110632666D01*
X101195142Y-110680285D01*
X101242761Y-110727904D01*
X101290380Y-110823142D01*
X101290380Y-110966000D01*
X101290380Y-109442190D02*
X100290380Y-109442190D01*
X101004666Y-109108857D01*
X100290380Y-108775523D01*
X101290380Y-108775523D01*
X101242761Y-107918380D02*
X101290380Y-108013619D01*
X101290380Y-108204095D01*
X101242761Y-108299333D01*
X101147523Y-108346952D01*
X100766571Y-108346952D01*
X100671333Y-108299333D01*
X100623714Y-108204095D01*
X100623714Y-108013619D01*
X100671333Y-107918380D01*
X100766571Y-107870761D01*
X100861809Y-107870761D01*
X100957047Y-108346952D01*
X100623714Y-107013619D02*
X101433238Y-107013619D01*
X101528476Y-107061238D01*
X101576095Y-107108857D01*
X101623714Y-107204095D01*
X101623714Y-107346952D01*
X101576095Y-107442190D01*
X101242761Y-107013619D02*
X101290380Y-107108857D01*
X101290380Y-107299333D01*
X101242761Y-107394571D01*
X101195142Y-107442190D01*
X101099904Y-107489809D01*
X100814190Y-107489809D01*
X100718952Y-107442190D01*
X100671333Y-107394571D01*
X100623714Y-107299333D01*
X100623714Y-107108857D01*
X100671333Y-107013619D01*
X101290380Y-106108857D02*
X100766571Y-106108857D01*
X100671333Y-106156476D01*
X100623714Y-106251714D01*
X100623714Y-106442190D01*
X100671333Y-106537428D01*
X101242761Y-106108857D02*
X101290380Y-106204095D01*
X101290380Y-106442190D01*
X101242761Y-106537428D01*
X101147523Y-106585047D01*
X101052285Y-106585047D01*
X100957047Y-106537428D01*
X100909428Y-106442190D01*
X100909428Y-106204095D01*
X100861809Y-106108857D01*
X101290380Y-104870761D02*
X100290380Y-104870761D01*
X100290380Y-104489809D01*
X100338000Y-104394571D01*
X100385619Y-104346952D01*
X100480857Y-104299333D01*
X100623714Y-104299333D01*
X100718952Y-104346952D01*
X100766571Y-104394571D01*
X100814190Y-104489809D01*
X100814190Y-104870761D01*
X101290380Y-103870761D02*
X100623714Y-103870761D01*
X100290380Y-103870761D02*
X100338000Y-103918380D01*
X100385619Y-103870761D01*
X100338000Y-103823142D01*
X100290380Y-103870761D01*
X100385619Y-103870761D01*
X100623714Y-103394571D02*
X101290380Y-103394571D01*
X100718952Y-103394571D02*
X100671333Y-103346952D01*
X100623714Y-103251714D01*
X100623714Y-103108857D01*
X100671333Y-103013619D01*
X100766571Y-102966000D01*
X101290380Y-102966000D01*
X101242761Y-102537428D02*
X101290380Y-102442190D01*
X101290380Y-102251714D01*
X101242761Y-102156476D01*
X101147523Y-102108857D01*
X101099904Y-102108857D01*
X101004666Y-102156476D01*
X100957047Y-102251714D01*
X100957047Y-102394571D01*
X100909428Y-102489809D01*
X100814190Y-102537428D01*
X100766571Y-102537428D01*
X100671333Y-102489809D01*
X100623714Y-102394571D01*
X100623714Y-102251714D01*
X100671333Y-102156476D01*
X102616095Y-117403619D02*
X102663714Y-117356000D01*
X102758952Y-117308380D01*
X102997047Y-117308380D01*
X103092285Y-117356000D01*
X103139904Y-117403619D01*
X103187523Y-117498857D01*
X103187523Y-117594095D01*
X103139904Y-117736952D01*
X102568476Y-118308380D01*
X103187523Y-118308380D01*
X103568476Y-117403619D02*
X103616095Y-117356000D01*
X103711333Y-117308380D01*
X103949428Y-117308380D01*
X104044666Y-117356000D01*
X104092285Y-117403619D01*
X104139904Y-117498857D01*
X104139904Y-117594095D01*
X104092285Y-117736952D01*
X103520857Y-118308380D01*
X104139904Y-118308380D01*
X102616095Y-114863619D02*
X102663714Y-114816000D01*
X102758952Y-114768380D01*
X102997047Y-114768380D01*
X103092285Y-114816000D01*
X103139904Y-114863619D01*
X103187523Y-114958857D01*
X103187523Y-115054095D01*
X103139904Y-115196952D01*
X102568476Y-115768380D01*
X103187523Y-115768380D01*
X103520857Y-114768380D02*
X104139904Y-114768380D01*
X103806571Y-115149333D01*
X103949428Y-115149333D01*
X104044666Y-115196952D01*
X104092285Y-115244571D01*
X104139904Y-115339809D01*
X104139904Y-115577904D01*
X104092285Y-115673142D01*
X104044666Y-115720761D01*
X103949428Y-115768380D01*
X103663714Y-115768380D01*
X103568476Y-115720761D01*
X103520857Y-115673142D01*
X102616095Y-112323619D02*
X102663714Y-112276000D01*
X102758952Y-112228380D01*
X102997047Y-112228380D01*
X103092285Y-112276000D01*
X103139904Y-112323619D01*
X103187523Y-112418857D01*
X103187523Y-112514095D01*
X103139904Y-112656952D01*
X102568476Y-113228380D01*
X103187523Y-113228380D01*
X104044666Y-112561714D02*
X104044666Y-113228380D01*
X103806571Y-112180761D02*
X103568476Y-112895047D01*
X104187523Y-112895047D01*
X102616095Y-109783619D02*
X102663714Y-109736000D01*
X102758952Y-109688380D01*
X102997047Y-109688380D01*
X103092285Y-109736000D01*
X103139904Y-109783619D01*
X103187523Y-109878857D01*
X103187523Y-109974095D01*
X103139904Y-110116952D01*
X102568476Y-110688380D01*
X103187523Y-110688380D01*
X104092285Y-109688380D02*
X103616095Y-109688380D01*
X103568476Y-110164571D01*
X103616095Y-110116952D01*
X103711333Y-110069333D01*
X103949428Y-110069333D01*
X104044666Y-110116952D01*
X104092285Y-110164571D01*
X104139904Y-110259809D01*
X104139904Y-110497904D01*
X104092285Y-110593142D01*
X104044666Y-110640761D01*
X103949428Y-110688380D01*
X103711333Y-110688380D01*
X103616095Y-110640761D01*
X103568476Y-110593142D01*
X102616095Y-107243619D02*
X102663714Y-107196000D01*
X102758952Y-107148380D01*
X102997047Y-107148380D01*
X103092285Y-107196000D01*
X103139904Y-107243619D01*
X103187523Y-107338857D01*
X103187523Y-107434095D01*
X103139904Y-107576952D01*
X102568476Y-108148380D01*
X103187523Y-108148380D01*
X104044666Y-107148380D02*
X103854190Y-107148380D01*
X103758952Y-107196000D01*
X103711333Y-107243619D01*
X103616095Y-107386476D01*
X103568476Y-107576952D01*
X103568476Y-107957904D01*
X103616095Y-108053142D01*
X103663714Y-108100761D01*
X103758952Y-108148380D01*
X103949428Y-108148380D01*
X104044666Y-108100761D01*
X104092285Y-108053142D01*
X104139904Y-107957904D01*
X104139904Y-107719809D01*
X104092285Y-107624571D01*
X104044666Y-107576952D01*
X103949428Y-107529333D01*
X103758952Y-107529333D01*
X103663714Y-107576952D01*
X103616095Y-107624571D01*
X103568476Y-107719809D01*
X102616095Y-104703619D02*
X102663714Y-104656000D01*
X102758952Y-104608380D01*
X102997047Y-104608380D01*
X103092285Y-104656000D01*
X103139904Y-104703619D01*
X103187523Y-104798857D01*
X103187523Y-104894095D01*
X103139904Y-105036952D01*
X102568476Y-105608380D01*
X103187523Y-105608380D01*
X103520857Y-104608380D02*
X104187523Y-104608380D01*
X103758952Y-105608380D01*
X102616095Y-102163619D02*
X102663714Y-102116000D01*
X102758952Y-102068380D01*
X102997047Y-102068380D01*
X103092285Y-102116000D01*
X103139904Y-102163619D01*
X103187523Y-102258857D01*
X103187523Y-102354095D01*
X103139904Y-102496952D01*
X102568476Y-103068380D01*
X103187523Y-103068380D01*
X103758952Y-102496952D02*
X103663714Y-102449333D01*
X103616095Y-102401714D01*
X103568476Y-102306476D01*
X103568476Y-102258857D01*
X103616095Y-102163619D01*
X103663714Y-102116000D01*
X103758952Y-102068380D01*
X103949428Y-102068380D01*
X104044666Y-102116000D01*
X104092285Y-102163619D01*
X104139904Y-102258857D01*
X104139904Y-102306476D01*
X104092285Y-102401714D01*
X104044666Y-102449333D01*
X103949428Y-102496952D01*
X103758952Y-102496952D01*
X103663714Y-102544571D01*
X103616095Y-102592190D01*
X103568476Y-102687428D01*
X103568476Y-102877904D01*
X103616095Y-102973142D01*
X103663714Y-103020761D01*
X103758952Y-103068380D01*
X103949428Y-103068380D01*
X104044666Y-103020761D01*
X104092285Y-102973142D01*
X104139904Y-102877904D01*
X104139904Y-102687428D01*
X104092285Y-102592190D01*
X104044666Y-102544571D01*
X103949428Y-102496952D01*
X102616095Y-99623619D02*
X102663714Y-99576000D01*
X102758952Y-99528380D01*
X102997047Y-99528380D01*
X103092285Y-99576000D01*
X103139904Y-99623619D01*
X103187523Y-99718857D01*
X103187523Y-99814095D01*
X103139904Y-99956952D01*
X102568476Y-100528380D01*
X103187523Y-100528380D01*
X103663714Y-100528380D02*
X103854190Y-100528380D01*
X103949428Y-100480761D01*
X103997047Y-100433142D01*
X104092285Y-100290285D01*
X104139904Y-100099809D01*
X104139904Y-99718857D01*
X104092285Y-99623619D01*
X104044666Y-99576000D01*
X103949428Y-99528380D01*
X103758952Y-99528380D01*
X103663714Y-99576000D01*
X103616095Y-99623619D01*
X103568476Y-99718857D01*
X103568476Y-99956952D01*
X103616095Y-100052190D01*
X103663714Y-100099809D01*
X103758952Y-100147428D01*
X103949428Y-100147428D01*
X104044666Y-100099809D01*
X104092285Y-100052190D01*
X104139904Y-99956952D01*
X137414857Y-138850666D02*
X137891047Y-138850666D01*
X137319619Y-139136380D02*
X137652952Y-138136380D01*
X137986285Y-139136380D01*
X138319619Y-139136380D02*
X138319619Y-138469714D01*
X138319619Y-138660190D02*
X138367238Y-138564952D01*
X138414857Y-138517333D01*
X138510095Y-138469714D01*
X138605333Y-138469714D01*
X139367238Y-139136380D02*
X139367238Y-138136380D01*
X139367238Y-139088761D02*
X139272000Y-139136380D01*
X139081523Y-139136380D01*
X138986285Y-139088761D01*
X138938666Y-139041142D01*
X138891047Y-138945904D01*
X138891047Y-138660190D01*
X138938666Y-138564952D01*
X138986285Y-138517333D01*
X139081523Y-138469714D01*
X139272000Y-138469714D01*
X139367238Y-138517333D01*
X140272000Y-138469714D02*
X140272000Y-139136380D01*
X139843428Y-138469714D02*
X139843428Y-138993523D01*
X139891047Y-139088761D01*
X139986285Y-139136380D01*
X140129142Y-139136380D01*
X140224380Y-139088761D01*
X140272000Y-139041142D01*
X140748190Y-139136380D02*
X140748190Y-138469714D01*
X140748190Y-138136380D02*
X140700571Y-138184000D01*
X140748190Y-138231619D01*
X140795809Y-138184000D01*
X140748190Y-138136380D01*
X140748190Y-138231619D01*
X141224380Y-138469714D02*
X141224380Y-139136380D01*
X141224380Y-138564952D02*
X141272000Y-138517333D01*
X141367238Y-138469714D01*
X141510095Y-138469714D01*
X141605333Y-138517333D01*
X141652952Y-138612571D01*
X141652952Y-139136380D01*
X142272000Y-139136380D02*
X142176761Y-139088761D01*
X142129142Y-139041142D01*
X142081523Y-138945904D01*
X142081523Y-138660190D01*
X142129142Y-138564952D01*
X142176761Y-138517333D01*
X142272000Y-138469714D01*
X142414857Y-138469714D01*
X142510095Y-138517333D01*
X142557714Y-138564952D01*
X142605333Y-138660190D01*
X142605333Y-138945904D01*
X142557714Y-139041142D01*
X142510095Y-139088761D01*
X142414857Y-139136380D01*
X142272000Y-139136380D01*
X143795809Y-139136380D02*
X143795809Y-138136380D01*
X144129142Y-138850666D01*
X144462476Y-138136380D01*
X144462476Y-139136380D01*
X145319619Y-139088761D02*
X145224380Y-139136380D01*
X145033904Y-139136380D01*
X144938666Y-139088761D01*
X144891047Y-138993523D01*
X144891047Y-138612571D01*
X144938666Y-138517333D01*
X145033904Y-138469714D01*
X145224380Y-138469714D01*
X145319619Y-138517333D01*
X145367238Y-138612571D01*
X145367238Y-138707809D01*
X144891047Y-138803047D01*
X146224380Y-138469714D02*
X146224380Y-139279238D01*
X146176761Y-139374476D01*
X146129142Y-139422095D01*
X146033904Y-139469714D01*
X145891047Y-139469714D01*
X145795809Y-139422095D01*
X146224380Y-139088761D02*
X146129142Y-139136380D01*
X145938666Y-139136380D01*
X145843428Y-139088761D01*
X145795809Y-139041142D01*
X145748190Y-138945904D01*
X145748190Y-138660190D01*
X145795809Y-138564952D01*
X145843428Y-138517333D01*
X145938666Y-138469714D01*
X146129142Y-138469714D01*
X146224380Y-138517333D01*
X147129142Y-139136380D02*
X147129142Y-138612571D01*
X147081523Y-138517333D01*
X146986285Y-138469714D01*
X146795809Y-138469714D01*
X146700571Y-138517333D01*
X147129142Y-139088761D02*
X147033904Y-139136380D01*
X146795809Y-139136380D01*
X146700571Y-139088761D01*
X146652952Y-138993523D01*
X146652952Y-138898285D01*
X146700571Y-138803047D01*
X146795809Y-138755428D01*
X147033904Y-138755428D01*
X147129142Y-138707809D01*
X148367238Y-139136380D02*
X148367238Y-138136380D01*
X148748190Y-138136380D01*
X148843428Y-138184000D01*
X148891047Y-138231619D01*
X148938666Y-138326857D01*
X148938666Y-138469714D01*
X148891047Y-138564952D01*
X148843428Y-138612571D01*
X148748190Y-138660190D01*
X148367238Y-138660190D01*
X149367238Y-139136380D02*
X149367238Y-138469714D01*
X149367238Y-138136380D02*
X149319619Y-138184000D01*
X149367238Y-138231619D01*
X149414857Y-138184000D01*
X149367238Y-138136380D01*
X149367238Y-138231619D01*
X149843428Y-138469714D02*
X149843428Y-139136380D01*
X149843428Y-138564952D02*
X149891047Y-138517333D01*
X149986285Y-138469714D01*
X150129142Y-138469714D01*
X150224380Y-138517333D01*
X150272000Y-138612571D01*
X150272000Y-139136380D01*
X150700571Y-139088761D02*
X150795809Y-139136380D01*
X150986285Y-139136380D01*
X151081523Y-139088761D01*
X151129142Y-138993523D01*
X151129142Y-138945904D01*
X151081523Y-138850666D01*
X150986285Y-138803047D01*
X150843428Y-138803047D01*
X150748190Y-138755428D01*
X150700571Y-138660190D01*
X150700571Y-138612571D01*
X150748190Y-138517333D01*
X150843428Y-138469714D01*
X150986285Y-138469714D01*
X151081523Y-138517333D01*
X125555523Y-141390666D02*
X126031714Y-141390666D01*
X125460285Y-141676380D02*
X125793619Y-140676380D01*
X126126952Y-141676380D01*
X126984095Y-141676380D02*
X126412666Y-141676380D01*
X126698380Y-141676380D02*
X126698380Y-140676380D01*
X126603142Y-140819238D01*
X126507904Y-140914476D01*
X126412666Y-140962095D01*
X127888857Y-140676380D02*
X127412666Y-140676380D01*
X127365047Y-141152571D01*
X127412666Y-141104952D01*
X127507904Y-141057333D01*
X127746000Y-141057333D01*
X127841238Y-141104952D01*
X127888857Y-141152571D01*
X127936476Y-141247809D01*
X127936476Y-141485904D01*
X127888857Y-141581142D01*
X127841238Y-141628761D01*
X127746000Y-141676380D01*
X127507904Y-141676380D01*
X127412666Y-141628761D01*
X127365047Y-141581142D01*
X130635523Y-141390666D02*
X131111714Y-141390666D01*
X130540285Y-141676380D02*
X130873619Y-140676380D01*
X131206952Y-141676380D01*
X132064095Y-141676380D02*
X131492666Y-141676380D01*
X131778380Y-141676380D02*
X131778380Y-140676380D01*
X131683142Y-140819238D01*
X131587904Y-140914476D01*
X131492666Y-140962095D01*
X132921238Y-141009714D02*
X132921238Y-141676380D01*
X132683142Y-140628761D02*
X132445047Y-141343047D01*
X133064095Y-141343047D01*
X135715523Y-141390666D02*
X136191714Y-141390666D01*
X135620285Y-141676380D02*
X135953619Y-140676380D01*
X136286952Y-141676380D01*
X137144095Y-141676380D02*
X136572666Y-141676380D01*
X136858380Y-141676380D02*
X136858380Y-140676380D01*
X136763142Y-140819238D01*
X136667904Y-140914476D01*
X136572666Y-140962095D01*
X137477428Y-140676380D02*
X138096476Y-140676380D01*
X137763142Y-141057333D01*
X137906000Y-141057333D01*
X138001238Y-141104952D01*
X138048857Y-141152571D01*
X138096476Y-141247809D01*
X138096476Y-141485904D01*
X138048857Y-141581142D01*
X138001238Y-141628761D01*
X137906000Y-141676380D01*
X137620285Y-141676380D01*
X137525047Y-141628761D01*
X137477428Y-141581142D01*
X140795523Y-141390666D02*
X141271714Y-141390666D01*
X140700285Y-141676380D02*
X141033619Y-140676380D01*
X141366952Y-141676380D01*
X142224095Y-141676380D02*
X141652666Y-141676380D01*
X141938380Y-141676380D02*
X141938380Y-140676380D01*
X141843142Y-140819238D01*
X141747904Y-140914476D01*
X141652666Y-140962095D01*
X142605047Y-140771619D02*
X142652666Y-140724000D01*
X142747904Y-140676380D01*
X142986000Y-140676380D01*
X143081238Y-140724000D01*
X143128857Y-140771619D01*
X143176476Y-140866857D01*
X143176476Y-140962095D01*
X143128857Y-141104952D01*
X142557428Y-141676380D01*
X143176476Y-141676380D01*
X145621523Y-141390666D02*
X146097714Y-141390666D01*
X145526285Y-141676380D02*
X145859619Y-140676380D01*
X146192952Y-141676380D01*
X147050095Y-141676380D02*
X146478666Y-141676380D01*
X146764380Y-141676380D02*
X146764380Y-140676380D01*
X146669142Y-140819238D01*
X146573904Y-140914476D01*
X146478666Y-140962095D01*
X148002476Y-141676380D02*
X147431047Y-141676380D01*
X147716761Y-141676380D02*
X147716761Y-140676380D01*
X147621523Y-140819238D01*
X147526285Y-140914476D01*
X147431047Y-140962095D01*
X150447523Y-141390666D02*
X150923714Y-141390666D01*
X150352285Y-141676380D02*
X150685619Y-140676380D01*
X151018952Y-141676380D01*
X151876095Y-141676380D02*
X151304666Y-141676380D01*
X151590380Y-141676380D02*
X151590380Y-140676380D01*
X151495142Y-140819238D01*
X151399904Y-140914476D01*
X151304666Y-140962095D01*
X152495142Y-140676380D02*
X152590380Y-140676380D01*
X152685619Y-140724000D01*
X152733238Y-140771619D01*
X152780857Y-140866857D01*
X152828476Y-141057333D01*
X152828476Y-141295428D01*
X152780857Y-141485904D01*
X152733238Y-141581142D01*
X152685619Y-141628761D01*
X152590380Y-141676380D01*
X152495142Y-141676380D01*
X152399904Y-141628761D01*
X152352285Y-141581142D01*
X152304666Y-141485904D01*
X152257047Y-141295428D01*
X152257047Y-141057333D01*
X152304666Y-140866857D01*
X152352285Y-140771619D01*
X152399904Y-140724000D01*
X152495142Y-140676380D01*
X156257714Y-141390666D02*
X156733904Y-141390666D01*
X156162476Y-141676380D02*
X156495809Y-140676380D01*
X156829142Y-141676380D01*
X157210095Y-141676380D02*
X157400571Y-141676380D01*
X157495809Y-141628761D01*
X157543428Y-141581142D01*
X157638666Y-141438285D01*
X157686285Y-141247809D01*
X157686285Y-140866857D01*
X157638666Y-140771619D01*
X157591047Y-140724000D01*
X157495809Y-140676380D01*
X157305333Y-140676380D01*
X157210095Y-140724000D01*
X157162476Y-140771619D01*
X157114857Y-140866857D01*
X157114857Y-141104952D01*
X157162476Y-141200190D01*
X157210095Y-141247809D01*
X157305333Y-141295428D01*
X157495809Y-141295428D01*
X157591047Y-141247809D01*
X157638666Y-141200190D01*
X157686285Y-141104952D01*
X161337714Y-141390666D02*
X161813904Y-141390666D01*
X161242476Y-141676380D02*
X161575809Y-140676380D01*
X161909142Y-141676380D01*
X162385333Y-141104952D02*
X162290095Y-141057333D01*
X162242476Y-141009714D01*
X162194857Y-140914476D01*
X162194857Y-140866857D01*
X162242476Y-140771619D01*
X162290095Y-140724000D01*
X162385333Y-140676380D01*
X162575809Y-140676380D01*
X162671047Y-140724000D01*
X162718666Y-140771619D01*
X162766285Y-140866857D01*
X162766285Y-140914476D01*
X162718666Y-141009714D01*
X162671047Y-141057333D01*
X162575809Y-141104952D01*
X162385333Y-141104952D01*
X162290095Y-141152571D01*
X162242476Y-141200190D01*
X162194857Y-141295428D01*
X162194857Y-141485904D01*
X162242476Y-141581142D01*
X162290095Y-141628761D01*
X162385333Y-141676380D01*
X162575809Y-141676380D01*
X162671047Y-141628761D01*
X162718666Y-141581142D01*
X162766285Y-141485904D01*
X162766285Y-141295428D01*
X162718666Y-141200190D01*
X162671047Y-141152571D01*
X162575809Y-141104952D01*
X166116095Y-140724000D02*
X166020857Y-140676380D01*
X165878000Y-140676380D01*
X165735142Y-140724000D01*
X165639904Y-140819238D01*
X165592285Y-140914476D01*
X165544666Y-141104952D01*
X165544666Y-141247809D01*
X165592285Y-141438285D01*
X165639904Y-141533523D01*
X165735142Y-141628761D01*
X165878000Y-141676380D01*
X165973238Y-141676380D01*
X166116095Y-141628761D01*
X166163714Y-141581142D01*
X166163714Y-141247809D01*
X165973238Y-141247809D01*
X166592285Y-141676380D02*
X166592285Y-140676380D01*
X167163714Y-141676380D01*
X167163714Y-140676380D01*
X167639904Y-141676380D02*
X167639904Y-140676380D01*
X167878000Y-140676380D01*
X168020857Y-140724000D01*
X168116095Y-140819238D01*
X168163714Y-140914476D01*
X168211333Y-141104952D01*
X168211333Y-141247809D01*
X168163714Y-141438285D01*
X168116095Y-141533523D01*
X168020857Y-141628761D01*
X167878000Y-141676380D01*
X167639904Y-141676380D01*
X194564095Y-109736000D02*
X194468857Y-109688380D01*
X194326000Y-109688380D01*
X194183142Y-109736000D01*
X194087904Y-109831238D01*
X194040285Y-109926476D01*
X193992666Y-110116952D01*
X193992666Y-110259809D01*
X194040285Y-110450285D01*
X194087904Y-110545523D01*
X194183142Y-110640761D01*
X194326000Y-110688380D01*
X194421238Y-110688380D01*
X194564095Y-110640761D01*
X194611714Y-110593142D01*
X194611714Y-110259809D01*
X194421238Y-110259809D01*
X195040285Y-110688380D02*
X195040285Y-109688380D01*
X195611714Y-110688380D01*
X195611714Y-109688380D01*
X196087904Y-110688380D02*
X196087904Y-109688380D01*
X196326000Y-109688380D01*
X196468857Y-109736000D01*
X196564095Y-109831238D01*
X196611714Y-109926476D01*
X196659333Y-110116952D01*
X196659333Y-110259809D01*
X196611714Y-110450285D01*
X196564095Y-110545523D01*
X196468857Y-110640761D01*
X196326000Y-110688380D01*
X196087904Y-110688380D01*
X194564095Y-104656000D02*
X194468857Y-104608380D01*
X194326000Y-104608380D01*
X194183142Y-104656000D01*
X194087904Y-104751238D01*
X194040285Y-104846476D01*
X193992666Y-105036952D01*
X193992666Y-105179809D01*
X194040285Y-105370285D01*
X194087904Y-105465523D01*
X194183142Y-105560761D01*
X194326000Y-105608380D01*
X194421238Y-105608380D01*
X194564095Y-105560761D01*
X194611714Y-105513142D01*
X194611714Y-105179809D01*
X194421238Y-105179809D01*
X195040285Y-105608380D02*
X195040285Y-104608380D01*
X195611714Y-105608380D01*
X195611714Y-104608380D01*
X196087904Y-105608380D02*
X196087904Y-104608380D01*
X196326000Y-104608380D01*
X196468857Y-104656000D01*
X196564095Y-104751238D01*
X196611714Y-104846476D01*
X196659333Y-105036952D01*
X196659333Y-105179809D01*
X196611714Y-105370285D01*
X196564095Y-105465523D01*
X196468857Y-105560761D01*
X196326000Y-105608380D01*
X196087904Y-105608380D01*
X192738571Y-99528380D02*
X192262380Y-99528380D01*
X192214761Y-100004571D01*
X192262380Y-99956952D01*
X192357619Y-99909333D01*
X192595714Y-99909333D01*
X192690952Y-99956952D01*
X192738571Y-100004571D01*
X192786190Y-100099809D01*
X192786190Y-100337904D01*
X192738571Y-100433142D01*
X192690952Y-100480761D01*
X192595714Y-100528380D01*
X192357619Y-100528380D01*
X192262380Y-100480761D01*
X192214761Y-100433142D01*
X193071904Y-99528380D02*
X193405238Y-100528380D01*
X193738571Y-99528380D01*
X194833809Y-100528380D02*
X194833809Y-99528380D01*
X195071904Y-99528380D01*
X195214761Y-99576000D01*
X195310000Y-99671238D01*
X195357619Y-99766476D01*
X195405238Y-99956952D01*
X195405238Y-100099809D01*
X195357619Y-100290285D01*
X195310000Y-100385523D01*
X195214761Y-100480761D01*
X195071904Y-100528380D01*
X194833809Y-100528380D01*
X196405238Y-100433142D02*
X196357619Y-100480761D01*
X196214761Y-100528380D01*
X196119523Y-100528380D01*
X195976666Y-100480761D01*
X195881428Y-100385523D01*
X195833809Y-100290285D01*
X195786190Y-100099809D01*
X195786190Y-99956952D01*
X195833809Y-99766476D01*
X195881428Y-99671238D01*
X195976666Y-99576000D01*
X196119523Y-99528380D01*
X196214761Y-99528380D01*
X196357619Y-99576000D01*
X196405238Y-99623619D01*
X174244095Y-140724000D02*
X174148857Y-140676380D01*
X174006000Y-140676380D01*
X173863142Y-140724000D01*
X173767904Y-140819238D01*
X173720285Y-140914476D01*
X173672666Y-141104952D01*
X173672666Y-141247809D01*
X173720285Y-141438285D01*
X173767904Y-141533523D01*
X173863142Y-141628761D01*
X174006000Y-141676380D01*
X174101238Y-141676380D01*
X174244095Y-141628761D01*
X174291714Y-141581142D01*
X174291714Y-141247809D01*
X174101238Y-141247809D01*
X174720285Y-141676380D02*
X174720285Y-140676380D01*
X175291714Y-141676380D01*
X175291714Y-140676380D01*
X175767904Y-141676380D02*
X175767904Y-140676380D01*
X176006000Y-140676380D01*
X176148857Y-140724000D01*
X176244095Y-140819238D01*
X176291714Y-140914476D01*
X176339333Y-141104952D01*
X176339333Y-141247809D01*
X176291714Y-141438285D01*
X176244095Y-141533523D01*
X176148857Y-141628761D01*
X176006000Y-141676380D01*
X175767904Y-141676380D01*
X178260666Y-141628761D02*
X178403523Y-141676380D01*
X178641619Y-141676380D01*
X178736857Y-141628761D01*
X178784476Y-141581142D01*
X178832095Y-141485904D01*
X178832095Y-141390666D01*
X178784476Y-141295428D01*
X178736857Y-141247809D01*
X178641619Y-141200190D01*
X178451142Y-141152571D01*
X178355904Y-141104952D01*
X178308285Y-141057333D01*
X178260666Y-140962095D01*
X178260666Y-140866857D01*
X178308285Y-140771619D01*
X178355904Y-140724000D01*
X178451142Y-140676380D01*
X178689238Y-140676380D01*
X178832095Y-140724000D01*
X179641619Y-141628761D02*
X179546380Y-141676380D01*
X179355904Y-141676380D01*
X179260666Y-141628761D01*
X179213047Y-141533523D01*
X179213047Y-141152571D01*
X179260666Y-141057333D01*
X179355904Y-141009714D01*
X179546380Y-141009714D01*
X179641619Y-141057333D01*
X179689238Y-141152571D01*
X179689238Y-141247809D01*
X179213047Y-141343047D01*
X180117809Y-141009714D02*
X180117809Y-141676380D01*
X180117809Y-141104952D02*
X180165428Y-141057333D01*
X180260666Y-141009714D01*
X180403523Y-141009714D01*
X180498761Y-141057333D01*
X180546380Y-141152571D01*
X180546380Y-141676380D01*
X180974952Y-141628761D02*
X181070190Y-141676380D01*
X181260666Y-141676380D01*
X181355904Y-141628761D01*
X181403523Y-141533523D01*
X181403523Y-141485904D01*
X181355904Y-141390666D01*
X181260666Y-141343047D01*
X181117809Y-141343047D01*
X181022571Y-141295428D01*
X180974952Y-141200190D01*
X180974952Y-141152571D01*
X181022571Y-141057333D01*
X181117809Y-141009714D01*
X181260666Y-141009714D01*
X181355904Y-141057333D01*
X181974952Y-141676380D02*
X181879714Y-141628761D01*
X181832095Y-141581142D01*
X181784476Y-141485904D01*
X181784476Y-141200190D01*
X181832095Y-141104952D01*
X181879714Y-141057333D01*
X181974952Y-141009714D01*
X182117809Y-141009714D01*
X182213047Y-141057333D01*
X182260666Y-141104952D01*
X182308285Y-141200190D01*
X182308285Y-141485904D01*
X182260666Y-141581142D01*
X182213047Y-141628761D01*
X182117809Y-141676380D01*
X181974952Y-141676380D01*
X182736857Y-141676380D02*
X182736857Y-141009714D01*
X182736857Y-141200190D02*
X182784476Y-141104952D01*
X182832095Y-141057333D01*
X182927333Y-141009714D01*
X183022571Y-141009714D01*
X184483523Y-140676380D02*
X184816857Y-141676380D01*
X185150190Y-140676380D01*
X185912095Y-141628761D02*
X185816857Y-141676380D01*
X185626380Y-141676380D01*
X185531142Y-141628761D01*
X185483523Y-141581142D01*
X185435904Y-141485904D01*
X185435904Y-141200190D01*
X185483523Y-141104952D01*
X185531142Y-141057333D01*
X185626380Y-141009714D01*
X185816857Y-141009714D01*
X185912095Y-141057333D01*
X186769238Y-141628761D02*
X186674000Y-141676380D01*
X186483523Y-141676380D01*
X186388285Y-141628761D01*
X186340666Y-141581142D01*
X186293047Y-141485904D01*
X186293047Y-141200190D01*
X186340666Y-141104952D01*
X186388285Y-141057333D01*
X186483523Y-141009714D01*
X186674000Y-141009714D01*
X186769238Y-141057333D01*
D11*
X75830000Y-59618000D02*
X75830000Y-55258000D01*
X61950000Y-59618000D02*
X68950000Y-59618000D01*
X61950000Y-136898000D02*
X61950000Y-59618000D01*
X68950000Y-136898000D02*
X61950000Y-136898000D01*
X82830000Y-59618000D02*
X75830000Y-59618000D01*
X82830000Y-136898000D02*
X82830000Y-59618000D01*
X75830000Y-136898000D02*
X82810000Y-136898000D01*
X78390000Y-142008000D02*
X78390000Y-139508000D01*
X78390000Y-54508000D02*
X78390000Y-57008000D01*
X77140000Y-55758000D02*
X79640000Y-55758000D01*
D12*
X89513000Y-49606000D02*
X88363000Y-49606000D01*
D11*
X82698000Y-50008064D02*
X82698000Y-48803936D01*
X80878000Y-50008064D02*
X80878000Y-48803936D01*
X85568000Y-82016000D02*
X93628000Y-82016000D01*
X93628000Y-82016000D02*
X93628000Y-77496000D01*
X93628000Y-77496000D02*
X85568000Y-77496000D01*
D10*
X149880000Y-84529000D02*
X152380000Y-84529000D01*
X150480000Y-86279000D02*
X151780000Y-86279000D01*
X151780000Y-86679000D02*
X150480000Y-86679000D01*
X150480000Y-86479000D02*
X151780000Y-86479000D01*
X150480000Y-88279000D02*
X150480000Y-86279000D01*
X151780000Y-86279000D02*
X151780000Y-88279000D01*
D11*
X111938000Y-65143000D02*
X115823000Y-65143000D01*
X115823000Y-65143000D02*
X115823000Y-62873000D01*
X115823000Y-62873000D02*
X111938000Y-62873000D01*
X157143422Y-88698000D02*
X157660578Y-88698000D01*
X157143422Y-90118000D02*
X157660578Y-90118000D01*
X106015500Y-92684000D02*
X114075500Y-92684000D01*
X106015500Y-88164000D02*
X106015500Y-92684000D01*
X114075500Y-88164000D02*
X106015500Y-88164000D01*
X171037000Y-64176000D02*
X169237000Y-64176000D01*
X169237000Y-67396000D02*
X171687000Y-67396000D01*
D10*
X128097000Y-56276000D02*
X126097000Y-56276000D01*
X126097000Y-54976000D02*
X128097000Y-54976000D01*
X127897000Y-54976000D02*
X127897000Y-56276000D01*
X127697000Y-56276000D02*
X127697000Y-54976000D01*
X128097000Y-54976000D02*
X128097000Y-56276000D01*
X129847000Y-54376000D02*
X129847000Y-56876000D01*
D11*
X87016000Y-72425936D02*
X87016000Y-73630064D01*
X85196000Y-72425936D02*
X85196000Y-73630064D01*
X120370000Y-48608000D02*
X120370000Y-40548000D01*
X120370000Y-40548000D02*
X115850000Y-40548000D01*
X115850000Y-40548000D02*
X115850000Y-48608000D01*
X147650000Y-48595000D02*
X143740000Y-48595000D01*
X143740000Y-48595000D02*
X143740000Y-50465000D01*
X143740000Y-50465000D02*
X147650000Y-50465000D01*
X162589936Y-60981000D02*
X163794064Y-60981000D01*
X162589936Y-59161000D02*
X163794064Y-59161000D01*
X132186000Y-56736064D02*
X132186000Y-55531936D01*
X134006000Y-56736064D02*
X134006000Y-55531936D01*
X162589936Y-62336000D02*
X163794064Y-62336000D01*
X162589936Y-64156000D02*
X163794064Y-64156000D01*
X102828000Y-49682000D02*
X105678000Y-49682000D01*
X111548000Y-49682000D02*
X108698000Y-49682000D01*
X111548000Y-42026437D02*
X111548000Y-49682000D01*
X102828000Y-42026437D02*
X102828000Y-49682000D01*
X103892437Y-40962000D02*
X105678000Y-40962000D01*
X110483563Y-40962000D02*
X108698000Y-40962000D01*
X110483563Y-40962000D02*
X111548000Y-42026437D01*
X103892437Y-40962000D02*
X102828000Y-42026437D01*
X109698000Y-39722000D02*
X109698000Y-40722000D01*
X110198000Y-40222000D02*
X109198000Y-40222000D01*
X162589936Y-57806000D02*
X163794064Y-57806000D01*
X162589936Y-55986000D02*
X163794064Y-55986000D01*
X128234064Y-45572000D02*
X127029936Y-45572000D01*
X128234064Y-47392000D02*
X127029936Y-47392000D01*
X163794064Y-54631000D02*
X162589936Y-54631000D01*
X163794064Y-52811000D02*
X162589936Y-52811000D01*
D12*
X92462000Y-87338000D02*
X95662000Y-87338000D01*
X95662000Y-87338000D02*
X95662000Y-92240000D01*
X95662000Y-92240000D02*
X92462000Y-92240000D01*
X92462000Y-92240000D02*
X92462000Y-87338000D01*
X90587000Y-87209000D02*
X92112000Y-87209000D01*
D11*
X146305000Y-46231000D02*
X149605000Y-46231000D01*
X149605000Y-46231000D02*
X149605000Y-40831000D01*
X146305000Y-46231000D02*
X146305000Y-40831000D01*
X122120000Y-66429000D02*
X118235000Y-66429000D01*
X118235000Y-66429000D02*
X118235000Y-68699000D01*
X118235000Y-68699000D02*
X122120000Y-68699000D01*
X118235000Y-65143000D02*
X122120000Y-65143000D01*
X118235000Y-62873000D02*
X118235000Y-65143000D01*
X122120000Y-62873000D02*
X118235000Y-62873000D01*
X122120000Y-59317000D02*
X118235000Y-59317000D01*
X118235000Y-59317000D02*
X118235000Y-61587000D01*
X118235000Y-61587000D02*
X122120000Y-61587000D01*
X136782000Y-41380000D02*
X136782000Y-44980000D01*
X144142000Y-41380000D02*
X144142000Y-44980000D01*
X138662000Y-46860000D02*
X142262000Y-46860000D01*
X138662000Y-39500000D02*
X142262000Y-39500000D01*
D13*
X200918000Y-53074000D02*
X203218000Y-53074000D01*
X203218000Y-53074000D02*
X203218000Y-72424000D01*
X203218000Y-72424000D02*
X200918000Y-72424000D01*
X177518000Y-58424000D02*
X177518000Y-53074000D01*
X177518000Y-53074000D02*
X196618000Y-53074000D01*
X177518000Y-70424000D02*
X177518000Y-72424000D01*
X177518000Y-72424000D02*
X196618000Y-72424000D01*
X176518000Y-59724000D02*
X176518000Y-59724000D01*
X176518000Y-59824000D02*
X176518000Y-59824000D01*
X176518000Y-59824000D02*
G75*
G03X176518000Y-59724000I0J50000D01*
G01*
X176518000Y-59724000D02*
G75*
G03X176518000Y-59824000I0J-50000D01*
G01*
D14*
X91372000Y-64094000D02*
X91372000Y-68494000D01*
X91372000Y-68494000D02*
X95572000Y-68494000D01*
X95572000Y-68494000D02*
X95572000Y-64094000D01*
X95572000Y-64094000D02*
X91372000Y-64094000D01*
D13*
X92095610Y-64594000D02*
G75*
G03X92095610Y-64594000I-223610J0D01*
G01*
D11*
X111253000Y-61587000D02*
X115138000Y-61587000D01*
X111253000Y-59317000D02*
X111253000Y-61587000D01*
X115138000Y-59317000D02*
X111253000Y-59317000D01*
X118842064Y-75798000D02*
X117637936Y-75798000D01*
X118842064Y-77618000D02*
X117637936Y-77618000D01*
D13*
X101386000Y-77374000D02*
X101386000Y-83074000D01*
X106386000Y-77374000D02*
X106386000Y-83074000D01*
D11*
X132694000Y-90205936D02*
X132694000Y-91410064D01*
X134514000Y-90205936D02*
X134514000Y-91410064D01*
X162586000Y-74686000D02*
X164046000Y-74686000D01*
X162586000Y-77846000D02*
X165746000Y-77846000D01*
X162586000Y-77846000D02*
X162586000Y-76916000D01*
X162586000Y-74686000D02*
X162586000Y-75616000D01*
X132212000Y-84302000D02*
X133142000Y-84302000D01*
X135372000Y-84302000D02*
X134442000Y-84302000D01*
X135372000Y-84302000D02*
X135372000Y-81142000D01*
X132212000Y-84302000D02*
X132212000Y-82842000D01*
X154018064Y-77618000D02*
X152813936Y-77618000D01*
X154018064Y-75798000D02*
X152813936Y-75798000D01*
X134076064Y-77364000D02*
X132871936Y-77364000D01*
X134076064Y-75544000D02*
X132871936Y-75544000D01*
X169270000Y-75473936D02*
X169270000Y-76678064D01*
X171090000Y-75473936D02*
X171090000Y-76678064D01*
X169574936Y-59161000D02*
X170779064Y-59161000D01*
X169574936Y-60981000D02*
X170779064Y-60981000D01*
X170779064Y-55986000D02*
X169574936Y-55986000D01*
X170779064Y-57806000D02*
X169574936Y-57806000D01*
X169574936Y-52811000D02*
X170779064Y-52811000D01*
X169574936Y-54631000D02*
X170779064Y-54631000D01*
X116596000Y-84556000D02*
X117526000Y-84556000D01*
X119756000Y-84556000D02*
X118826000Y-84556000D01*
X119756000Y-84556000D02*
X119756000Y-81396000D01*
X116596000Y-84556000D02*
X116596000Y-83096000D01*
X120544000Y-90453936D02*
X120544000Y-91658064D01*
X118724000Y-90453936D02*
X118724000Y-91658064D01*
X126840064Y-90826000D02*
X125635936Y-90826000D01*
X126840064Y-89006000D02*
X125635936Y-89006000D01*
X87016000Y-65561936D02*
X87016000Y-66766064D01*
X85196000Y-65561936D02*
X85196000Y-66766064D01*
X93324000Y-48419936D02*
X93324000Y-49624064D01*
X95144000Y-48419936D02*
X95144000Y-49624064D01*
X127029936Y-68474000D02*
X128234064Y-68474000D01*
X127029936Y-66654000D02*
X128234064Y-66654000D01*
X127029936Y-63098000D02*
X128234064Y-63098000D01*
X127029936Y-64918000D02*
X128234064Y-64918000D01*
X127029936Y-59542000D02*
X128234064Y-59542000D01*
X127029936Y-61362000D02*
X128234064Y-61362000D01*
X80878000Y-55336064D02*
X80878000Y-54131936D01*
X82698000Y-55336064D02*
X82698000Y-54131936D01*
X157261936Y-85746000D02*
X158466064Y-85746000D01*
X157261936Y-83926000D02*
X158466064Y-83926000D01*
X164156000Y-90352000D02*
X164156000Y-90322000D01*
X164156000Y-83892000D02*
X164156000Y-83922000D01*
X170616000Y-83892000D02*
X170616000Y-83922000D01*
X170616000Y-90322000D02*
X170616000Y-90352000D01*
X164156000Y-88422000D02*
X164156000Y-85822000D01*
X170616000Y-90352000D02*
X164156000Y-90352000D01*
X170616000Y-88422000D02*
X170616000Y-85822000D01*
X170616000Y-83892000D02*
X164156000Y-83892000D01*
X106077936Y-64918000D02*
X107282064Y-64918000D01*
X106077936Y-63098000D02*
X107282064Y-63098000D01*
X105953936Y-59542000D02*
X107158064Y-59542000D01*
X105953936Y-61362000D02*
X107158064Y-61362000D01*
X154325000Y-68666000D02*
X154325000Y-65706000D01*
X154325000Y-52746000D02*
X152015000Y-52746000D01*
X154325000Y-52746000D02*
X154325000Y-55706000D01*
X154325000Y-68666000D02*
X152015000Y-68666000D01*
X136505000Y-52746000D02*
X136505000Y-55706000D01*
X136505000Y-52746000D02*
X138815000Y-52746000D01*
X136505000Y-68556000D02*
X136505000Y-65706000D01*
X89002000Y-53044000D02*
X89002000Y-55894000D01*
X89002000Y-61764000D02*
X89002000Y-58914000D01*
X96657563Y-61764000D02*
X89002000Y-61764000D01*
X96657563Y-53044000D02*
X89002000Y-53044000D01*
X97722000Y-54108437D02*
X97722000Y-55894000D01*
X97722000Y-60699563D02*
X97722000Y-58914000D01*
X97722000Y-60699563D02*
X96657563Y-61764000D01*
X97722000Y-54108437D02*
X96657563Y-53044000D01*
X98962000Y-59914000D02*
X97962000Y-59914000D01*
X98462000Y-60414000D02*
X98462000Y-59414000D01*
D13*
X202280000Y-119936000D02*
X202280000Y-118436000D01*
X202280000Y-118436000D02*
X187080000Y-118436000D01*
X187080000Y-118436000D02*
X187080000Y-127436000D01*
X187080000Y-127436000D02*
X195080000Y-127436000D01*
D11*
X172724000Y-102626000D02*
G75*
G03X172724000Y-102626000I-6100000J0D01*
G01*
X128234064Y-42566000D02*
X127029936Y-42566000D01*
X128234064Y-40746000D02*
X127029936Y-40746000D01*
X99928000Y-132552064D02*
X99928000Y-131347936D01*
X101748000Y-132552064D02*
X101748000Y-131347936D01*
X89048000Y-124046064D02*
X89048000Y-122841936D01*
X87228000Y-124046064D02*
X87228000Y-122841936D01*
X145902000Y-116296064D02*
X145902000Y-115091936D01*
X147722000Y-116296064D02*
X147722000Y-115091936D01*
X131347936Y-119020000D02*
X132552064Y-119020000D01*
X131347936Y-117200000D02*
X132552064Y-117200000D01*
X98896000Y-41431936D02*
X98896000Y-42636064D01*
X96176000Y-41431936D02*
X96176000Y-42636064D01*
X155902000Y-103513000D02*
X152017000Y-103513000D01*
X152017000Y-103513000D02*
X152017000Y-105783000D01*
X152017000Y-105783000D02*
X155902000Y-105783000D01*
X108339000Y-140085000D02*
X108339000Y-143970000D01*
X110609000Y-140085000D02*
X108339000Y-140085000D01*
X110609000Y-143970000D02*
X110609000Y-140085000D01*
X115435000Y-143970000D02*
X115435000Y-140085000D01*
X115435000Y-140085000D02*
X113165000Y-140085000D01*
X113165000Y-140085000D02*
X113165000Y-143970000D01*
X156593000Y-106307000D02*
X152708000Y-106307000D01*
X156593000Y-108577000D02*
X156593000Y-106307000D01*
X152708000Y-108577000D02*
X156593000Y-108577000D01*
X193170000Y-104308248D02*
X193170000Y-108715752D01*
X187830000Y-104308248D02*
X187830000Y-108715752D01*
D14*
X151638000Y-94488000D02*
X152400000Y-95250000D01*
X152400000Y-95250000D02*
X152400000Y-98806000D01*
X152400000Y-98806000D02*
X151638000Y-99568000D01*
X151638000Y-99568000D02*
X150368000Y-99568000D01*
X150368000Y-99568000D02*
X149860000Y-99060000D01*
X149860000Y-99060000D02*
X149352000Y-99568000D01*
X149352000Y-99568000D02*
X147828000Y-99568000D01*
X147828000Y-99568000D02*
X147320000Y-99060000D01*
X147320000Y-99060000D02*
X146812000Y-99568000D01*
X146812000Y-99568000D02*
X145542000Y-99568000D01*
X145542000Y-99568000D02*
X144780000Y-98806000D01*
X144780000Y-98806000D02*
X144780000Y-95250000D01*
X144780000Y-95250000D02*
X145542000Y-94488000D01*
X145542000Y-94488000D02*
X146812000Y-94488000D01*
X146812000Y-94488000D02*
X147320000Y-94996000D01*
X147320000Y-94996000D02*
X147828000Y-94488000D01*
X147828000Y-94488000D02*
X149352000Y-94488000D01*
X149352000Y-94488000D02*
X149860000Y-94996000D01*
X149860000Y-94996000D02*
X150368000Y-94488000D01*
X150368000Y-94488000D02*
X151638000Y-94488000D01*
D12*
X127000000Y-152636000D02*
X169700000Y-152636000D01*
X169700000Y-152636000D02*
X169700000Y-144286000D01*
X169700000Y-144286000D02*
X124500000Y-144286000D01*
X124500000Y-144286000D02*
X124500000Y-148336000D01*
X172760000Y-144236000D02*
X172760000Y-148336000D01*
X187760000Y-144236000D02*
X172760000Y-144236000D01*
X187760000Y-151836000D02*
X187760000Y-144236000D01*
X175260000Y-151836000D02*
X187760000Y-151836000D01*
D15*
X105537000Y-119761000D02*
X105537000Y-98171000D01*
X105537000Y-98171000D02*
X109347000Y-98171000D01*
X109347000Y-98171000D02*
X109347000Y-119761000D01*
X109347000Y-119761000D02*
X105537000Y-119761000D01*
X105537000Y-116586000D02*
X109347000Y-116586000D01*
D10*
X109982000Y-119761000D02*
X109982000Y-116586000D01*
D13*
X91292000Y-150711000D02*
X91292000Y-151361000D01*
X91292000Y-151361000D02*
X98192000Y-151361000D01*
X98192000Y-151361000D02*
X98192000Y-150711000D01*
X91292000Y-147711000D02*
X91292000Y-146511000D01*
X98192000Y-147711000D02*
X98192000Y-146511000D01*
D12*
X93342000Y-145411000D02*
X93342000Y-145411000D01*
X93542000Y-145411000D02*
X93542000Y-145411000D01*
X93542000Y-145411000D02*
G75*
G03X93342000Y-145411000I-100000J0D01*
G01*
X93342000Y-145411000D02*
G75*
G03X93542000Y-145411000I100000J0D01*
G01*
X197160000Y-100076000D02*
X197160000Y-112576000D01*
X197160000Y-112576000D02*
X204760000Y-112576000D01*
X204760000Y-112576000D02*
X204760000Y-97576000D01*
X204760000Y-97576000D02*
X200660000Y-97576000D01*
X86034000Y-40699000D02*
X89734000Y-40699000D01*
X89734000Y-40699000D02*
X89734000Y-43629000D01*
X89734000Y-43629000D02*
X86034000Y-43629000D01*
X86034000Y-43629000D02*
X86034000Y-40699000D01*
X84209000Y-40614000D02*
X85684000Y-40614000D01*
D11*
X105558000Y-149830064D02*
X105558000Y-148625936D01*
X103738000Y-149830064D02*
X103738000Y-148625936D01*
X105558000Y-143096064D02*
X105558000Y-141891936D01*
X103738000Y-143096064D02*
X103738000Y-141891936D01*
X147792064Y-103738000D02*
X146587936Y-103738000D01*
X147792064Y-105558000D02*
X146587936Y-105558000D01*
X96160000Y-122711936D02*
X96160000Y-123916064D01*
X94340000Y-122711936D02*
X94340000Y-123916064D01*
X96230064Y-116946000D02*
X95025936Y-116946000D01*
X96230064Y-118766000D02*
X95025936Y-118766000D01*
X89118064Y-118766000D02*
X87913936Y-118766000D01*
X89118064Y-116946000D02*
X87913936Y-116946000D01*
X131347936Y-126386000D02*
X132552064Y-126386000D01*
X131347936Y-124566000D02*
X132552064Y-124566000D01*
X110384000Y-149830064D02*
X110384000Y-148625936D01*
X108564000Y-149830064D02*
X108564000Y-148625936D01*
X131347936Y-120756000D02*
X132552064Y-120756000D01*
X131347936Y-122576000D02*
X132552064Y-122576000D01*
X113390000Y-149830064D02*
X113390000Y-148625936D01*
X115210000Y-149830064D02*
X115210000Y-148625936D01*
X147792064Y-106532000D02*
X146587936Y-106532000D01*
X147792064Y-108352000D02*
X146587936Y-108352000D01*
X155685000Y-120034000D02*
X162145000Y-120034000D01*
X155685000Y-115504000D02*
X155685000Y-118104000D01*
X155685000Y-113574000D02*
X162145000Y-113574000D01*
X162145000Y-115504000D02*
X162145000Y-118104000D01*
X155685000Y-113604000D02*
X155685000Y-113574000D01*
X155685000Y-120034000D02*
X155685000Y-120004000D01*
X162145000Y-120034000D02*
X162145000Y-120004000D01*
X162145000Y-113574000D02*
X162145000Y-113604000D01*
X130870000Y-113028000D02*
X131570000Y-113028000D01*
X131570000Y-113028000D02*
X131570000Y-112328000D01*
X118050000Y-113028000D02*
X117350000Y-113028000D01*
X117350000Y-113028000D02*
X117350000Y-112328000D01*
X130870000Y-98808000D02*
X131570000Y-98808000D01*
X131570000Y-98808000D02*
X131570000Y-99508000D01*
X118050000Y-98808000D02*
X117350000Y-98808000D01*
X117350000Y-98808000D02*
X117350000Y-99508000D01*
X131570000Y-112328000D02*
X132860000Y-112328000D01*
D10*
X118822000Y-128741000D02*
X118247000Y-128741000D01*
X118822000Y-134491000D02*
X118172000Y-134491000D01*
X108172000Y-134491000D02*
X108822000Y-134491000D01*
X108172000Y-128741000D02*
X108822000Y-128741000D01*
X118822000Y-128741000D02*
X118822000Y-134491000D01*
X108172000Y-128741000D02*
X108172000Y-134491000D01*
X118247000Y-128741000D02*
X118247000Y-127141000D01*
D12*
X124158710Y-93726000D02*
G75*
G03X124158710Y-93726000I-70710J0D01*
G01*
X94964000Y-101780000D02*
X94964000Y-107755000D01*
X98584000Y-107180000D02*
X98584000Y-101780000D01*
D10*
X83818571Y-99043714D02*
X83866190Y-98900857D01*
X83913809Y-98853238D01*
X84009047Y-98805619D01*
X84151904Y-98805619D01*
X84247142Y-98853238D01*
X84294761Y-98900857D01*
X84342380Y-98996095D01*
X84342380Y-99377047D01*
X83342380Y-99377047D01*
X83342380Y-99043714D01*
X83390000Y-98948476D01*
X83437619Y-98900857D01*
X83532857Y-98853238D01*
X83628095Y-98853238D01*
X83723333Y-98900857D01*
X83770952Y-98948476D01*
X83818571Y-99043714D01*
X83818571Y-99377047D01*
X83342380Y-98519904D02*
X83342380Y-97948476D01*
X84342380Y-98234190D02*
X83342380Y-98234190D01*
X84342380Y-97091333D02*
X84342380Y-97662761D01*
X84342380Y-97377047D02*
X83342380Y-97377047D01*
X83485238Y-97472285D01*
X83580476Y-97567523D01*
X83628095Y-97662761D01*
D16*
X86606238Y-51308523D02*
X86606238Y-50038523D01*
X87936714Y-51187571D02*
X87876238Y-51248047D01*
X87694809Y-51308523D01*
X87573857Y-51308523D01*
X87392428Y-51248047D01*
X87271476Y-51127095D01*
X87211000Y-51006142D01*
X87150523Y-50764238D01*
X87150523Y-50582809D01*
X87211000Y-50340904D01*
X87271476Y-50219952D01*
X87392428Y-50099000D01*
X87573857Y-50038523D01*
X87694809Y-50038523D01*
X87876238Y-50099000D01*
X87936714Y-50159476D01*
X88360047Y-50038523D02*
X89146238Y-50038523D01*
X88722904Y-50522333D01*
X88904333Y-50522333D01*
X89025285Y-50582809D01*
X89085761Y-50643285D01*
X89146238Y-50764238D01*
X89146238Y-51066619D01*
X89085761Y-51187571D01*
X89025285Y-51248047D01*
X88904333Y-51308523D01*
X88541476Y-51308523D01*
X88420523Y-51248047D01*
X88360047Y-51187571D01*
D10*
X80325142Y-50048857D02*
X80372761Y-50096476D01*
X80420380Y-50239333D01*
X80420380Y-50334571D01*
X80372761Y-50477428D01*
X80277523Y-50572666D01*
X80182285Y-50620285D01*
X79991809Y-50667904D01*
X79848952Y-50667904D01*
X79658476Y-50620285D01*
X79563238Y-50572666D01*
X79468000Y-50477428D01*
X79420380Y-50334571D01*
X79420380Y-50239333D01*
X79468000Y-50096476D01*
X79515619Y-50048857D01*
X80420380Y-49096476D02*
X80420380Y-49667904D01*
X80420380Y-49382190D02*
X79420380Y-49382190D01*
X79563238Y-49477428D01*
X79658476Y-49572666D01*
X79706095Y-49667904D01*
X80420380Y-48620285D02*
X80420380Y-48429809D01*
X80372761Y-48334571D01*
X80325142Y-48286952D01*
X80182285Y-48191714D01*
X79991809Y-48144095D01*
X79610857Y-48144095D01*
X79515619Y-48191714D01*
X79468000Y-48239333D01*
X79420380Y-48334571D01*
X79420380Y-48525047D01*
X79468000Y-48620285D01*
X79515619Y-48667904D01*
X79610857Y-48715523D01*
X79848952Y-48715523D01*
X79944190Y-48667904D01*
X79991809Y-48620285D01*
X80039428Y-48525047D01*
X80039428Y-48334571D01*
X79991809Y-48239333D01*
X79944190Y-48191714D01*
X79848952Y-48144095D01*
X88575142Y-83213142D02*
X88527523Y-83260761D01*
X88384666Y-83308380D01*
X88289428Y-83308380D01*
X88146571Y-83260761D01*
X88051333Y-83165523D01*
X88003714Y-83070285D01*
X87956095Y-82879809D01*
X87956095Y-82736952D01*
X88003714Y-82546476D01*
X88051333Y-82451238D01*
X88146571Y-82356000D01*
X88289428Y-82308380D01*
X88384666Y-82308380D01*
X88527523Y-82356000D01*
X88575142Y-82403619D01*
X89527523Y-83308380D02*
X88956095Y-83308380D01*
X89241809Y-83308380D02*
X89241809Y-82308380D01*
X89146571Y-82451238D01*
X89051333Y-82546476D01*
X88956095Y-82594095D01*
X89908476Y-82403619D02*
X89956095Y-82356000D01*
X90051333Y-82308380D01*
X90289428Y-82308380D01*
X90384666Y-82356000D01*
X90432285Y-82403619D01*
X90479904Y-82498857D01*
X90479904Y-82594095D01*
X90432285Y-82736952D01*
X89860857Y-83308380D01*
X90479904Y-83308380D01*
X151491904Y-87869476D02*
X150691904Y-87869476D01*
X150691904Y-87679000D01*
X150730000Y-87564714D01*
X150806190Y-87488523D01*
X150882380Y-87450428D01*
X151034761Y-87412333D01*
X151149047Y-87412333D01*
X151301428Y-87450428D01*
X151377619Y-87488523D01*
X151453809Y-87564714D01*
X151491904Y-87679000D01*
X151491904Y-87869476D01*
X150691904Y-87145666D02*
X150691904Y-86612333D01*
X151491904Y-86955190D01*
X109243904Y-64460380D02*
X109243904Y-63460380D01*
X109482000Y-63460380D01*
X109624857Y-63508000D01*
X109720095Y-63603238D01*
X109767714Y-63698476D01*
X109815333Y-63888952D01*
X109815333Y-64031809D01*
X109767714Y-64222285D01*
X109720095Y-64317523D01*
X109624857Y-64412761D01*
X109482000Y-64460380D01*
X109243904Y-64460380D01*
X110291523Y-64460380D02*
X110482000Y-64460380D01*
X110577238Y-64412761D01*
X110624857Y-64365142D01*
X110720095Y-64222285D01*
X110767714Y-64031809D01*
X110767714Y-63650857D01*
X110720095Y-63555619D01*
X110672476Y-63508000D01*
X110577238Y-63460380D01*
X110386761Y-63460380D01*
X110291523Y-63508000D01*
X110243904Y-63555619D01*
X110196285Y-63650857D01*
X110196285Y-63888952D01*
X110243904Y-63984190D01*
X110291523Y-64031809D01*
X110386761Y-64079428D01*
X110577238Y-64079428D01*
X110672476Y-64031809D01*
X110720095Y-63984190D01*
X110767714Y-63888952D01*
X112204666Y-62682380D02*
X112204666Y-61682380D01*
X112585619Y-61682380D01*
X112680857Y-61730000D01*
X112728476Y-61777619D01*
X112776095Y-61872857D01*
X112776095Y-62015714D01*
X112728476Y-62110952D01*
X112680857Y-62158571D01*
X112585619Y-62206190D01*
X112204666Y-62206190D01*
X113109428Y-61682380D02*
X113347523Y-62682380D01*
X113538000Y-61968095D01*
X113728476Y-62682380D01*
X113966571Y-61682380D01*
X114918952Y-62682380D02*
X114585619Y-62206190D01*
X114347523Y-62682380D02*
X114347523Y-61682380D01*
X114728476Y-61682380D01*
X114823714Y-61730000D01*
X114871333Y-61777619D01*
X114918952Y-61872857D01*
X114918952Y-62015714D01*
X114871333Y-62110952D01*
X114823714Y-62158571D01*
X114728476Y-62206190D01*
X114347523Y-62206190D01*
X156759142Y-88115142D02*
X156711523Y-88162761D01*
X156568666Y-88210380D01*
X156473428Y-88210380D01*
X156330571Y-88162761D01*
X156235333Y-88067523D01*
X156187714Y-87972285D01*
X156140095Y-87781809D01*
X156140095Y-87638952D01*
X156187714Y-87448476D01*
X156235333Y-87353238D01*
X156330571Y-87258000D01*
X156473428Y-87210380D01*
X156568666Y-87210380D01*
X156711523Y-87258000D01*
X156759142Y-87305619D01*
X157711523Y-88210380D02*
X157140095Y-88210380D01*
X157425809Y-88210380D02*
X157425809Y-87210380D01*
X157330571Y-87353238D01*
X157235333Y-87448476D01*
X157140095Y-87496095D01*
X158044857Y-87210380D02*
X158711523Y-87210380D01*
X158282952Y-88210380D01*
X109782642Y-87681142D02*
X109735023Y-87728761D01*
X109592166Y-87776380D01*
X109496928Y-87776380D01*
X109354071Y-87728761D01*
X109258833Y-87633523D01*
X109211214Y-87538285D01*
X109163595Y-87347809D01*
X109163595Y-87204952D01*
X109211214Y-87014476D01*
X109258833Y-86919238D01*
X109354071Y-86824000D01*
X109496928Y-86776380D01*
X109592166Y-86776380D01*
X109735023Y-86824000D01*
X109782642Y-86871619D01*
X110735023Y-87776380D02*
X110163595Y-87776380D01*
X110449309Y-87776380D02*
X110449309Y-86776380D01*
X110354071Y-86919238D01*
X110258833Y-87014476D01*
X110163595Y-87062095D01*
X111592166Y-87109714D02*
X111592166Y-87776380D01*
X111354071Y-86728761D02*
X111115976Y-87443047D01*
X111735023Y-87443047D01*
X172743904Y-66492380D02*
X172743904Y-65492380D01*
X172982000Y-65492380D01*
X173124857Y-65540000D01*
X173220095Y-65635238D01*
X173267714Y-65730476D01*
X173315333Y-65920952D01*
X173315333Y-66063809D01*
X173267714Y-66254285D01*
X173220095Y-66349523D01*
X173124857Y-66444761D01*
X172982000Y-66492380D01*
X172743904Y-66492380D01*
X173696285Y-65587619D02*
X173743904Y-65540000D01*
X173839142Y-65492380D01*
X174077238Y-65492380D01*
X174172476Y-65540000D01*
X174220095Y-65587619D01*
X174267714Y-65682857D01*
X174267714Y-65778095D01*
X174220095Y-65920952D01*
X173648666Y-66492380D01*
X174267714Y-66492380D01*
X122091523Y-55225904D02*
X122091523Y-54425904D01*
X122282000Y-54425904D01*
X122396285Y-54464000D01*
X122472476Y-54540190D01*
X122510571Y-54616380D01*
X122548666Y-54768761D01*
X122548666Y-54883047D01*
X122510571Y-55035428D01*
X122472476Y-55111619D01*
X122396285Y-55187809D01*
X122282000Y-55225904D01*
X122091523Y-55225904D01*
X123310571Y-55225904D02*
X122853428Y-55225904D01*
X123082000Y-55225904D02*
X123082000Y-54425904D01*
X123005809Y-54540190D01*
X122929619Y-54616380D01*
X122853428Y-54654476D01*
X88283142Y-73670857D02*
X88330761Y-73718476D01*
X88378380Y-73861333D01*
X88378380Y-73956571D01*
X88330761Y-74099428D01*
X88235523Y-74194666D01*
X88140285Y-74242285D01*
X87949809Y-74289904D01*
X87806952Y-74289904D01*
X87616476Y-74242285D01*
X87521238Y-74194666D01*
X87426000Y-74099428D01*
X87378380Y-73956571D01*
X87378380Y-73861333D01*
X87426000Y-73718476D01*
X87473619Y-73670857D01*
X88378380Y-72718476D02*
X88378380Y-73289904D01*
X88378380Y-73004190D02*
X87378380Y-73004190D01*
X87521238Y-73099428D01*
X87616476Y-73194666D01*
X87664095Y-73289904D01*
X87806952Y-72147047D02*
X87759333Y-72242285D01*
X87711714Y-72289904D01*
X87616476Y-72337523D01*
X87568857Y-72337523D01*
X87473619Y-72289904D01*
X87426000Y-72242285D01*
X87378380Y-72147047D01*
X87378380Y-71956571D01*
X87426000Y-71861333D01*
X87473619Y-71813714D01*
X87568857Y-71766095D01*
X87616476Y-71766095D01*
X87711714Y-71813714D01*
X87759333Y-71861333D01*
X87806952Y-71956571D01*
X87806952Y-72147047D01*
X87854571Y-72242285D01*
X87902190Y-72289904D01*
X87997428Y-72337523D01*
X88187904Y-72337523D01*
X88283142Y-72289904D01*
X88330761Y-72242285D01*
X88378380Y-72147047D01*
X88378380Y-71956571D01*
X88330761Y-71861333D01*
X88283142Y-71813714D01*
X88187904Y-71766095D01*
X87997428Y-71766095D01*
X87902190Y-71813714D01*
X87854571Y-71861333D01*
X87806952Y-71956571D01*
X121567142Y-45124666D02*
X121614761Y-45172285D01*
X121662380Y-45315142D01*
X121662380Y-45410380D01*
X121614761Y-45553238D01*
X121519523Y-45648476D01*
X121424285Y-45696095D01*
X121233809Y-45743714D01*
X121090952Y-45743714D01*
X120900476Y-45696095D01*
X120805238Y-45648476D01*
X120710000Y-45553238D01*
X120662380Y-45410380D01*
X120662380Y-45315142D01*
X120710000Y-45172285D01*
X120757619Y-45124666D01*
X121662380Y-44172285D02*
X121662380Y-44743714D01*
X121662380Y-44458000D02*
X120662380Y-44458000D01*
X120805238Y-44553238D01*
X120900476Y-44648476D01*
X120948095Y-44743714D01*
X149693333Y-50014142D02*
X149645714Y-50061761D01*
X149502857Y-50109380D01*
X149407619Y-50109380D01*
X149264761Y-50061761D01*
X149169523Y-49966523D01*
X149121904Y-49871285D01*
X149074285Y-49680809D01*
X149074285Y-49537952D01*
X149121904Y-49347476D01*
X149169523Y-49252238D01*
X149264761Y-49157000D01*
X149407619Y-49109380D01*
X149502857Y-49109380D01*
X149645714Y-49157000D01*
X149693333Y-49204619D01*
X150550476Y-49442714D02*
X150550476Y-50109380D01*
X150312380Y-49061761D02*
X150074285Y-49776047D01*
X150693333Y-49776047D01*
X158329333Y-60301142D02*
X158281714Y-60348761D01*
X158138857Y-60396380D01*
X158043619Y-60396380D01*
X157900761Y-60348761D01*
X157805523Y-60253523D01*
X157757904Y-60158285D01*
X157710285Y-59967809D01*
X157710285Y-59824952D01*
X157757904Y-59634476D01*
X157805523Y-59539238D01*
X157900761Y-59444000D01*
X158043619Y-59396380D01*
X158138857Y-59396380D01*
X158281714Y-59444000D01*
X158329333Y-59491619D01*
X159234095Y-59396380D02*
X158757904Y-59396380D01*
X158710285Y-59872571D01*
X158757904Y-59824952D01*
X158853142Y-59777333D01*
X159091238Y-59777333D01*
X159186476Y-59824952D01*
X159234095Y-59872571D01*
X159281714Y-59967809D01*
X159281714Y-60205904D01*
X159234095Y-60301142D01*
X159186476Y-60348761D01*
X159091238Y-60396380D01*
X158853142Y-60396380D01*
X158757904Y-60348761D01*
X158710285Y-60301142D01*
X133453142Y-52620666D02*
X133500761Y-52668285D01*
X133548380Y-52811142D01*
X133548380Y-52906380D01*
X133500761Y-53049238D01*
X133405523Y-53144476D01*
X133310285Y-53192095D01*
X133119809Y-53239714D01*
X132976952Y-53239714D01*
X132786476Y-53192095D01*
X132691238Y-53144476D01*
X132596000Y-53049238D01*
X132548380Y-52906380D01*
X132548380Y-52811142D01*
X132596000Y-52668285D01*
X132643619Y-52620666D01*
X132976952Y-52049238D02*
X132929333Y-52144476D01*
X132881714Y-52192095D01*
X132786476Y-52239714D01*
X132738857Y-52239714D01*
X132643619Y-52192095D01*
X132596000Y-52144476D01*
X132548380Y-52049238D01*
X132548380Y-51858761D01*
X132596000Y-51763523D01*
X132643619Y-51715904D01*
X132738857Y-51668285D01*
X132786476Y-51668285D01*
X132881714Y-51715904D01*
X132929333Y-51763523D01*
X132976952Y-51858761D01*
X132976952Y-52049238D01*
X133024571Y-52144476D01*
X133072190Y-52192095D01*
X133167428Y-52239714D01*
X133357904Y-52239714D01*
X133453142Y-52192095D01*
X133500761Y-52144476D01*
X133548380Y-52049238D01*
X133548380Y-51858761D01*
X133500761Y-51763523D01*
X133453142Y-51715904D01*
X133357904Y-51668285D01*
X133167428Y-51668285D01*
X133072190Y-51715904D01*
X133024571Y-51763523D01*
X132976952Y-51858761D01*
X158329333Y-63603142D02*
X158281714Y-63650761D01*
X158138857Y-63698380D01*
X158043619Y-63698380D01*
X157900761Y-63650761D01*
X157805523Y-63555523D01*
X157757904Y-63460285D01*
X157710285Y-63269809D01*
X157710285Y-63126952D01*
X157757904Y-62936476D01*
X157805523Y-62841238D01*
X157900761Y-62746000D01*
X158043619Y-62698380D01*
X158138857Y-62698380D01*
X158281714Y-62746000D01*
X158329333Y-62793619D01*
X158805523Y-63698380D02*
X158996000Y-63698380D01*
X159091238Y-63650761D01*
X159138857Y-63603142D01*
X159234095Y-63460285D01*
X159281714Y-63269809D01*
X159281714Y-62888857D01*
X159234095Y-62793619D01*
X159186476Y-62746000D01*
X159091238Y-62698380D01*
X158900761Y-62698380D01*
X158805523Y-62746000D01*
X158757904Y-62793619D01*
X158710285Y-62888857D01*
X158710285Y-63126952D01*
X158757904Y-63222190D01*
X158805523Y-63269809D01*
X158900761Y-63317428D01*
X159091238Y-63317428D01*
X159186476Y-63269809D01*
X159234095Y-63222190D01*
X159281714Y-63126952D01*
X112845142Y-45964857D02*
X112892761Y-46012476D01*
X112940380Y-46155333D01*
X112940380Y-46250571D01*
X112892761Y-46393428D01*
X112797523Y-46488666D01*
X112702285Y-46536285D01*
X112511809Y-46583904D01*
X112368952Y-46583904D01*
X112178476Y-46536285D01*
X112083238Y-46488666D01*
X111988000Y-46393428D01*
X111940380Y-46250571D01*
X111940380Y-46155333D01*
X111988000Y-46012476D01*
X112035619Y-45964857D01*
X112940380Y-45012476D02*
X112940380Y-45583904D01*
X112940380Y-45298190D02*
X111940380Y-45298190D01*
X112083238Y-45393428D01*
X112178476Y-45488666D01*
X112226095Y-45583904D01*
X111940380Y-44393428D02*
X111940380Y-44298190D01*
X111988000Y-44202952D01*
X112035619Y-44155333D01*
X112130857Y-44107714D01*
X112321333Y-44060095D01*
X112559428Y-44060095D01*
X112749904Y-44107714D01*
X112845142Y-44155333D01*
X112892761Y-44202952D01*
X112940380Y-44298190D01*
X112940380Y-44393428D01*
X112892761Y-44488666D01*
X112845142Y-44536285D01*
X112749904Y-44583904D01*
X112559428Y-44631523D01*
X112321333Y-44631523D01*
X112130857Y-44583904D01*
X112035619Y-44536285D01*
X111988000Y-44488666D01*
X111940380Y-44393428D01*
X158329333Y-57253142D02*
X158281714Y-57300761D01*
X158138857Y-57348380D01*
X158043619Y-57348380D01*
X157900761Y-57300761D01*
X157805523Y-57205523D01*
X157757904Y-57110285D01*
X157710285Y-56919809D01*
X157710285Y-56776952D01*
X157757904Y-56586476D01*
X157805523Y-56491238D01*
X157900761Y-56396000D01*
X158043619Y-56348380D01*
X158138857Y-56348380D01*
X158281714Y-56396000D01*
X158329333Y-56443619D01*
X159186476Y-56348380D02*
X158996000Y-56348380D01*
X158900761Y-56396000D01*
X158853142Y-56443619D01*
X158757904Y-56586476D01*
X158710285Y-56776952D01*
X158710285Y-57157904D01*
X158757904Y-57253142D01*
X158805523Y-57300761D01*
X158900761Y-57348380D01*
X159091238Y-57348380D01*
X159186476Y-57300761D01*
X159234095Y-57253142D01*
X159281714Y-57157904D01*
X159281714Y-56919809D01*
X159234095Y-56824571D01*
X159186476Y-56776952D01*
X159091238Y-56729333D01*
X158900761Y-56729333D01*
X158805523Y-56776952D01*
X158757904Y-56824571D01*
X158710285Y-56919809D01*
X123785333Y-47093142D02*
X123737714Y-47140761D01*
X123594857Y-47188380D01*
X123499619Y-47188380D01*
X123356761Y-47140761D01*
X123261523Y-47045523D01*
X123213904Y-46950285D01*
X123166285Y-46759809D01*
X123166285Y-46616952D01*
X123213904Y-46426476D01*
X123261523Y-46331238D01*
X123356761Y-46236000D01*
X123499619Y-46188380D01*
X123594857Y-46188380D01*
X123737714Y-46236000D01*
X123785333Y-46283619D01*
X124166285Y-46283619D02*
X124213904Y-46236000D01*
X124309142Y-46188380D01*
X124547238Y-46188380D01*
X124642476Y-46236000D01*
X124690095Y-46283619D01*
X124737714Y-46378857D01*
X124737714Y-46474095D01*
X124690095Y-46616952D01*
X124118666Y-47188380D01*
X124737714Y-47188380D01*
X158329333Y-53951142D02*
X158281714Y-53998761D01*
X158138857Y-54046380D01*
X158043619Y-54046380D01*
X157900761Y-53998761D01*
X157805523Y-53903523D01*
X157757904Y-53808285D01*
X157710285Y-53617809D01*
X157710285Y-53474952D01*
X157757904Y-53284476D01*
X157805523Y-53189238D01*
X157900761Y-53094000D01*
X158043619Y-53046380D01*
X158138857Y-53046380D01*
X158281714Y-53094000D01*
X158329333Y-53141619D01*
X158662666Y-53046380D02*
X159329333Y-53046380D01*
X158900761Y-54046380D01*
D16*
X95026238Y-86426523D02*
X95026238Y-85156523D01*
X96356714Y-86305571D02*
X96296238Y-86366047D01*
X96114809Y-86426523D01*
X95993857Y-86426523D01*
X95812428Y-86366047D01*
X95691476Y-86245095D01*
X95631000Y-86124142D01*
X95570523Y-85882238D01*
X95570523Y-85700809D01*
X95631000Y-85458904D01*
X95691476Y-85337952D01*
X95812428Y-85217000D01*
X95993857Y-85156523D01*
X96114809Y-85156523D01*
X96296238Y-85217000D01*
X96356714Y-85277476D01*
X97566238Y-86426523D02*
X96840523Y-86426523D01*
X97203380Y-86426523D02*
X97203380Y-85156523D01*
X97082428Y-85337952D01*
X96961476Y-85458904D01*
X96840523Y-85519380D01*
D10*
X145907380Y-44045285D02*
X144907380Y-44045285D01*
X144907380Y-43807190D01*
X144955000Y-43664333D01*
X145050238Y-43569095D01*
X145145476Y-43521476D01*
X145335952Y-43473857D01*
X145478809Y-43473857D01*
X145669285Y-43521476D01*
X145764523Y-43569095D01*
X145859761Y-43664333D01*
X145907380Y-43807190D01*
X145907380Y-44045285D01*
X145907380Y-42521476D02*
X145907380Y-43092904D01*
X145907380Y-42807190D02*
X144907380Y-42807190D01*
X145050238Y-42902428D01*
X145145476Y-42997666D01*
X145193095Y-43092904D01*
X145907380Y-41569095D02*
X145907380Y-42140523D01*
X145907380Y-41854809D02*
X144907380Y-41854809D01*
X145050238Y-41950047D01*
X145145476Y-42045285D01*
X145193095Y-42140523D01*
X122991714Y-68016380D02*
X122991714Y-67016380D01*
X123229809Y-67016380D01*
X123372666Y-67064000D01*
X123467904Y-67159238D01*
X123515523Y-67254476D01*
X123563142Y-67444952D01*
X123563142Y-67587809D01*
X123515523Y-67778285D01*
X123467904Y-67873523D01*
X123372666Y-67968761D01*
X123229809Y-68016380D01*
X122991714Y-68016380D01*
X124515523Y-68016380D02*
X123944095Y-68016380D01*
X124229809Y-68016380D02*
X124229809Y-67016380D01*
X124134571Y-67159238D01*
X124039333Y-67254476D01*
X123944095Y-67302095D01*
X124896476Y-67111619D02*
X124944095Y-67064000D01*
X125039333Y-67016380D01*
X125277428Y-67016380D01*
X125372666Y-67064000D01*
X125420285Y-67111619D01*
X125467904Y-67206857D01*
X125467904Y-67302095D01*
X125420285Y-67444952D01*
X124848857Y-68016380D01*
X125467904Y-68016380D01*
X115324571Y-66238380D02*
X115324571Y-65238380D01*
X115657904Y-65952666D01*
X115991238Y-65238380D01*
X115991238Y-66238380D01*
X116610285Y-66238380D02*
X116515047Y-66190761D01*
X116467428Y-66143142D01*
X116419809Y-66047904D01*
X116419809Y-65762190D01*
X116467428Y-65666952D01*
X116515047Y-65619333D01*
X116610285Y-65571714D01*
X116753142Y-65571714D01*
X116848380Y-65619333D01*
X116896000Y-65666952D01*
X116943619Y-65762190D01*
X116943619Y-66047904D01*
X116896000Y-66143142D01*
X116848380Y-66190761D01*
X116753142Y-66238380D01*
X116610285Y-66238380D01*
X117800761Y-66238380D02*
X117800761Y-65238380D01*
X117800761Y-66190761D02*
X117705523Y-66238380D01*
X117515047Y-66238380D01*
X117419809Y-66190761D01*
X117372190Y-66143142D01*
X117324571Y-66047904D01*
X117324571Y-65762190D01*
X117372190Y-65666952D01*
X117419809Y-65619333D01*
X117515047Y-65571714D01*
X117705523Y-65571714D01*
X117800761Y-65619333D01*
X118657904Y-66190761D02*
X118562666Y-66238380D01*
X118372190Y-66238380D01*
X118276952Y-66190761D01*
X118229333Y-66095523D01*
X118229333Y-65714571D01*
X118276952Y-65619333D01*
X118372190Y-65571714D01*
X118562666Y-65571714D01*
X118657904Y-65619333D01*
X118705523Y-65714571D01*
X118705523Y-65809809D01*
X118229333Y-65905047D01*
X119134095Y-66238380D02*
X119134095Y-65571714D01*
X119134095Y-65666952D02*
X119181714Y-65619333D01*
X119276952Y-65571714D01*
X119419809Y-65571714D01*
X119515047Y-65619333D01*
X119562666Y-65714571D01*
X119562666Y-66238380D01*
X119562666Y-65714571D02*
X119610285Y-65619333D01*
X119705523Y-65571714D01*
X119848380Y-65571714D01*
X119943619Y-65619333D01*
X119991238Y-65714571D01*
X119991238Y-66238380D01*
X121181714Y-66190761D02*
X121324571Y-66238380D01*
X121562666Y-66238380D01*
X121657904Y-66190761D01*
X121705523Y-66143142D01*
X121753142Y-66047904D01*
X121753142Y-65952666D01*
X121705523Y-65857428D01*
X121657904Y-65809809D01*
X121562666Y-65762190D01*
X121372190Y-65714571D01*
X121276952Y-65666952D01*
X121229333Y-65619333D01*
X121181714Y-65524095D01*
X121181714Y-65428857D01*
X121229333Y-65333619D01*
X121276952Y-65286000D01*
X121372190Y-65238380D01*
X121610285Y-65238380D01*
X121753142Y-65286000D01*
X122038857Y-65571714D02*
X122419809Y-65571714D01*
X122181714Y-65238380D02*
X122181714Y-66095523D01*
X122229333Y-66190761D01*
X122324571Y-66238380D01*
X122419809Y-66238380D01*
X123181714Y-66238380D02*
X123181714Y-65714571D01*
X123134095Y-65619333D01*
X123038857Y-65571714D01*
X122848380Y-65571714D01*
X122753142Y-65619333D01*
X123181714Y-66190761D02*
X123086476Y-66238380D01*
X122848380Y-66238380D01*
X122753142Y-66190761D01*
X122705523Y-66095523D01*
X122705523Y-66000285D01*
X122753142Y-65905047D01*
X122848380Y-65857428D01*
X123086476Y-65857428D01*
X123181714Y-65809809D01*
X123515047Y-65571714D02*
X123896000Y-65571714D01*
X123657904Y-65238380D02*
X123657904Y-66095523D01*
X123705523Y-66190761D01*
X123800761Y-66238380D01*
X123896000Y-66238380D01*
X124657904Y-65571714D02*
X124657904Y-66238380D01*
X124229333Y-65571714D02*
X124229333Y-66095523D01*
X124276952Y-66190761D01*
X124372190Y-66238380D01*
X124515047Y-66238380D01*
X124610285Y-66190761D01*
X124657904Y-66143142D01*
X125086476Y-66190761D02*
X125181714Y-66238380D01*
X125372190Y-66238380D01*
X125467428Y-66190761D01*
X125515047Y-66095523D01*
X125515047Y-66047904D01*
X125467428Y-65952666D01*
X125372190Y-65905047D01*
X125229333Y-65905047D01*
X125134095Y-65857428D01*
X125086476Y-65762190D01*
X125086476Y-65714571D01*
X125134095Y-65619333D01*
X125229333Y-65571714D01*
X125372190Y-65571714D01*
X125467428Y-65619333D01*
X122991714Y-64460380D02*
X122991714Y-63460380D01*
X123229809Y-63460380D01*
X123372666Y-63508000D01*
X123467904Y-63603238D01*
X123515523Y-63698476D01*
X123563142Y-63888952D01*
X123563142Y-64031809D01*
X123515523Y-64222285D01*
X123467904Y-64317523D01*
X123372666Y-64412761D01*
X123229809Y-64460380D01*
X122991714Y-64460380D01*
X124515523Y-64460380D02*
X123944095Y-64460380D01*
X124229809Y-64460380D02*
X124229809Y-63460380D01*
X124134571Y-63603238D01*
X124039333Y-63698476D01*
X123944095Y-63746095D01*
X124848857Y-63460380D02*
X125467904Y-63460380D01*
X125134571Y-63841333D01*
X125277428Y-63841333D01*
X125372666Y-63888952D01*
X125420285Y-63936571D01*
X125467904Y-64031809D01*
X125467904Y-64269904D01*
X125420285Y-64365142D01*
X125372666Y-64412761D01*
X125277428Y-64460380D01*
X124991714Y-64460380D01*
X124896476Y-64412761D01*
X124848857Y-64365142D01*
X119530952Y-62682380D02*
X119530952Y-61682380D01*
X120102380Y-62682380D01*
X120102380Y-61682380D01*
X120578571Y-62158571D02*
X120911904Y-62158571D01*
X121054761Y-62682380D02*
X120578571Y-62682380D01*
X120578571Y-61682380D01*
X121054761Y-61682380D01*
X121340476Y-61682380D02*
X121911904Y-61682380D01*
X121626190Y-62682380D02*
X121626190Y-61682380D01*
X122991714Y-60904380D02*
X122991714Y-59904380D01*
X123229809Y-59904380D01*
X123372666Y-59952000D01*
X123467904Y-60047238D01*
X123515523Y-60142476D01*
X123563142Y-60332952D01*
X123563142Y-60475809D01*
X123515523Y-60666285D01*
X123467904Y-60761523D01*
X123372666Y-60856761D01*
X123229809Y-60904380D01*
X122991714Y-60904380D01*
X124515523Y-60904380D02*
X123944095Y-60904380D01*
X124229809Y-60904380D02*
X124229809Y-59904380D01*
X124134571Y-60047238D01*
X124039333Y-60142476D01*
X123944095Y-60190095D01*
X125372666Y-60237714D02*
X125372666Y-60904380D01*
X125134571Y-59856761D02*
X124896476Y-60571047D01*
X125515523Y-60571047D01*
X120530952Y-58872380D02*
X120197619Y-58396190D01*
X119959523Y-58872380D02*
X119959523Y-57872380D01*
X120340476Y-57872380D01*
X120435714Y-57920000D01*
X120483333Y-57967619D01*
X120530952Y-58062857D01*
X120530952Y-58205714D01*
X120483333Y-58300952D01*
X120435714Y-58348571D01*
X120340476Y-58396190D01*
X119959523Y-58396190D01*
X121292857Y-58348571D02*
X120959523Y-58348571D01*
X120959523Y-58872380D02*
X120959523Y-57872380D01*
X121435714Y-57872380D01*
X140128666Y-37882380D02*
X140128666Y-38596666D01*
X140081047Y-38739523D01*
X139985809Y-38834761D01*
X139842952Y-38882380D01*
X139747714Y-38882380D01*
X141033428Y-37882380D02*
X140842952Y-37882380D01*
X140747714Y-37930000D01*
X140700095Y-37977619D01*
X140604857Y-38120476D01*
X140557238Y-38310952D01*
X140557238Y-38691904D01*
X140604857Y-38787142D01*
X140652476Y-38834761D01*
X140747714Y-38882380D01*
X140938190Y-38882380D01*
X141033428Y-38834761D01*
X141081047Y-38787142D01*
X141128666Y-38691904D01*
X141128666Y-38453809D01*
X141081047Y-38358571D01*
X141033428Y-38310952D01*
X140938190Y-38263333D01*
X140747714Y-38263333D01*
X140652476Y-38310952D01*
X140604857Y-38358571D01*
X140557238Y-38453809D01*
D16*
X177630666Y-47564523D02*
X177630666Y-48471666D01*
X177570190Y-48653095D01*
X177449238Y-48774047D01*
X177267809Y-48834523D01*
X177146857Y-48834523D01*
X178840190Y-47564523D02*
X178235428Y-47564523D01*
X178174952Y-48169285D01*
X178235428Y-48108809D01*
X178356380Y-48048333D01*
X178658761Y-48048333D01*
X178779714Y-48108809D01*
X178840190Y-48169285D01*
X178900666Y-48290238D01*
X178900666Y-48592619D01*
X178840190Y-48713571D01*
X178779714Y-48774047D01*
X178658761Y-48834523D01*
X178356380Y-48834523D01*
X178235428Y-48774047D01*
X178174952Y-48713571D01*
D17*
X91225186Y-63570607D02*
X91225186Y-62570327D01*
X92273098Y-63475342D02*
X92225466Y-63522975D01*
X92082569Y-63570607D01*
X91987304Y-63570607D01*
X91844407Y-63522975D01*
X91749142Y-63427710D01*
X91701510Y-63332445D01*
X91653877Y-63141916D01*
X91653877Y-62999019D01*
X91701510Y-62808489D01*
X91749142Y-62713224D01*
X91844407Y-62617960D01*
X91987304Y-62570327D01*
X92082569Y-62570327D01*
X92225466Y-62617960D01*
X92273098Y-62665592D01*
X92654157Y-62665592D02*
X92701790Y-62617960D01*
X92797054Y-62570327D01*
X93035216Y-62570327D01*
X93130481Y-62617960D01*
X93178113Y-62665592D01*
X93225746Y-62760857D01*
X93225746Y-62856121D01*
X93178113Y-62999019D01*
X92606525Y-63570607D01*
X93225746Y-63570607D01*
X90034571Y-64476380D02*
X90548857Y-64476380D01*
X90291714Y-65476380D02*
X90291714Y-64476380D01*
X90848857Y-65476380D02*
X90848857Y-64476380D01*
X91191714Y-64476380D01*
X91277428Y-64524000D01*
X91320285Y-64571619D01*
X91363142Y-64666857D01*
X91363142Y-64809714D01*
X91320285Y-64904952D01*
X91277428Y-64952571D01*
X91191714Y-65000190D01*
X90848857Y-65000190D01*
X92134571Y-64809714D02*
X92134571Y-65476380D01*
X91920285Y-64428761D02*
X91706000Y-65143047D01*
X92263142Y-65143047D01*
X92777428Y-64476380D02*
X92863142Y-64476380D01*
X92948857Y-64524000D01*
X92991714Y-64571619D01*
X93034571Y-64666857D01*
X93077428Y-64857333D01*
X93077428Y-65095428D01*
X93034571Y-65285904D01*
X92991714Y-65381142D01*
X92948857Y-65428761D01*
X92863142Y-65476380D01*
X92777428Y-65476380D01*
X92691714Y-65428761D01*
X92648857Y-65381142D01*
X92606000Y-65285904D01*
X92563142Y-65095428D01*
X92563142Y-64857333D01*
X92606000Y-64666857D01*
X92648857Y-64571619D01*
X92691714Y-64524000D01*
X92777428Y-64476380D01*
X93891714Y-64476380D02*
X93463142Y-64476380D01*
X93420285Y-64952571D01*
X93463142Y-64904952D01*
X93548857Y-64857333D01*
X93763142Y-64857333D01*
X93848857Y-64904952D01*
X93891714Y-64952571D01*
X93934571Y-65047809D01*
X93934571Y-65285904D01*
X93891714Y-65381142D01*
X93848857Y-65428761D01*
X93763142Y-65476380D01*
X93548857Y-65476380D01*
X93463142Y-65428761D01*
X93420285Y-65381142D01*
X94706000Y-64476380D02*
X94534571Y-64476380D01*
X94448857Y-64524000D01*
X94406000Y-64571619D01*
X94320285Y-64714476D01*
X94277428Y-64904952D01*
X94277428Y-65285904D01*
X94320285Y-65381142D01*
X94363142Y-65428761D01*
X94448857Y-65476380D01*
X94620285Y-65476380D01*
X94706000Y-65428761D01*
X94748857Y-65381142D01*
X94791714Y-65285904D01*
X94791714Y-65047809D01*
X94748857Y-64952571D01*
X94706000Y-64904952D01*
X94620285Y-64857333D01*
X94448857Y-64857333D01*
X94363142Y-64904952D01*
X94320285Y-64952571D01*
X94277428Y-65047809D01*
D10*
X108767714Y-60904380D02*
X108767714Y-59904380D01*
X109005809Y-59904380D01*
X109148666Y-59952000D01*
X109243904Y-60047238D01*
X109291523Y-60142476D01*
X109339142Y-60332952D01*
X109339142Y-60475809D01*
X109291523Y-60666285D01*
X109243904Y-60761523D01*
X109148666Y-60856761D01*
X109005809Y-60904380D01*
X108767714Y-60904380D01*
X110291523Y-60904380D02*
X109720095Y-60904380D01*
X110005809Y-60904380D02*
X110005809Y-59904380D01*
X109910571Y-60047238D01*
X109815333Y-60142476D01*
X109720095Y-60190095D01*
X110910571Y-59904380D02*
X111005809Y-59904380D01*
X111101047Y-59952000D01*
X111148666Y-59999619D01*
X111196285Y-60094857D01*
X111243904Y-60285333D01*
X111243904Y-60523428D01*
X111196285Y-60713904D01*
X111148666Y-60809142D01*
X111101047Y-60856761D01*
X111005809Y-60904380D01*
X110910571Y-60904380D01*
X110815333Y-60856761D01*
X110767714Y-60809142D01*
X110720095Y-60713904D01*
X110672476Y-60523428D01*
X110672476Y-60285333D01*
X110720095Y-60094857D01*
X110767714Y-59999619D01*
X110815333Y-59952000D01*
X110910571Y-59904380D01*
X112323714Y-58777142D02*
X112276095Y-58824761D01*
X112133238Y-58872380D01*
X112038000Y-58872380D01*
X111895142Y-58824761D01*
X111799904Y-58729523D01*
X111752285Y-58634285D01*
X111704666Y-58443809D01*
X111704666Y-58300952D01*
X111752285Y-58110476D01*
X111799904Y-58015238D01*
X111895142Y-57920000D01*
X112038000Y-57872380D01*
X112133238Y-57872380D01*
X112276095Y-57920000D01*
X112323714Y-57967619D01*
X112752285Y-58872380D02*
X112752285Y-57872380D01*
X112752285Y-58348571D02*
X113323714Y-58348571D01*
X113323714Y-58872380D02*
X113323714Y-57872380D01*
X114371333Y-58872380D02*
X114038000Y-58396190D01*
X113799904Y-58872380D02*
X113799904Y-57872380D01*
X114180857Y-57872380D01*
X114276095Y-57920000D01*
X114323714Y-57967619D01*
X114371333Y-58062857D01*
X114371333Y-58205714D01*
X114323714Y-58300952D01*
X114276095Y-58348571D01*
X114180857Y-58396190D01*
X113799904Y-58396190D01*
X115323714Y-57920000D02*
X115228476Y-57872380D01*
X115085619Y-57872380D01*
X114942761Y-57920000D01*
X114847523Y-58015238D01*
X114799904Y-58110476D01*
X114752285Y-58300952D01*
X114752285Y-58443809D01*
X114799904Y-58634285D01*
X114847523Y-58729523D01*
X114942761Y-58824761D01*
X115085619Y-58872380D01*
X115180857Y-58872380D01*
X115323714Y-58824761D01*
X115371333Y-58777142D01*
X115371333Y-58443809D01*
X115180857Y-58443809D01*
X118073333Y-78980380D02*
X117740000Y-78504190D01*
X117501904Y-78980380D02*
X117501904Y-77980380D01*
X117882857Y-77980380D01*
X117978095Y-78028000D01*
X118025714Y-78075619D01*
X118073333Y-78170857D01*
X118073333Y-78313714D01*
X118025714Y-78408952D01*
X117978095Y-78456571D01*
X117882857Y-78504190D01*
X117501904Y-78504190D01*
X119025714Y-78980380D02*
X118454285Y-78980380D01*
X118740000Y-78980380D02*
X118740000Y-77980380D01*
X118644761Y-78123238D01*
X118549523Y-78218476D01*
X118454285Y-78266095D01*
D16*
X107000523Y-87079666D02*
X107000523Y-87684428D01*
X105730523Y-87684428D01*
X107000523Y-85991095D02*
X107000523Y-86716809D01*
X107000523Y-86353952D02*
X105730523Y-86353952D01*
X105911952Y-86474904D01*
X106032904Y-86595857D01*
X106093380Y-86716809D01*
D10*
X135876380Y-90974666D02*
X135400190Y-91308000D01*
X135876380Y-91546095D02*
X134876380Y-91546095D01*
X134876380Y-91165142D01*
X134924000Y-91069904D01*
X134971619Y-91022285D01*
X135066857Y-90974666D01*
X135209714Y-90974666D01*
X135304952Y-91022285D01*
X135352571Y-91069904D01*
X135400190Y-91165142D01*
X135400190Y-91546095D01*
X135209714Y-90117523D02*
X135876380Y-90117523D01*
X134828761Y-90355619D02*
X135543047Y-90593714D01*
X135543047Y-89974666D01*
X163250761Y-79313619D02*
X163155523Y-79266000D01*
X163060285Y-79170761D01*
X162917428Y-79027904D01*
X162822190Y-78980285D01*
X162726952Y-78980285D01*
X162774571Y-79218380D02*
X162679333Y-79170761D01*
X162584095Y-79075523D01*
X162536476Y-78885047D01*
X162536476Y-78551714D01*
X162584095Y-78361238D01*
X162679333Y-78266000D01*
X162774571Y-78218380D01*
X162965047Y-78218380D01*
X163060285Y-78266000D01*
X163155523Y-78361238D01*
X163203142Y-78551714D01*
X163203142Y-78885047D01*
X163155523Y-79075523D01*
X163060285Y-79170761D01*
X162965047Y-79218380D01*
X162774571Y-79218380D01*
X163584095Y-78313619D02*
X163631714Y-78266000D01*
X163726952Y-78218380D01*
X163965047Y-78218380D01*
X164060285Y-78266000D01*
X164107904Y-78313619D01*
X164155523Y-78408857D01*
X164155523Y-78504095D01*
X164107904Y-78646952D01*
X163536476Y-79218380D01*
X164155523Y-79218380D01*
X136839619Y-83637238D02*
X136792000Y-83732476D01*
X136696761Y-83827714D01*
X136553904Y-83970571D01*
X136506285Y-84065809D01*
X136506285Y-84161047D01*
X136744380Y-84113428D02*
X136696761Y-84208666D01*
X136601523Y-84303904D01*
X136411047Y-84351523D01*
X136077714Y-84351523D01*
X135887238Y-84303904D01*
X135792000Y-84208666D01*
X135744380Y-84113428D01*
X135744380Y-83922952D01*
X135792000Y-83827714D01*
X135887238Y-83732476D01*
X136077714Y-83684857D01*
X136411047Y-83684857D01*
X136601523Y-83732476D01*
X136696761Y-83827714D01*
X136744380Y-83922952D01*
X136744380Y-84113428D01*
X135744380Y-83351523D02*
X135744380Y-82732476D01*
X136125333Y-83065809D01*
X136125333Y-82922952D01*
X136172952Y-82827714D01*
X136220571Y-82780095D01*
X136315809Y-82732476D01*
X136553904Y-82732476D01*
X136649142Y-82780095D01*
X136696761Y-82827714D01*
X136744380Y-82922952D01*
X136744380Y-83208666D01*
X136696761Y-83303904D01*
X136649142Y-83351523D01*
X153249333Y-78980380D02*
X152916000Y-78504190D01*
X152677904Y-78980380D02*
X152677904Y-77980380D01*
X153058857Y-77980380D01*
X153154095Y-78028000D01*
X153201714Y-78075619D01*
X153249333Y-78170857D01*
X153249333Y-78313714D01*
X153201714Y-78408952D01*
X153154095Y-78456571D01*
X153058857Y-78504190D01*
X152677904Y-78504190D01*
X153630285Y-78075619D02*
X153677904Y-78028000D01*
X153773142Y-77980380D01*
X154011238Y-77980380D01*
X154106476Y-78028000D01*
X154154095Y-78075619D01*
X154201714Y-78170857D01*
X154201714Y-78266095D01*
X154154095Y-78408952D01*
X153582666Y-78980380D01*
X154201714Y-78980380D01*
X133307333Y-78726380D02*
X132974000Y-78250190D01*
X132735904Y-78726380D02*
X132735904Y-77726380D01*
X133116857Y-77726380D01*
X133212095Y-77774000D01*
X133259714Y-77821619D01*
X133307333Y-77916857D01*
X133307333Y-78059714D01*
X133259714Y-78154952D01*
X133212095Y-78202571D01*
X133116857Y-78250190D01*
X132735904Y-78250190D01*
X133640666Y-77726380D02*
X134259714Y-77726380D01*
X133926380Y-78107333D01*
X134069238Y-78107333D01*
X134164476Y-78154952D01*
X134212095Y-78202571D01*
X134259714Y-78297809D01*
X134259714Y-78535904D01*
X134212095Y-78631142D01*
X134164476Y-78678761D01*
X134069238Y-78726380D01*
X133783523Y-78726380D01*
X133688285Y-78678761D01*
X133640666Y-78631142D01*
X172452380Y-76242666D02*
X171976190Y-76576000D01*
X172452380Y-76814095D02*
X171452380Y-76814095D01*
X171452380Y-76433142D01*
X171500000Y-76337904D01*
X171547619Y-76290285D01*
X171642857Y-76242666D01*
X171785714Y-76242666D01*
X171880952Y-76290285D01*
X171928571Y-76337904D01*
X171976190Y-76433142D01*
X171976190Y-76814095D01*
X171452380Y-75385523D02*
X171452380Y-75576000D01*
X171500000Y-75671238D01*
X171547619Y-75718857D01*
X171690476Y-75814095D01*
X171880952Y-75861714D01*
X172261904Y-75861714D01*
X172357142Y-75814095D01*
X172404761Y-75766476D01*
X172452380Y-75671238D01*
X172452380Y-75480761D01*
X172404761Y-75385523D01*
X172357142Y-75337904D01*
X172261904Y-75290285D01*
X172023809Y-75290285D01*
X171928571Y-75337904D01*
X171880952Y-75385523D01*
X171833333Y-75480761D01*
X171833333Y-75671238D01*
X171880952Y-75766476D01*
X171928571Y-75814095D01*
X172023809Y-75861714D01*
X174839333Y-60650380D02*
X174506000Y-60174190D01*
X174267904Y-60650380D02*
X174267904Y-59650380D01*
X174648857Y-59650380D01*
X174744095Y-59698000D01*
X174791714Y-59745619D01*
X174839333Y-59840857D01*
X174839333Y-59983714D01*
X174791714Y-60078952D01*
X174744095Y-60126571D01*
X174648857Y-60174190D01*
X174267904Y-60174190D01*
X175315523Y-60650380D02*
X175506000Y-60650380D01*
X175601238Y-60602761D01*
X175648857Y-60555142D01*
X175744095Y-60412285D01*
X175791714Y-60221809D01*
X175791714Y-59840857D01*
X175744095Y-59745619D01*
X175696476Y-59698000D01*
X175601238Y-59650380D01*
X175410761Y-59650380D01*
X175315523Y-59698000D01*
X175267904Y-59745619D01*
X175220285Y-59840857D01*
X175220285Y-60078952D01*
X175267904Y-60174190D01*
X175315523Y-60221809D01*
X175410761Y-60269428D01*
X175601238Y-60269428D01*
X175696476Y-60221809D01*
X175744095Y-60174190D01*
X175791714Y-60078952D01*
X173569333Y-57348380D02*
X173236000Y-56872190D01*
X172997904Y-57348380D02*
X172997904Y-56348380D01*
X173378857Y-56348380D01*
X173474095Y-56396000D01*
X173521714Y-56443619D01*
X173569333Y-56538857D01*
X173569333Y-56681714D01*
X173521714Y-56776952D01*
X173474095Y-56824571D01*
X173378857Y-56872190D01*
X172997904Y-56872190D01*
X174140761Y-56776952D02*
X174045523Y-56729333D01*
X173997904Y-56681714D01*
X173950285Y-56586476D01*
X173950285Y-56538857D01*
X173997904Y-56443619D01*
X174045523Y-56396000D01*
X174140761Y-56348380D01*
X174331238Y-56348380D01*
X174426476Y-56396000D01*
X174474095Y-56443619D01*
X174521714Y-56538857D01*
X174521714Y-56586476D01*
X174474095Y-56681714D01*
X174426476Y-56729333D01*
X174331238Y-56776952D01*
X174140761Y-56776952D01*
X174045523Y-56824571D01*
X173997904Y-56872190D01*
X173950285Y-56967428D01*
X173950285Y-57157904D01*
X173997904Y-57253142D01*
X174045523Y-57300761D01*
X174140761Y-57348380D01*
X174331238Y-57348380D01*
X174426476Y-57300761D01*
X174474095Y-57253142D01*
X174521714Y-57157904D01*
X174521714Y-56967428D01*
X174474095Y-56872190D01*
X174426476Y-56824571D01*
X174331238Y-56776952D01*
X173569333Y-54300380D02*
X173236000Y-53824190D01*
X172997904Y-54300380D02*
X172997904Y-53300380D01*
X173378857Y-53300380D01*
X173474095Y-53348000D01*
X173521714Y-53395619D01*
X173569333Y-53490857D01*
X173569333Y-53633714D01*
X173521714Y-53728952D01*
X173474095Y-53776571D01*
X173378857Y-53824190D01*
X172997904Y-53824190D01*
X173902666Y-53300380D02*
X174569333Y-53300380D01*
X174140761Y-54300380D01*
X121223619Y-83891238D02*
X121176000Y-83986476D01*
X121080761Y-84081714D01*
X120937904Y-84224571D01*
X120890285Y-84319809D01*
X120890285Y-84415047D01*
X121128380Y-84367428D02*
X121080761Y-84462666D01*
X120985523Y-84557904D01*
X120795047Y-84605523D01*
X120461714Y-84605523D01*
X120271238Y-84557904D01*
X120176000Y-84462666D01*
X120128380Y-84367428D01*
X120128380Y-84176952D01*
X120176000Y-84081714D01*
X120271238Y-83986476D01*
X120461714Y-83938857D01*
X120795047Y-83938857D01*
X120985523Y-83986476D01*
X121080761Y-84081714D01*
X121128380Y-84176952D01*
X121128380Y-84367428D01*
X121128380Y-82986476D02*
X121128380Y-83557904D01*
X121128380Y-83272190D02*
X120128380Y-83272190D01*
X120271238Y-83367428D01*
X120366476Y-83462666D01*
X120414095Y-83557904D01*
X121906380Y-91222666D02*
X121430190Y-91556000D01*
X121906380Y-91794095D02*
X120906380Y-91794095D01*
X120906380Y-91413142D01*
X120954000Y-91317904D01*
X121001619Y-91270285D01*
X121096857Y-91222666D01*
X121239714Y-91222666D01*
X121334952Y-91270285D01*
X121382571Y-91317904D01*
X121430190Y-91413142D01*
X121430190Y-91794095D01*
X120906380Y-90317904D02*
X120906380Y-90794095D01*
X121382571Y-90841714D01*
X121334952Y-90794095D01*
X121287333Y-90698857D01*
X121287333Y-90460761D01*
X121334952Y-90365523D01*
X121382571Y-90317904D01*
X121477809Y-90270285D01*
X121715904Y-90270285D01*
X121811142Y-90317904D01*
X121858761Y-90365523D01*
X121906380Y-90460761D01*
X121906380Y-90698857D01*
X121858761Y-90794095D01*
X121811142Y-90841714D01*
X125849142Y-87574380D02*
X125515809Y-87098190D01*
X125277714Y-87574380D02*
X125277714Y-86574380D01*
X125658666Y-86574380D01*
X125753904Y-86622000D01*
X125801523Y-86669619D01*
X125849142Y-86764857D01*
X125849142Y-86907714D01*
X125801523Y-87002952D01*
X125753904Y-87050571D01*
X125658666Y-87098190D01*
X125277714Y-87098190D01*
X126230095Y-86669619D02*
X126277714Y-86622000D01*
X126372952Y-86574380D01*
X126611047Y-86574380D01*
X126706285Y-86622000D01*
X126753904Y-86669619D01*
X126801523Y-86764857D01*
X126801523Y-86860095D01*
X126753904Y-87002952D01*
X126182476Y-87574380D01*
X126801523Y-87574380D01*
X127182476Y-86669619D02*
X127230095Y-86622000D01*
X127325333Y-86574380D01*
X127563428Y-86574380D01*
X127658666Y-86622000D01*
X127706285Y-86669619D01*
X127753904Y-86764857D01*
X127753904Y-86860095D01*
X127706285Y-87002952D01*
X127134857Y-87574380D01*
X127753904Y-87574380D01*
X88378380Y-66806857D02*
X87902190Y-67140190D01*
X88378380Y-67378285D02*
X87378380Y-67378285D01*
X87378380Y-66997333D01*
X87426000Y-66902095D01*
X87473619Y-66854476D01*
X87568857Y-66806857D01*
X87711714Y-66806857D01*
X87806952Y-66854476D01*
X87854571Y-66902095D01*
X87902190Y-66997333D01*
X87902190Y-67378285D01*
X87473619Y-66425904D02*
X87426000Y-66378285D01*
X87378380Y-66283047D01*
X87378380Y-66044952D01*
X87426000Y-65949714D01*
X87473619Y-65902095D01*
X87568857Y-65854476D01*
X87664095Y-65854476D01*
X87806952Y-65902095D01*
X88378380Y-66473523D01*
X88378380Y-65854476D01*
X87378380Y-64949714D02*
X87378380Y-65425904D01*
X87854571Y-65473523D01*
X87806952Y-65425904D01*
X87759333Y-65330666D01*
X87759333Y-65092571D01*
X87806952Y-64997333D01*
X87854571Y-64949714D01*
X87949809Y-64902095D01*
X88187904Y-64902095D01*
X88283142Y-64949714D01*
X88330761Y-64997333D01*
X88378380Y-65092571D01*
X88378380Y-65330666D01*
X88330761Y-65425904D01*
X88283142Y-65473523D01*
X96506380Y-49664857D02*
X96030190Y-49998190D01*
X96506380Y-50236285D02*
X95506380Y-50236285D01*
X95506380Y-49855333D01*
X95554000Y-49760095D01*
X95601619Y-49712476D01*
X95696857Y-49664857D01*
X95839714Y-49664857D01*
X95934952Y-49712476D01*
X95982571Y-49760095D01*
X96030190Y-49855333D01*
X96030190Y-50236285D01*
X95601619Y-49283904D02*
X95554000Y-49236285D01*
X95506380Y-49141047D01*
X95506380Y-48902952D01*
X95554000Y-48807714D01*
X95601619Y-48760095D01*
X95696857Y-48712476D01*
X95792095Y-48712476D01*
X95934952Y-48760095D01*
X96506380Y-49331523D01*
X96506380Y-48712476D01*
X95506380Y-47855333D02*
X95506380Y-48045809D01*
X95554000Y-48141047D01*
X95601619Y-48188666D01*
X95744476Y-48283904D01*
X95934952Y-48331523D01*
X96315904Y-48331523D01*
X96411142Y-48283904D01*
X96458761Y-48236285D01*
X96506380Y-48141047D01*
X96506380Y-47950571D01*
X96458761Y-47855333D01*
X96411142Y-47807714D01*
X96315904Y-47760095D01*
X96077809Y-47760095D01*
X95982571Y-47807714D01*
X95934952Y-47855333D01*
X95887333Y-47950571D01*
X95887333Y-48141047D01*
X95934952Y-48236285D01*
X95982571Y-48283904D01*
X96077809Y-48331523D01*
X126989142Y-66196380D02*
X126655809Y-65720190D01*
X126417714Y-66196380D02*
X126417714Y-65196380D01*
X126798666Y-65196380D01*
X126893904Y-65244000D01*
X126941523Y-65291619D01*
X126989142Y-65386857D01*
X126989142Y-65529714D01*
X126941523Y-65624952D01*
X126893904Y-65672571D01*
X126798666Y-65720190D01*
X126417714Y-65720190D01*
X127370095Y-65291619D02*
X127417714Y-65244000D01*
X127512952Y-65196380D01*
X127751047Y-65196380D01*
X127846285Y-65244000D01*
X127893904Y-65291619D01*
X127941523Y-65386857D01*
X127941523Y-65482095D01*
X127893904Y-65624952D01*
X127322476Y-66196380D01*
X127941523Y-66196380D01*
X128274857Y-65196380D02*
X128941523Y-65196380D01*
X128512952Y-66196380D01*
X126989142Y-62640380D02*
X126655809Y-62164190D01*
X126417714Y-62640380D02*
X126417714Y-61640380D01*
X126798666Y-61640380D01*
X126893904Y-61688000D01*
X126941523Y-61735619D01*
X126989142Y-61830857D01*
X126989142Y-61973714D01*
X126941523Y-62068952D01*
X126893904Y-62116571D01*
X126798666Y-62164190D01*
X126417714Y-62164190D01*
X127370095Y-61735619D02*
X127417714Y-61688000D01*
X127512952Y-61640380D01*
X127751047Y-61640380D01*
X127846285Y-61688000D01*
X127893904Y-61735619D01*
X127941523Y-61830857D01*
X127941523Y-61926095D01*
X127893904Y-62068952D01*
X127322476Y-62640380D01*
X127941523Y-62640380D01*
X128512952Y-62068952D02*
X128417714Y-62021333D01*
X128370095Y-61973714D01*
X128322476Y-61878476D01*
X128322476Y-61830857D01*
X128370095Y-61735619D01*
X128417714Y-61688000D01*
X128512952Y-61640380D01*
X128703428Y-61640380D01*
X128798666Y-61688000D01*
X128846285Y-61735619D01*
X128893904Y-61830857D01*
X128893904Y-61878476D01*
X128846285Y-61973714D01*
X128798666Y-62021333D01*
X128703428Y-62068952D01*
X128512952Y-62068952D01*
X128417714Y-62116571D01*
X128370095Y-62164190D01*
X128322476Y-62259428D01*
X128322476Y-62449904D01*
X128370095Y-62545142D01*
X128417714Y-62592761D01*
X128512952Y-62640380D01*
X128703428Y-62640380D01*
X128798666Y-62592761D01*
X128846285Y-62545142D01*
X128893904Y-62449904D01*
X128893904Y-62259428D01*
X128846285Y-62164190D01*
X128798666Y-62116571D01*
X128703428Y-62068952D01*
X126989142Y-59084380D02*
X126655809Y-58608190D01*
X126417714Y-59084380D02*
X126417714Y-58084380D01*
X126798666Y-58084380D01*
X126893904Y-58132000D01*
X126941523Y-58179619D01*
X126989142Y-58274857D01*
X126989142Y-58417714D01*
X126941523Y-58512952D01*
X126893904Y-58560571D01*
X126798666Y-58608190D01*
X126417714Y-58608190D01*
X127370095Y-58179619D02*
X127417714Y-58132000D01*
X127512952Y-58084380D01*
X127751047Y-58084380D01*
X127846285Y-58132000D01*
X127893904Y-58179619D01*
X127941523Y-58274857D01*
X127941523Y-58370095D01*
X127893904Y-58512952D01*
X127322476Y-59084380D01*
X127941523Y-59084380D01*
X128417714Y-59084380D02*
X128608190Y-59084380D01*
X128703428Y-59036761D01*
X128751047Y-58989142D01*
X128846285Y-58846285D01*
X128893904Y-58655809D01*
X128893904Y-58274857D01*
X128846285Y-58179619D01*
X128798666Y-58132000D01*
X128703428Y-58084380D01*
X128512952Y-58084380D01*
X128417714Y-58132000D01*
X128370095Y-58179619D01*
X128322476Y-58274857D01*
X128322476Y-58512952D01*
X128370095Y-58608190D01*
X128417714Y-58655809D01*
X128512952Y-58703428D01*
X128703428Y-58703428D01*
X128798666Y-58655809D01*
X128846285Y-58608190D01*
X128893904Y-58512952D01*
X80420380Y-55376857D02*
X79944190Y-55710190D01*
X80420380Y-55948285D02*
X79420380Y-55948285D01*
X79420380Y-55567333D01*
X79468000Y-55472095D01*
X79515619Y-55424476D01*
X79610857Y-55376857D01*
X79753714Y-55376857D01*
X79848952Y-55424476D01*
X79896571Y-55472095D01*
X79944190Y-55567333D01*
X79944190Y-55948285D01*
X79420380Y-55043523D02*
X79420380Y-54424476D01*
X79801333Y-54757809D01*
X79801333Y-54614952D01*
X79848952Y-54519714D01*
X79896571Y-54472095D01*
X79991809Y-54424476D01*
X80229904Y-54424476D01*
X80325142Y-54472095D01*
X80372761Y-54519714D01*
X80420380Y-54614952D01*
X80420380Y-54900666D01*
X80372761Y-54995904D01*
X80325142Y-55043523D01*
X79420380Y-53805428D02*
X79420380Y-53710190D01*
X79468000Y-53614952D01*
X79515619Y-53567333D01*
X79610857Y-53519714D01*
X79801333Y-53472095D01*
X80039428Y-53472095D01*
X80229904Y-53519714D01*
X80325142Y-53567333D01*
X80372761Y-53614952D01*
X80420380Y-53710190D01*
X80420380Y-53805428D01*
X80372761Y-53900666D01*
X80325142Y-53948285D01*
X80229904Y-53995904D01*
X80039428Y-54043523D01*
X79801333Y-54043523D01*
X79610857Y-53995904D01*
X79515619Y-53948285D01*
X79468000Y-53900666D01*
X79420380Y-53805428D01*
X157221142Y-83468380D02*
X156887809Y-82992190D01*
X156649714Y-83468380D02*
X156649714Y-82468380D01*
X157030666Y-82468380D01*
X157125904Y-82516000D01*
X157173523Y-82563619D01*
X157221142Y-82658857D01*
X157221142Y-82801714D01*
X157173523Y-82896952D01*
X157125904Y-82944571D01*
X157030666Y-82992190D01*
X156649714Y-82992190D01*
X157602095Y-82563619D02*
X157649714Y-82516000D01*
X157744952Y-82468380D01*
X157983047Y-82468380D01*
X158078285Y-82516000D01*
X158125904Y-82563619D01*
X158173523Y-82658857D01*
X158173523Y-82754095D01*
X158125904Y-82896952D01*
X157554476Y-83468380D01*
X158173523Y-83468380D01*
X158792571Y-82468380D02*
X158887809Y-82468380D01*
X158983047Y-82516000D01*
X159030666Y-82563619D01*
X159078285Y-82658857D01*
X159125904Y-82849333D01*
X159125904Y-83087428D01*
X159078285Y-83277904D01*
X159030666Y-83373142D01*
X158983047Y-83420761D01*
X158887809Y-83468380D01*
X158792571Y-83468380D01*
X158697333Y-83420761D01*
X158649714Y-83373142D01*
X158602095Y-83277904D01*
X158554476Y-83087428D01*
X158554476Y-82849333D01*
X158602095Y-82658857D01*
X158649714Y-82563619D01*
X158697333Y-82516000D01*
X158792571Y-82468380D01*
X166052666Y-83208761D02*
X166195523Y-83256380D01*
X166433619Y-83256380D01*
X166528857Y-83208761D01*
X166576476Y-83161142D01*
X166624095Y-83065904D01*
X166624095Y-82970666D01*
X166576476Y-82875428D01*
X166528857Y-82827809D01*
X166433619Y-82780190D01*
X166243142Y-82732571D01*
X166147904Y-82684952D01*
X166100285Y-82637333D01*
X166052666Y-82542095D01*
X166052666Y-82446857D01*
X166100285Y-82351619D01*
X166147904Y-82304000D01*
X166243142Y-82256380D01*
X166481238Y-82256380D01*
X166624095Y-82304000D01*
X166957428Y-82256380D02*
X167195523Y-83256380D01*
X167386000Y-82542095D01*
X167576476Y-83256380D01*
X167814571Y-82256380D01*
X168719333Y-83256380D02*
X168147904Y-83256380D01*
X168433619Y-83256380D02*
X168433619Y-82256380D01*
X168338380Y-82399238D01*
X168243142Y-82494476D01*
X168147904Y-82542095D01*
X106037142Y-62640380D02*
X105703809Y-62164190D01*
X105465714Y-62640380D02*
X105465714Y-61640380D01*
X105846666Y-61640380D01*
X105941904Y-61688000D01*
X105989523Y-61735619D01*
X106037142Y-61830857D01*
X106037142Y-61973714D01*
X105989523Y-62068952D01*
X105941904Y-62116571D01*
X105846666Y-62164190D01*
X105465714Y-62164190D01*
X106418095Y-61735619D02*
X106465714Y-61688000D01*
X106560952Y-61640380D01*
X106799047Y-61640380D01*
X106894285Y-61688000D01*
X106941904Y-61735619D01*
X106989523Y-61830857D01*
X106989523Y-61926095D01*
X106941904Y-62068952D01*
X106370476Y-62640380D01*
X106989523Y-62640380D01*
X107322857Y-61640380D02*
X107941904Y-61640380D01*
X107608571Y-62021333D01*
X107751428Y-62021333D01*
X107846666Y-62068952D01*
X107894285Y-62116571D01*
X107941904Y-62211809D01*
X107941904Y-62449904D01*
X107894285Y-62545142D01*
X107846666Y-62592761D01*
X107751428Y-62640380D01*
X107465714Y-62640380D01*
X107370476Y-62592761D01*
X107322857Y-62545142D01*
X105913142Y-59084380D02*
X105579809Y-58608190D01*
X105341714Y-59084380D02*
X105341714Y-58084380D01*
X105722666Y-58084380D01*
X105817904Y-58132000D01*
X105865523Y-58179619D01*
X105913142Y-58274857D01*
X105913142Y-58417714D01*
X105865523Y-58512952D01*
X105817904Y-58560571D01*
X105722666Y-58608190D01*
X105341714Y-58608190D01*
X106294095Y-58179619D02*
X106341714Y-58132000D01*
X106436952Y-58084380D01*
X106675047Y-58084380D01*
X106770285Y-58132000D01*
X106817904Y-58179619D01*
X106865523Y-58274857D01*
X106865523Y-58370095D01*
X106817904Y-58512952D01*
X106246476Y-59084380D01*
X106865523Y-59084380D01*
X107722666Y-58417714D02*
X107722666Y-59084380D01*
X107484571Y-58036761D02*
X107246476Y-58751047D01*
X107865523Y-58751047D01*
X133867380Y-61467904D02*
X134676904Y-61467904D01*
X134772142Y-61420285D01*
X134819761Y-61372666D01*
X134867380Y-61277428D01*
X134867380Y-61086952D01*
X134819761Y-60991714D01*
X134772142Y-60944095D01*
X134676904Y-60896476D01*
X133867380Y-60896476D01*
X133962619Y-60467904D02*
X133915000Y-60420285D01*
X133867380Y-60325047D01*
X133867380Y-60086952D01*
X133915000Y-59991714D01*
X133962619Y-59944095D01*
X134057857Y-59896476D01*
X134153095Y-59896476D01*
X134295952Y-59944095D01*
X134867380Y-60515523D01*
X134867380Y-59896476D01*
X96385142Y-63061142D02*
X96337523Y-63108761D01*
X96194666Y-63156380D01*
X96099428Y-63156380D01*
X95956571Y-63108761D01*
X95861333Y-63013523D01*
X95813714Y-62918285D01*
X95766095Y-62727809D01*
X95766095Y-62584952D01*
X95813714Y-62394476D01*
X95861333Y-62299238D01*
X95956571Y-62204000D01*
X96099428Y-62156380D01*
X96194666Y-62156380D01*
X96337523Y-62204000D01*
X96385142Y-62251619D01*
X96766095Y-62251619D02*
X96813714Y-62204000D01*
X96908952Y-62156380D01*
X97147047Y-62156380D01*
X97242285Y-62204000D01*
X97289904Y-62251619D01*
X97337523Y-62346857D01*
X97337523Y-62442095D01*
X97289904Y-62584952D01*
X96718476Y-63156380D01*
X97337523Y-63156380D01*
X98289904Y-63156380D02*
X97718476Y-63156380D01*
X98004190Y-63156380D02*
X98004190Y-62156380D01*
X97908952Y-62299238D01*
X97813714Y-62394476D01*
X97718476Y-62442095D01*
D16*
X195410666Y-132908523D02*
X195410666Y-133815666D01*
X195350190Y-133997095D01*
X195229238Y-134118047D01*
X195047809Y-134178523D01*
X194926857Y-134178523D01*
X196075904Y-134178523D02*
X196317809Y-134178523D01*
X196438761Y-134118047D01*
X196499238Y-134057571D01*
X196620190Y-133876142D01*
X196680666Y-133634238D01*
X196680666Y-133150428D01*
X196620190Y-133029476D01*
X196559714Y-132969000D01*
X196438761Y-132908523D01*
X196196857Y-132908523D01*
X196075904Y-132969000D01*
X196015428Y-133029476D01*
X195954952Y-133150428D01*
X195954952Y-133452809D01*
X196015428Y-133573761D01*
X196075904Y-133634238D01*
X196196857Y-133694714D01*
X196438761Y-133694714D01*
X196559714Y-133634238D01*
X196620190Y-133573761D01*
X196680666Y-133452809D01*
X182438523Y-129848428D02*
X181168523Y-129848428D01*
X181168523Y-129364619D01*
X181229000Y-129243666D01*
X181289476Y-129183190D01*
X181410428Y-129122714D01*
X181591857Y-129122714D01*
X181712809Y-129183190D01*
X181773285Y-129243666D01*
X181833761Y-129364619D01*
X181833761Y-129848428D01*
X182438523Y-128397000D02*
X182378047Y-128517952D01*
X182317571Y-128578428D01*
X182196619Y-128638904D01*
X181833761Y-128638904D01*
X181712809Y-128578428D01*
X181652333Y-128517952D01*
X181591857Y-128397000D01*
X181591857Y-128215571D01*
X181652333Y-128094619D01*
X181712809Y-128034142D01*
X181833761Y-127973666D01*
X182196619Y-127973666D01*
X182317571Y-128034142D01*
X182378047Y-128094619D01*
X182438523Y-128215571D01*
X182438523Y-128397000D01*
X181591857Y-127550333D02*
X182438523Y-127308428D01*
X181833761Y-127066523D01*
X182438523Y-126824619D01*
X181591857Y-126582714D01*
X182378047Y-125615095D02*
X182438523Y-125736047D01*
X182438523Y-125977952D01*
X182378047Y-126098904D01*
X182257095Y-126159380D01*
X181773285Y-126159380D01*
X181652333Y-126098904D01*
X181591857Y-125977952D01*
X181591857Y-125736047D01*
X181652333Y-125615095D01*
X181773285Y-125554619D01*
X181894238Y-125554619D01*
X182015190Y-126159380D01*
X182438523Y-125010333D02*
X181591857Y-125010333D01*
X181833761Y-125010333D02*
X181712809Y-124949857D01*
X181652333Y-124889380D01*
X181591857Y-124768428D01*
X181591857Y-124647476D01*
X181168523Y-122651761D02*
X181168523Y-123256523D01*
X181773285Y-123317000D01*
X181712809Y-123256523D01*
X181652333Y-123135571D01*
X181652333Y-122833190D01*
X181712809Y-122712238D01*
X181773285Y-122651761D01*
X181894238Y-122591285D01*
X182196619Y-122591285D01*
X182317571Y-122651761D01*
X182378047Y-122712238D01*
X182438523Y-122833190D01*
X182438523Y-123135571D01*
X182378047Y-123256523D01*
X182317571Y-123317000D01*
X181168523Y-122228428D02*
X182438523Y-121805095D01*
X181168523Y-121381761D01*
X182438523Y-119990809D02*
X181168523Y-119990809D01*
X181168523Y-119688428D01*
X181229000Y-119507000D01*
X181349952Y-119386047D01*
X181470904Y-119325571D01*
X181712809Y-119265095D01*
X181894238Y-119265095D01*
X182136142Y-119325571D01*
X182257095Y-119386047D01*
X182378047Y-119507000D01*
X182438523Y-119688428D01*
X182438523Y-119990809D01*
X182317571Y-117995095D02*
X182378047Y-118055571D01*
X182438523Y-118237000D01*
X182438523Y-118357952D01*
X182378047Y-118539380D01*
X182257095Y-118660333D01*
X182136142Y-118720809D01*
X181894238Y-118781285D01*
X181712809Y-118781285D01*
X181470904Y-118720809D01*
X181349952Y-118660333D01*
X181229000Y-118539380D01*
X181168523Y-118357952D01*
X181168523Y-118237000D01*
X181229000Y-118055571D01*
X181289476Y-117995095D01*
D10*
X165743047Y-95178571D02*
X165885904Y-95226190D01*
X165933523Y-95273809D01*
X165981142Y-95369047D01*
X165981142Y-95511904D01*
X165933523Y-95607142D01*
X165885904Y-95654761D01*
X165790666Y-95702380D01*
X165409714Y-95702380D01*
X165409714Y-94702380D01*
X165743047Y-94702380D01*
X165838285Y-94750000D01*
X165885904Y-94797619D01*
X165933523Y-94892857D01*
X165933523Y-94988095D01*
X165885904Y-95083333D01*
X165838285Y-95130952D01*
X165743047Y-95178571D01*
X165409714Y-95178571D01*
X166314476Y-94702380D02*
X166981142Y-94702380D01*
X166314476Y-95702380D01*
X166981142Y-95702380D01*
X167885904Y-95702380D02*
X167314476Y-95702380D01*
X167600190Y-95702380D02*
X167600190Y-94702380D01*
X167504952Y-94845238D01*
X167409714Y-94940476D01*
X167314476Y-94988095D01*
X164155428Y-106816952D02*
X164155428Y-106055047D01*
X164536380Y-106436000D02*
X163774476Y-106436000D01*
X123531333Y-42013142D02*
X123483714Y-42060761D01*
X123340857Y-42108380D01*
X123245619Y-42108380D01*
X123102761Y-42060761D01*
X123007523Y-41965523D01*
X122959904Y-41870285D01*
X122912285Y-41679809D01*
X122912285Y-41536952D01*
X122959904Y-41346476D01*
X123007523Y-41251238D01*
X123102761Y-41156000D01*
X123245619Y-41108380D01*
X123340857Y-41108380D01*
X123483714Y-41156000D01*
X123531333Y-41203619D01*
X123864666Y-41108380D02*
X124483714Y-41108380D01*
X124150380Y-41489333D01*
X124293238Y-41489333D01*
X124388476Y-41536952D01*
X124436095Y-41584571D01*
X124483714Y-41679809D01*
X124483714Y-41917904D01*
X124436095Y-42013142D01*
X124388476Y-42060761D01*
X124293238Y-42108380D01*
X124007523Y-42108380D01*
X123912285Y-42060761D01*
X123864666Y-42013142D01*
X99375142Y-132592857D02*
X99422761Y-132640476D01*
X99470380Y-132783333D01*
X99470380Y-132878571D01*
X99422761Y-133021428D01*
X99327523Y-133116666D01*
X99232285Y-133164285D01*
X99041809Y-133211904D01*
X98898952Y-133211904D01*
X98708476Y-133164285D01*
X98613238Y-133116666D01*
X98518000Y-133021428D01*
X98470380Y-132878571D01*
X98470380Y-132783333D01*
X98518000Y-132640476D01*
X98565619Y-132592857D01*
X99470380Y-131640476D02*
X99470380Y-132211904D01*
X99470380Y-131926190D02*
X98470380Y-131926190D01*
X98613238Y-132021428D01*
X98708476Y-132116666D01*
X98756095Y-132211904D01*
X99470380Y-130688095D02*
X99470380Y-131259523D01*
X99470380Y-130973809D02*
X98470380Y-130973809D01*
X98613238Y-131069047D01*
X98708476Y-131164285D01*
X98756095Y-131259523D01*
X86675142Y-124086857D02*
X86722761Y-124134476D01*
X86770380Y-124277333D01*
X86770380Y-124372571D01*
X86722761Y-124515428D01*
X86627523Y-124610666D01*
X86532285Y-124658285D01*
X86341809Y-124705904D01*
X86198952Y-124705904D01*
X86008476Y-124658285D01*
X85913238Y-124610666D01*
X85818000Y-124515428D01*
X85770380Y-124372571D01*
X85770380Y-124277333D01*
X85818000Y-124134476D01*
X85865619Y-124086857D01*
X86770380Y-123134476D02*
X86770380Y-123705904D01*
X86770380Y-123420190D02*
X85770380Y-123420190D01*
X85913238Y-123515428D01*
X86008476Y-123610666D01*
X86056095Y-123705904D01*
X85770380Y-122801142D02*
X85770380Y-122182095D01*
X86151333Y-122515428D01*
X86151333Y-122372571D01*
X86198952Y-122277333D01*
X86246571Y-122229714D01*
X86341809Y-122182095D01*
X86579904Y-122182095D01*
X86675142Y-122229714D01*
X86722761Y-122277333D01*
X86770380Y-122372571D01*
X86770380Y-122658285D01*
X86722761Y-122753523D01*
X86675142Y-122801142D01*
X145349142Y-116336857D02*
X145396761Y-116384476D01*
X145444380Y-116527333D01*
X145444380Y-116622571D01*
X145396761Y-116765428D01*
X145301523Y-116860666D01*
X145206285Y-116908285D01*
X145015809Y-116955904D01*
X144872952Y-116955904D01*
X144682476Y-116908285D01*
X144587238Y-116860666D01*
X144492000Y-116765428D01*
X144444380Y-116622571D01*
X144444380Y-116527333D01*
X144492000Y-116384476D01*
X144539619Y-116336857D01*
X145444380Y-115384476D02*
X145444380Y-115955904D01*
X145444380Y-115670190D02*
X144444380Y-115670190D01*
X144587238Y-115765428D01*
X144682476Y-115860666D01*
X144730095Y-115955904D01*
X144444380Y-114479714D02*
X144444380Y-114955904D01*
X144920571Y-115003523D01*
X144872952Y-114955904D01*
X144825333Y-114860666D01*
X144825333Y-114622571D01*
X144872952Y-114527333D01*
X144920571Y-114479714D01*
X145015809Y-114432095D01*
X145253904Y-114432095D01*
X145349142Y-114479714D01*
X145396761Y-114527333D01*
X145444380Y-114622571D01*
X145444380Y-114860666D01*
X145396761Y-114955904D01*
X145349142Y-115003523D01*
X136009142Y-118467142D02*
X135961523Y-118514761D01*
X135818666Y-118562380D01*
X135723428Y-118562380D01*
X135580571Y-118514761D01*
X135485333Y-118419523D01*
X135437714Y-118324285D01*
X135390095Y-118133809D01*
X135390095Y-117990952D01*
X135437714Y-117800476D01*
X135485333Y-117705238D01*
X135580571Y-117610000D01*
X135723428Y-117562380D01*
X135818666Y-117562380D01*
X135961523Y-117610000D01*
X136009142Y-117657619D01*
X136961523Y-118562380D02*
X136390095Y-118562380D01*
X136675809Y-118562380D02*
X136675809Y-117562380D01*
X136580571Y-117705238D01*
X136485333Y-117800476D01*
X136390095Y-117848095D01*
X137818666Y-117562380D02*
X137628190Y-117562380D01*
X137532952Y-117610000D01*
X137485333Y-117657619D01*
X137390095Y-117800476D01*
X137342476Y-117990952D01*
X137342476Y-118371904D01*
X137390095Y-118467142D01*
X137437714Y-118514761D01*
X137532952Y-118562380D01*
X137723428Y-118562380D01*
X137818666Y-118514761D01*
X137866285Y-118467142D01*
X137913904Y-118371904D01*
X137913904Y-118133809D01*
X137866285Y-118038571D01*
X137818666Y-117990952D01*
X137723428Y-117943333D01*
X137532952Y-117943333D01*
X137437714Y-117990952D01*
X137390095Y-118038571D01*
X137342476Y-118133809D01*
X100173142Y-42676857D02*
X100220761Y-42724476D01*
X100268380Y-42867333D01*
X100268380Y-42962571D01*
X100220761Y-43105428D01*
X100125523Y-43200666D01*
X100030285Y-43248285D01*
X99839809Y-43295904D01*
X99696952Y-43295904D01*
X99506476Y-43248285D01*
X99411238Y-43200666D01*
X99316000Y-43105428D01*
X99268380Y-42962571D01*
X99268380Y-42867333D01*
X99316000Y-42724476D01*
X99363619Y-42676857D01*
X99363619Y-42295904D02*
X99316000Y-42248285D01*
X99268380Y-42153047D01*
X99268380Y-41914952D01*
X99316000Y-41819714D01*
X99363619Y-41772095D01*
X99458857Y-41724476D01*
X99554095Y-41724476D01*
X99696952Y-41772095D01*
X100268380Y-42343523D01*
X100268380Y-41724476D01*
X99268380Y-41105428D02*
X99268380Y-41010190D01*
X99316000Y-40914952D01*
X99363619Y-40867333D01*
X99458857Y-40819714D01*
X99649333Y-40772095D01*
X99887428Y-40772095D01*
X100077904Y-40819714D01*
X100173142Y-40867333D01*
X100220761Y-40914952D01*
X100268380Y-41010190D01*
X100268380Y-41105428D01*
X100220761Y-41200666D01*
X100173142Y-41248285D01*
X100077904Y-41295904D01*
X99887428Y-41343523D01*
X99649333Y-41343523D01*
X99458857Y-41295904D01*
X99363619Y-41248285D01*
X99316000Y-41200666D01*
X99268380Y-41105428D01*
X157249904Y-105100380D02*
X157249904Y-104100380D01*
X157488000Y-104100380D01*
X157630857Y-104148000D01*
X157726095Y-104243238D01*
X157773714Y-104338476D01*
X157821333Y-104528952D01*
X157821333Y-104671809D01*
X157773714Y-104862285D01*
X157726095Y-104957523D01*
X157630857Y-105052761D01*
X157488000Y-105100380D01*
X157249904Y-105100380D01*
X158154666Y-104100380D02*
X158773714Y-104100380D01*
X158440380Y-104481333D01*
X158583238Y-104481333D01*
X158678476Y-104528952D01*
X158726095Y-104576571D01*
X158773714Y-104671809D01*
X158773714Y-104909904D01*
X158726095Y-105005142D01*
X158678476Y-105052761D01*
X158583238Y-105100380D01*
X158297523Y-105100380D01*
X158202285Y-105052761D01*
X158154666Y-105005142D01*
X151527333Y-109640666D02*
X152003523Y-109640666D01*
X151432095Y-109926380D02*
X151765428Y-108926380D01*
X152098761Y-109926380D01*
X152574952Y-109926380D02*
X152479714Y-109878761D01*
X152432095Y-109783523D01*
X152432095Y-108926380D01*
X153384476Y-109926380D02*
X153384476Y-109402571D01*
X153336857Y-109307333D01*
X153241619Y-109259714D01*
X153051142Y-109259714D01*
X152955904Y-109307333D01*
X153384476Y-109878761D02*
X153289238Y-109926380D01*
X153051142Y-109926380D01*
X152955904Y-109878761D01*
X152908285Y-109783523D01*
X152908285Y-109688285D01*
X152955904Y-109593047D01*
X153051142Y-109545428D01*
X153289238Y-109545428D01*
X153384476Y-109497809D01*
X153860666Y-109926380D02*
X153860666Y-109259714D01*
X153860666Y-109450190D02*
X153908285Y-109354952D01*
X153955904Y-109307333D01*
X154051142Y-109259714D01*
X154146380Y-109259714D01*
X154479714Y-109926380D02*
X154479714Y-109259714D01*
X154479714Y-109354952D02*
X154527333Y-109307333D01*
X154622571Y-109259714D01*
X154765428Y-109259714D01*
X154860666Y-109307333D01*
X154908285Y-109402571D01*
X154908285Y-109926380D01*
X154908285Y-109402571D02*
X154955904Y-109307333D01*
X155051142Y-109259714D01*
X155194000Y-109259714D01*
X155289238Y-109307333D01*
X155336857Y-109402571D01*
X155336857Y-109926380D01*
X157051142Y-109926380D02*
X156574952Y-109926380D01*
X156574952Y-108926380D01*
X157384476Y-109402571D02*
X157717809Y-109402571D01*
X157860666Y-109926380D02*
X157384476Y-109926380D01*
X157384476Y-108926380D01*
X157860666Y-108926380D01*
X158289238Y-109926380D02*
X158289238Y-108926380D01*
X158527333Y-108926380D01*
X158670190Y-108974000D01*
X158765428Y-109069238D01*
X158813047Y-109164476D01*
X158860666Y-109354952D01*
X158860666Y-109497809D01*
X158813047Y-109688285D01*
X158765428Y-109783523D01*
X158670190Y-109878761D01*
X158527333Y-109926380D01*
X158289238Y-109926380D01*
X111746380Y-143108095D02*
X110746380Y-143108095D01*
X110746380Y-142870000D01*
X110794000Y-142727142D01*
X110889238Y-142631904D01*
X110984476Y-142584285D01*
X111174952Y-142536666D01*
X111317809Y-142536666D01*
X111508285Y-142584285D01*
X111603523Y-142631904D01*
X111698761Y-142727142D01*
X111746380Y-142870000D01*
X111746380Y-143108095D01*
X110746380Y-141631904D02*
X110746380Y-142108095D01*
X111222571Y-142155714D01*
X111174952Y-142108095D01*
X111127333Y-142012857D01*
X111127333Y-141774761D01*
X111174952Y-141679523D01*
X111222571Y-141631904D01*
X111317809Y-141584285D01*
X111555904Y-141584285D01*
X111651142Y-141631904D01*
X111698761Y-141679523D01*
X111746380Y-141774761D01*
X111746380Y-142012857D01*
X111698761Y-142108095D01*
X111651142Y-142155714D01*
X108106380Y-142536666D02*
X107630190Y-142870000D01*
X108106380Y-143108095D02*
X107106380Y-143108095D01*
X107106380Y-142727142D01*
X107154000Y-142631904D01*
X107201619Y-142584285D01*
X107296857Y-142536666D01*
X107439714Y-142536666D01*
X107534952Y-142584285D01*
X107582571Y-142631904D01*
X107630190Y-142727142D01*
X107630190Y-143108095D01*
X107106380Y-142203333D02*
X108106380Y-141536666D01*
X107106380Y-141536666D02*
X108106380Y-142203333D01*
X116572380Y-143108095D02*
X115572380Y-143108095D01*
X115572380Y-142870000D01*
X115620000Y-142727142D01*
X115715238Y-142631904D01*
X115810476Y-142584285D01*
X116000952Y-142536666D01*
X116143809Y-142536666D01*
X116334285Y-142584285D01*
X116429523Y-142631904D01*
X116524761Y-142727142D01*
X116572380Y-142870000D01*
X116572380Y-143108095D01*
X115572380Y-141679523D02*
X115572380Y-141870000D01*
X115620000Y-141965238D01*
X115667619Y-142012857D01*
X115810476Y-142108095D01*
X116000952Y-142155714D01*
X116381904Y-142155714D01*
X116477142Y-142108095D01*
X116524761Y-142060476D01*
X116572380Y-141965238D01*
X116572380Y-141774761D01*
X116524761Y-141679523D01*
X116477142Y-141631904D01*
X116381904Y-141584285D01*
X116143809Y-141584285D01*
X116048571Y-141631904D01*
X116000952Y-141679523D01*
X115953333Y-141774761D01*
X115953333Y-141965238D01*
X116000952Y-142060476D01*
X116048571Y-142108095D01*
X116143809Y-142155714D01*
X111932380Y-143131904D02*
X111932380Y-142560476D01*
X112932380Y-142846190D02*
X111932380Y-142846190D01*
X111932380Y-142322380D02*
X112932380Y-141655714D01*
X111932380Y-141655714D02*
X112932380Y-142322380D01*
X157249904Y-107894380D02*
X157249904Y-106894380D01*
X157488000Y-106894380D01*
X157630857Y-106942000D01*
X157726095Y-107037238D01*
X157773714Y-107132476D01*
X157821333Y-107322952D01*
X157821333Y-107465809D01*
X157773714Y-107656285D01*
X157726095Y-107751523D01*
X157630857Y-107846761D01*
X157488000Y-107894380D01*
X157249904Y-107894380D01*
X158392761Y-107322952D02*
X158297523Y-107275333D01*
X158249904Y-107227714D01*
X158202285Y-107132476D01*
X158202285Y-107084857D01*
X158249904Y-106989619D01*
X158297523Y-106942000D01*
X158392761Y-106894380D01*
X158583238Y-106894380D01*
X158678476Y-106942000D01*
X158726095Y-106989619D01*
X158773714Y-107084857D01*
X158773714Y-107132476D01*
X158726095Y-107227714D01*
X158678476Y-107275333D01*
X158583238Y-107322952D01*
X158392761Y-107322952D01*
X158297523Y-107370571D01*
X158249904Y-107418190D01*
X158202285Y-107513428D01*
X158202285Y-107703904D01*
X158249904Y-107799142D01*
X158297523Y-107846761D01*
X158392761Y-107894380D01*
X158583238Y-107894380D01*
X158678476Y-107846761D01*
X158726095Y-107799142D01*
X158773714Y-107703904D01*
X158773714Y-107513428D01*
X158726095Y-107418190D01*
X158678476Y-107370571D01*
X158583238Y-107322952D01*
X150003523Y-103020761D02*
X150146380Y-103068380D01*
X150384476Y-103068380D01*
X150479714Y-103020761D01*
X150527333Y-102973142D01*
X150574952Y-102877904D01*
X150574952Y-102782666D01*
X150527333Y-102687428D01*
X150479714Y-102639809D01*
X150384476Y-102592190D01*
X150194000Y-102544571D01*
X150098761Y-102496952D01*
X150051142Y-102449333D01*
X150003523Y-102354095D01*
X150003523Y-102258857D01*
X150051142Y-102163619D01*
X150098761Y-102116000D01*
X150194000Y-102068380D01*
X150432095Y-102068380D01*
X150574952Y-102116000D01*
X150908285Y-102401714D02*
X151146380Y-103068380D01*
X151384476Y-102401714D02*
X151146380Y-103068380D01*
X151051142Y-103306476D01*
X151003523Y-103354095D01*
X150908285Y-103401714D01*
X151717809Y-103020761D02*
X151813047Y-103068380D01*
X152003523Y-103068380D01*
X152098761Y-103020761D01*
X152146380Y-102925523D01*
X152146380Y-102877904D01*
X152098761Y-102782666D01*
X152003523Y-102735047D01*
X151860666Y-102735047D01*
X151765428Y-102687428D01*
X151717809Y-102592190D01*
X151717809Y-102544571D01*
X151765428Y-102449333D01*
X151860666Y-102401714D01*
X152003523Y-102401714D01*
X152098761Y-102449333D01*
X152432095Y-102401714D02*
X152813047Y-102401714D01*
X152574952Y-102068380D02*
X152574952Y-102925523D01*
X152622571Y-103020761D01*
X152717809Y-103068380D01*
X152813047Y-103068380D01*
X153527333Y-103020761D02*
X153432095Y-103068380D01*
X153241619Y-103068380D01*
X153146380Y-103020761D01*
X153098761Y-102925523D01*
X153098761Y-102544571D01*
X153146380Y-102449333D01*
X153241619Y-102401714D01*
X153432095Y-102401714D01*
X153527333Y-102449333D01*
X153574952Y-102544571D01*
X153574952Y-102639809D01*
X153098761Y-102735047D01*
X154003523Y-103068380D02*
X154003523Y-102401714D01*
X154003523Y-102496952D02*
X154051142Y-102449333D01*
X154146380Y-102401714D01*
X154289238Y-102401714D01*
X154384476Y-102449333D01*
X154432095Y-102544571D01*
X154432095Y-103068380D01*
X154432095Y-102544571D02*
X154479714Y-102449333D01*
X154574952Y-102401714D01*
X154717809Y-102401714D01*
X154813047Y-102449333D01*
X154860666Y-102544571D01*
X154860666Y-103068380D01*
X156051142Y-103020761D02*
X156194000Y-103068380D01*
X156432095Y-103068380D01*
X156527333Y-103020761D01*
X156574952Y-102973142D01*
X156622571Y-102877904D01*
X156622571Y-102782666D01*
X156574952Y-102687428D01*
X156527333Y-102639809D01*
X156432095Y-102592190D01*
X156241619Y-102544571D01*
X156146380Y-102496952D01*
X156098761Y-102449333D01*
X156051142Y-102354095D01*
X156051142Y-102258857D01*
X156098761Y-102163619D01*
X156146380Y-102116000D01*
X156241619Y-102068380D01*
X156479714Y-102068380D01*
X156622571Y-102116000D01*
X156908285Y-102401714D02*
X157289238Y-102401714D01*
X157051142Y-102068380D02*
X157051142Y-102925523D01*
X157098761Y-103020761D01*
X157194000Y-103068380D01*
X157289238Y-103068380D01*
X158051142Y-103068380D02*
X158051142Y-102544571D01*
X158003523Y-102449333D01*
X157908285Y-102401714D01*
X157717809Y-102401714D01*
X157622571Y-102449333D01*
X158051142Y-103020761D02*
X157955904Y-103068380D01*
X157717809Y-103068380D01*
X157622571Y-103020761D01*
X157574952Y-102925523D01*
X157574952Y-102830285D01*
X157622571Y-102735047D01*
X157717809Y-102687428D01*
X157955904Y-102687428D01*
X158051142Y-102639809D01*
X158384476Y-102401714D02*
X158765428Y-102401714D01*
X158527333Y-102068380D02*
X158527333Y-102925523D01*
X158574952Y-103020761D01*
X158670190Y-103068380D01*
X158765428Y-103068380D01*
X159527333Y-102401714D02*
X159527333Y-103068380D01*
X159098761Y-102401714D02*
X159098761Y-102925523D01*
X159146380Y-103020761D01*
X159241619Y-103068380D01*
X159384476Y-103068380D01*
X159479714Y-103020761D01*
X159527333Y-102973142D01*
X159955904Y-103020761D02*
X160051142Y-103068380D01*
X160241619Y-103068380D01*
X160336857Y-103020761D01*
X160384476Y-102925523D01*
X160384476Y-102877904D01*
X160336857Y-102782666D01*
X160241619Y-102735047D01*
X160098761Y-102735047D01*
X160003523Y-102687428D01*
X159955904Y-102592190D01*
X159955904Y-102544571D01*
X160003523Y-102449333D01*
X160098761Y-102401714D01*
X160241619Y-102401714D01*
X160336857Y-102449333D01*
X185348571Y-108283333D02*
X185348571Y-108616666D01*
X185872380Y-108616666D02*
X184872380Y-108616666D01*
X184872380Y-108140476D01*
X185872380Y-107235714D02*
X185872380Y-107807142D01*
X185872380Y-107521428D02*
X184872380Y-107521428D01*
X185015238Y-107616666D01*
X185110476Y-107711904D01*
X185158095Y-107807142D01*
X141041619Y-97480380D02*
X141041619Y-96480380D01*
X141470190Y-97432761D02*
X141613047Y-97480380D01*
X141851142Y-97480380D01*
X141946380Y-97432761D01*
X141994000Y-97385142D01*
X142041619Y-97289904D01*
X142041619Y-97194666D01*
X141994000Y-97099428D01*
X141946380Y-97051809D01*
X141851142Y-97004190D01*
X141660666Y-96956571D01*
X141565428Y-96908952D01*
X141517809Y-96861333D01*
X141470190Y-96766095D01*
X141470190Y-96670857D01*
X141517809Y-96575619D01*
X141565428Y-96528000D01*
X141660666Y-96480380D01*
X141898761Y-96480380D01*
X142041619Y-96528000D01*
X142470190Y-97480380D02*
X142470190Y-96480380D01*
X142851142Y-96480380D01*
X142946380Y-96528000D01*
X142994000Y-96575619D01*
X143041619Y-96670857D01*
X143041619Y-96813714D01*
X142994000Y-96908952D01*
X142946380Y-96956571D01*
X142851142Y-97004190D01*
X142470190Y-97004190D01*
X143994000Y-97480380D02*
X143422571Y-97480380D01*
X143708285Y-97480380D02*
X143708285Y-96480380D01*
X143613047Y-96623238D01*
X143517809Y-96718476D01*
X143422571Y-96766095D01*
D17*
X148756666Y-99170857D02*
X148756666Y-98742285D01*
X149042380Y-99256571D02*
X148042380Y-98956571D01*
X149042380Y-98656571D01*
X148042380Y-98485142D02*
X149042380Y-98185142D01*
X148042380Y-97885142D01*
X149042380Y-97070857D02*
X148566190Y-97370857D01*
X149042380Y-97585142D02*
X148042380Y-97585142D01*
X148042380Y-97242285D01*
X148090000Y-97156571D01*
X148137619Y-97113714D01*
X148232857Y-97070857D01*
X148375714Y-97070857D01*
X148470952Y-97113714D01*
X148518571Y-97156571D01*
X148566190Y-97242285D01*
X148566190Y-97585142D01*
X149042380Y-96685142D02*
X148042380Y-96685142D01*
X148994761Y-96299428D02*
X149042380Y-96170857D01*
X149042380Y-95956571D01*
X148994761Y-95870857D01*
X148947142Y-95828000D01*
X148851904Y-95785142D01*
X148756666Y-95785142D01*
X148661428Y-95828000D01*
X148613809Y-95870857D01*
X148566190Y-95956571D01*
X148518571Y-96128000D01*
X148470952Y-96213714D01*
X148423333Y-96256571D01*
X148328095Y-96299428D01*
X148232857Y-96299428D01*
X148137619Y-96256571D01*
X148090000Y-96213714D01*
X148042380Y-96128000D01*
X148042380Y-95913714D01*
X148090000Y-95785142D01*
X149042380Y-95399428D02*
X148042380Y-95399428D01*
X148042380Y-95056571D01*
X148090000Y-94970857D01*
X148137619Y-94928000D01*
X148232857Y-94885142D01*
X148375714Y-94885142D01*
X148470952Y-94928000D01*
X148518571Y-94970857D01*
X148566190Y-95056571D01*
X148566190Y-95399428D01*
X153701714Y-95956380D02*
X153130285Y-95956380D01*
X153416000Y-95956380D02*
X153416000Y-94956380D01*
X153320761Y-95099238D01*
X153225523Y-95194476D01*
X153130285Y-95242095D01*
D16*
X120988666Y-147386523D02*
X120988666Y-148293666D01*
X120928190Y-148475095D01*
X120807238Y-148596047D01*
X120625809Y-148656523D01*
X120504857Y-148656523D01*
X121532952Y-147507476D02*
X121593428Y-147447000D01*
X121714380Y-147386523D01*
X122016761Y-147386523D01*
X122137714Y-147447000D01*
X122198190Y-147507476D01*
X122258666Y-147628428D01*
X122258666Y-147749380D01*
X122198190Y-147930809D01*
X121472476Y-148656523D01*
X122258666Y-148656523D01*
X189314666Y-147640523D02*
X189314666Y-148547666D01*
X189254190Y-148729095D01*
X189133238Y-148850047D01*
X188951809Y-148910523D01*
X188830857Y-148910523D01*
X189798476Y-147640523D02*
X190584666Y-147640523D01*
X190161333Y-148124333D01*
X190342761Y-148124333D01*
X190463714Y-148184809D01*
X190524190Y-148245285D01*
X190584666Y-148366238D01*
X190584666Y-148668619D01*
X190524190Y-148789571D01*
X190463714Y-148850047D01*
X190342761Y-148910523D01*
X189979904Y-148910523D01*
X189858952Y-148850047D01*
X189798476Y-148789571D01*
D10*
X110305904Y-109232666D02*
X110877333Y-109232666D01*
X110991619Y-109270761D01*
X111067809Y-109346952D01*
X111105904Y-109461238D01*
X111105904Y-109537428D01*
X110572571Y-108508857D02*
X111105904Y-108508857D01*
X110267809Y-108699333D02*
X110839238Y-108889809D01*
X110839238Y-108394571D01*
D16*
X86952666Y-144846523D02*
X86952666Y-145753666D01*
X86892190Y-145935095D01*
X86771238Y-146056047D01*
X86589809Y-146116523D01*
X86468857Y-146116523D01*
X87436476Y-144846523D02*
X88283142Y-144846523D01*
X87738857Y-146116523D01*
X198948523Y-95419333D02*
X199855666Y-95419333D01*
X200037095Y-95479809D01*
X200158047Y-95600761D01*
X200218523Y-95782190D01*
X200218523Y-95903142D01*
X199492809Y-94633142D02*
X199432333Y-94754095D01*
X199371857Y-94814571D01*
X199250904Y-94875047D01*
X199190428Y-94875047D01*
X199069476Y-94814571D01*
X199009000Y-94754095D01*
X198948523Y-94633142D01*
X198948523Y-94391238D01*
X199009000Y-94270285D01*
X199069476Y-94209809D01*
X199190428Y-94149333D01*
X199250904Y-94149333D01*
X199371857Y-94209809D01*
X199432333Y-94270285D01*
X199492809Y-94391238D01*
X199492809Y-94633142D01*
X199553285Y-94754095D01*
X199613761Y-94814571D01*
X199734714Y-94875047D01*
X199976619Y-94875047D01*
X200097571Y-94814571D01*
X200158047Y-94754095D01*
X200218523Y-94633142D01*
X200218523Y-94391238D01*
X200158047Y-94270285D01*
X200097571Y-94209809D01*
X199976619Y-94149333D01*
X199734714Y-94149333D01*
X199613761Y-94209809D01*
X199553285Y-94270285D01*
X199492809Y-94391238D01*
X87763047Y-45907476D02*
X87642095Y-45847000D01*
X87521142Y-45726047D01*
X87339714Y-45544619D01*
X87218761Y-45484142D01*
X87097809Y-45484142D01*
X87158285Y-45786523D02*
X87037333Y-45726047D01*
X86916380Y-45605095D01*
X86855904Y-45363190D01*
X86855904Y-44939857D01*
X86916380Y-44697952D01*
X87037333Y-44577000D01*
X87158285Y-44516523D01*
X87400190Y-44516523D01*
X87521142Y-44577000D01*
X87642095Y-44697952D01*
X87702571Y-44939857D01*
X87702571Y-45363190D01*
X87642095Y-45605095D01*
X87521142Y-45726047D01*
X87400190Y-45786523D01*
X87158285Y-45786523D01*
X88791142Y-44939857D02*
X88791142Y-45786523D01*
X88488761Y-44456047D02*
X88186380Y-45363190D01*
X88972571Y-45363190D01*
D10*
X103280380Y-149870857D02*
X102804190Y-150204190D01*
X103280380Y-150442285D02*
X102280380Y-150442285D01*
X102280380Y-150061333D01*
X102328000Y-149966095D01*
X102375619Y-149918476D01*
X102470857Y-149870857D01*
X102613714Y-149870857D01*
X102708952Y-149918476D01*
X102756571Y-149966095D01*
X102804190Y-150061333D01*
X102804190Y-150442285D01*
X103280380Y-148918476D02*
X103280380Y-149489904D01*
X103280380Y-149204190D02*
X102280380Y-149204190D01*
X102423238Y-149299428D01*
X102518476Y-149394666D01*
X102566095Y-149489904D01*
X102280380Y-148299428D02*
X102280380Y-148204190D01*
X102328000Y-148108952D01*
X102375619Y-148061333D01*
X102470857Y-148013714D01*
X102661333Y-147966095D01*
X102899428Y-147966095D01*
X103089904Y-148013714D01*
X103185142Y-148061333D01*
X103232761Y-148108952D01*
X103280380Y-148204190D01*
X103280380Y-148299428D01*
X103232761Y-148394666D01*
X103185142Y-148442285D01*
X103089904Y-148489904D01*
X102899428Y-148537523D01*
X102661333Y-148537523D01*
X102470857Y-148489904D01*
X102375619Y-148442285D01*
X102328000Y-148394666D01*
X102280380Y-148299428D01*
X103280380Y-143136857D02*
X102804190Y-143470190D01*
X103280380Y-143708285D02*
X102280380Y-143708285D01*
X102280380Y-143327333D01*
X102328000Y-143232095D01*
X102375619Y-143184476D01*
X102470857Y-143136857D01*
X102613714Y-143136857D01*
X102708952Y-143184476D01*
X102756571Y-143232095D01*
X102804190Y-143327333D01*
X102804190Y-143708285D01*
X103280380Y-142184476D02*
X103280380Y-142755904D01*
X103280380Y-142470190D02*
X102280380Y-142470190D01*
X102423238Y-142565428D01*
X102518476Y-142660666D01*
X102566095Y-142755904D01*
X103280380Y-141232095D02*
X103280380Y-141803523D01*
X103280380Y-141517809D02*
X102280380Y-141517809D01*
X102423238Y-141613047D01*
X102518476Y-141708285D01*
X102566095Y-141803523D01*
X142105142Y-105100380D02*
X141771809Y-104624190D01*
X141533714Y-105100380D02*
X141533714Y-104100380D01*
X141914666Y-104100380D01*
X142009904Y-104148000D01*
X142057523Y-104195619D01*
X142105142Y-104290857D01*
X142105142Y-104433714D01*
X142057523Y-104528952D01*
X142009904Y-104576571D01*
X141914666Y-104624190D01*
X141533714Y-104624190D01*
X143057523Y-105100380D02*
X142486095Y-105100380D01*
X142771809Y-105100380D02*
X142771809Y-104100380D01*
X142676571Y-104243238D01*
X142581333Y-104338476D01*
X142486095Y-104386095D01*
X143438476Y-104195619D02*
X143486095Y-104148000D01*
X143581333Y-104100380D01*
X143819428Y-104100380D01*
X143914666Y-104148000D01*
X143962285Y-104195619D01*
X144009904Y-104290857D01*
X144009904Y-104386095D01*
X143962285Y-104528952D01*
X143390857Y-105100380D01*
X144009904Y-105100380D01*
X97522380Y-123956857D02*
X97046190Y-124290190D01*
X97522380Y-124528285D02*
X96522380Y-124528285D01*
X96522380Y-124147333D01*
X96570000Y-124052095D01*
X96617619Y-124004476D01*
X96712857Y-123956857D01*
X96855714Y-123956857D01*
X96950952Y-124004476D01*
X96998571Y-124052095D01*
X97046190Y-124147333D01*
X97046190Y-124528285D01*
X97522380Y-123004476D02*
X97522380Y-123575904D01*
X97522380Y-123290190D02*
X96522380Y-123290190D01*
X96665238Y-123385428D01*
X96760476Y-123480666D01*
X96808095Y-123575904D01*
X96522380Y-122671142D02*
X96522380Y-122052095D01*
X96903333Y-122385428D01*
X96903333Y-122242571D01*
X96950952Y-122147333D01*
X96998571Y-122099714D01*
X97093809Y-122052095D01*
X97331904Y-122052095D01*
X97427142Y-122099714D01*
X97474761Y-122147333D01*
X97522380Y-122242571D01*
X97522380Y-122528285D01*
X97474761Y-122623523D01*
X97427142Y-122671142D01*
X94985142Y-120128380D02*
X94651809Y-119652190D01*
X94413714Y-120128380D02*
X94413714Y-119128380D01*
X94794666Y-119128380D01*
X94889904Y-119176000D01*
X94937523Y-119223619D01*
X94985142Y-119318857D01*
X94985142Y-119461714D01*
X94937523Y-119556952D01*
X94889904Y-119604571D01*
X94794666Y-119652190D01*
X94413714Y-119652190D01*
X95937523Y-120128380D02*
X95366095Y-120128380D01*
X95651809Y-120128380D02*
X95651809Y-119128380D01*
X95556571Y-119271238D01*
X95461333Y-119366476D01*
X95366095Y-119414095D01*
X96794666Y-119461714D02*
X96794666Y-120128380D01*
X96556571Y-119080761D02*
X96318476Y-119795047D01*
X96937523Y-119795047D01*
X87873142Y-120128380D02*
X87539809Y-119652190D01*
X87301714Y-120128380D02*
X87301714Y-119128380D01*
X87682666Y-119128380D01*
X87777904Y-119176000D01*
X87825523Y-119223619D01*
X87873142Y-119318857D01*
X87873142Y-119461714D01*
X87825523Y-119556952D01*
X87777904Y-119604571D01*
X87682666Y-119652190D01*
X87301714Y-119652190D01*
X88825523Y-120128380D02*
X88254095Y-120128380D01*
X88539809Y-120128380D02*
X88539809Y-119128380D01*
X88444571Y-119271238D01*
X88349333Y-119366476D01*
X88254095Y-119414095D01*
X89730285Y-119128380D02*
X89254095Y-119128380D01*
X89206476Y-119604571D01*
X89254095Y-119556952D01*
X89349333Y-119509333D01*
X89587428Y-119509333D01*
X89682666Y-119556952D01*
X89730285Y-119604571D01*
X89777904Y-119699809D01*
X89777904Y-119937904D01*
X89730285Y-120033142D01*
X89682666Y-120080761D01*
X89587428Y-120128380D01*
X89349333Y-120128380D01*
X89254095Y-120080761D01*
X89206476Y-120033142D01*
X136009142Y-125928380D02*
X135675809Y-125452190D01*
X135437714Y-125928380D02*
X135437714Y-124928380D01*
X135818666Y-124928380D01*
X135913904Y-124976000D01*
X135961523Y-125023619D01*
X136009142Y-125118857D01*
X136009142Y-125261714D01*
X135961523Y-125356952D01*
X135913904Y-125404571D01*
X135818666Y-125452190D01*
X135437714Y-125452190D01*
X136961523Y-125928380D02*
X136390095Y-125928380D01*
X136675809Y-125928380D02*
X136675809Y-124928380D01*
X136580571Y-125071238D01*
X136485333Y-125166476D01*
X136390095Y-125214095D01*
X137818666Y-124928380D02*
X137628190Y-124928380D01*
X137532952Y-124976000D01*
X137485333Y-125023619D01*
X137390095Y-125166476D01*
X137342476Y-125356952D01*
X137342476Y-125737904D01*
X137390095Y-125833142D01*
X137437714Y-125880761D01*
X137532952Y-125928380D01*
X137723428Y-125928380D01*
X137818666Y-125880761D01*
X137866285Y-125833142D01*
X137913904Y-125737904D01*
X137913904Y-125499809D01*
X137866285Y-125404571D01*
X137818666Y-125356952D01*
X137723428Y-125309333D01*
X137532952Y-125309333D01*
X137437714Y-125356952D01*
X137390095Y-125404571D01*
X137342476Y-125499809D01*
X108106380Y-149870857D02*
X107630190Y-150204190D01*
X108106380Y-150442285D02*
X107106380Y-150442285D01*
X107106380Y-150061333D01*
X107154000Y-149966095D01*
X107201619Y-149918476D01*
X107296857Y-149870857D01*
X107439714Y-149870857D01*
X107534952Y-149918476D01*
X107582571Y-149966095D01*
X107630190Y-150061333D01*
X107630190Y-150442285D01*
X108106380Y-148918476D02*
X108106380Y-149489904D01*
X108106380Y-149204190D02*
X107106380Y-149204190D01*
X107249238Y-149299428D01*
X107344476Y-149394666D01*
X107392095Y-149489904D01*
X107106380Y-148585142D02*
X107106380Y-147918476D01*
X108106380Y-148347047D01*
X136009142Y-122118380D02*
X135675809Y-121642190D01*
X135437714Y-122118380D02*
X135437714Y-121118380D01*
X135818666Y-121118380D01*
X135913904Y-121166000D01*
X135961523Y-121213619D01*
X136009142Y-121308857D01*
X136009142Y-121451714D01*
X135961523Y-121546952D01*
X135913904Y-121594571D01*
X135818666Y-121642190D01*
X135437714Y-121642190D01*
X136961523Y-122118380D02*
X136390095Y-122118380D01*
X136675809Y-122118380D02*
X136675809Y-121118380D01*
X136580571Y-121261238D01*
X136485333Y-121356476D01*
X136390095Y-121404095D01*
X137532952Y-121546952D02*
X137437714Y-121499333D01*
X137390095Y-121451714D01*
X137342476Y-121356476D01*
X137342476Y-121308857D01*
X137390095Y-121213619D01*
X137437714Y-121166000D01*
X137532952Y-121118380D01*
X137723428Y-121118380D01*
X137818666Y-121166000D01*
X137866285Y-121213619D01*
X137913904Y-121308857D01*
X137913904Y-121356476D01*
X137866285Y-121451714D01*
X137818666Y-121499333D01*
X137723428Y-121546952D01*
X137532952Y-121546952D01*
X137437714Y-121594571D01*
X137390095Y-121642190D01*
X137342476Y-121737428D01*
X137342476Y-121927904D01*
X137390095Y-122023142D01*
X137437714Y-122070761D01*
X137532952Y-122118380D01*
X137723428Y-122118380D01*
X137818666Y-122070761D01*
X137866285Y-122023142D01*
X137913904Y-121927904D01*
X137913904Y-121737428D01*
X137866285Y-121642190D01*
X137818666Y-121594571D01*
X137723428Y-121546952D01*
X112932380Y-149870857D02*
X112456190Y-150204190D01*
X112932380Y-150442285D02*
X111932380Y-150442285D01*
X111932380Y-150061333D01*
X111980000Y-149966095D01*
X112027619Y-149918476D01*
X112122857Y-149870857D01*
X112265714Y-149870857D01*
X112360952Y-149918476D01*
X112408571Y-149966095D01*
X112456190Y-150061333D01*
X112456190Y-150442285D01*
X112932380Y-148918476D02*
X112932380Y-149489904D01*
X112932380Y-149204190D02*
X111932380Y-149204190D01*
X112075238Y-149299428D01*
X112170476Y-149394666D01*
X112218095Y-149489904D01*
X112932380Y-148442285D02*
X112932380Y-148251809D01*
X112884761Y-148156571D01*
X112837142Y-148108952D01*
X112694285Y-148013714D01*
X112503809Y-147966095D01*
X112122857Y-147966095D01*
X112027619Y-148013714D01*
X111980000Y-148061333D01*
X111932380Y-148156571D01*
X111932380Y-148347047D01*
X111980000Y-148442285D01*
X112027619Y-148489904D01*
X112122857Y-148537523D01*
X112360952Y-148537523D01*
X112456190Y-148489904D01*
X112503809Y-148442285D01*
X112551428Y-148347047D01*
X112551428Y-148156571D01*
X112503809Y-148061333D01*
X112456190Y-148013714D01*
X112360952Y-147966095D01*
X142105142Y-107640380D02*
X141771809Y-107164190D01*
X141533714Y-107640380D02*
X141533714Y-106640380D01*
X141914666Y-106640380D01*
X142009904Y-106688000D01*
X142057523Y-106735619D01*
X142105142Y-106830857D01*
X142105142Y-106973714D01*
X142057523Y-107068952D01*
X142009904Y-107116571D01*
X141914666Y-107164190D01*
X141533714Y-107164190D01*
X142486095Y-106735619D02*
X142533714Y-106688000D01*
X142628952Y-106640380D01*
X142867047Y-106640380D01*
X142962285Y-106688000D01*
X143009904Y-106735619D01*
X143057523Y-106830857D01*
X143057523Y-106926095D01*
X143009904Y-107068952D01*
X142438476Y-107640380D01*
X143057523Y-107640380D01*
X144009904Y-107640380D02*
X143438476Y-107640380D01*
X143724190Y-107640380D02*
X143724190Y-106640380D01*
X143628952Y-106783238D01*
X143533714Y-106878476D01*
X143438476Y-106926095D01*
X157581666Y-113158761D02*
X157724523Y-113206380D01*
X157962619Y-113206380D01*
X158057857Y-113158761D01*
X158105476Y-113111142D01*
X158153095Y-113015904D01*
X158153095Y-112920666D01*
X158105476Y-112825428D01*
X158057857Y-112777809D01*
X157962619Y-112730190D01*
X157772142Y-112682571D01*
X157676904Y-112634952D01*
X157629285Y-112587333D01*
X157581666Y-112492095D01*
X157581666Y-112396857D01*
X157629285Y-112301619D01*
X157676904Y-112254000D01*
X157772142Y-112206380D01*
X158010238Y-112206380D01*
X158153095Y-112254000D01*
X158486428Y-112206380D02*
X158724523Y-113206380D01*
X158915000Y-112492095D01*
X159105476Y-113206380D01*
X159343571Y-112206380D01*
X159676904Y-112301619D02*
X159724523Y-112254000D01*
X159819761Y-112206380D01*
X160057857Y-112206380D01*
X160153095Y-112254000D01*
X160200714Y-112301619D01*
X160248333Y-112396857D01*
X160248333Y-112492095D01*
X160200714Y-112634952D01*
X159629285Y-113206380D01*
X160248333Y-113206380D01*
X154557857Y-121120666D02*
X155034047Y-121120666D01*
X154462619Y-121406380D02*
X154795952Y-120406380D01*
X155129285Y-121406380D01*
X155605476Y-121406380D02*
X155510238Y-121358761D01*
X155462619Y-121263523D01*
X155462619Y-120406380D01*
X156415000Y-121406380D02*
X156415000Y-120882571D01*
X156367380Y-120787333D01*
X156272142Y-120739714D01*
X156081666Y-120739714D01*
X155986428Y-120787333D01*
X156415000Y-121358761D02*
X156319761Y-121406380D01*
X156081666Y-121406380D01*
X155986428Y-121358761D01*
X155938809Y-121263523D01*
X155938809Y-121168285D01*
X155986428Y-121073047D01*
X156081666Y-121025428D01*
X156319761Y-121025428D01*
X156415000Y-120977809D01*
X156891190Y-121406380D02*
X156891190Y-120739714D01*
X156891190Y-120930190D02*
X156938809Y-120834952D01*
X156986428Y-120787333D01*
X157081666Y-120739714D01*
X157176904Y-120739714D01*
X157510238Y-121406380D02*
X157510238Y-120739714D01*
X157510238Y-120834952D02*
X157557857Y-120787333D01*
X157653095Y-120739714D01*
X157795952Y-120739714D01*
X157891190Y-120787333D01*
X157938809Y-120882571D01*
X157938809Y-121406380D01*
X157938809Y-120882571D02*
X157986428Y-120787333D01*
X158081666Y-120739714D01*
X158224523Y-120739714D01*
X158319761Y-120787333D01*
X158367380Y-120882571D01*
X158367380Y-121406380D01*
X160176904Y-121406380D02*
X159843571Y-120930190D01*
X159605476Y-121406380D02*
X159605476Y-120406380D01*
X159986428Y-120406380D01*
X160081666Y-120454000D01*
X160129285Y-120501619D01*
X160176904Y-120596857D01*
X160176904Y-120739714D01*
X160129285Y-120834952D01*
X160081666Y-120882571D01*
X159986428Y-120930190D01*
X159605476Y-120930190D01*
X160986428Y-121358761D02*
X160891190Y-121406380D01*
X160700714Y-121406380D01*
X160605476Y-121358761D01*
X160557857Y-121263523D01*
X160557857Y-120882571D01*
X160605476Y-120787333D01*
X160700714Y-120739714D01*
X160891190Y-120739714D01*
X160986428Y-120787333D01*
X161034047Y-120882571D01*
X161034047Y-120977809D01*
X160557857Y-121073047D01*
X161415000Y-121358761D02*
X161510238Y-121406380D01*
X161700714Y-121406380D01*
X161795952Y-121358761D01*
X161843571Y-121263523D01*
X161843571Y-121215904D01*
X161795952Y-121120666D01*
X161700714Y-121073047D01*
X161557857Y-121073047D01*
X161462619Y-121025428D01*
X161415000Y-120930190D01*
X161415000Y-120882571D01*
X161462619Y-120787333D01*
X161557857Y-120739714D01*
X161700714Y-120739714D01*
X161795952Y-120787333D01*
X162653095Y-121358761D02*
X162557857Y-121406380D01*
X162367380Y-121406380D01*
X162272142Y-121358761D01*
X162224523Y-121263523D01*
X162224523Y-120882571D01*
X162272142Y-120787333D01*
X162367380Y-120739714D01*
X162557857Y-120739714D01*
X162653095Y-120787333D01*
X162700714Y-120882571D01*
X162700714Y-120977809D01*
X162224523Y-121073047D01*
X162986428Y-120739714D02*
X163367380Y-120739714D01*
X163129285Y-120406380D02*
X163129285Y-121263523D01*
X163176904Y-121358761D01*
X163272142Y-121406380D01*
X163367380Y-121406380D01*
X114300095Y-95718380D02*
X114300095Y-96527904D01*
X114347714Y-96623142D01*
X114395333Y-96670761D01*
X114490571Y-96718380D01*
X114681047Y-96718380D01*
X114776285Y-96670761D01*
X114823904Y-96623142D01*
X114871523Y-96527904D01*
X114871523Y-95718380D01*
X115871523Y-96718380D02*
X115300095Y-96718380D01*
X115585809Y-96718380D02*
X115585809Y-95718380D01*
X115490571Y-95861238D01*
X115395333Y-95956476D01*
X115300095Y-96004095D01*
X119199380Y-132377904D02*
X120008904Y-132377904D01*
X120104142Y-132330285D01*
X120151761Y-132282666D01*
X120199380Y-132187428D01*
X120199380Y-131996952D01*
X120151761Y-131901714D01*
X120104142Y-131854095D01*
X120008904Y-131806476D01*
X119199380Y-131806476D01*
X119199380Y-131425523D02*
X119199380Y-130806476D01*
X119580333Y-131139809D01*
X119580333Y-130996952D01*
X119627952Y-130901714D01*
X119675571Y-130854095D01*
X119770809Y-130806476D01*
X120008904Y-130806476D01*
X120104142Y-130854095D01*
X120151761Y-130901714D01*
X120199380Y-130996952D01*
X120199380Y-131282666D01*
X120151761Y-131377904D01*
X120104142Y-131425523D01*
X125761809Y-91924190D02*
X125761809Y-92400380D01*
X125428476Y-91400380D02*
X125761809Y-91924190D01*
X126095142Y-91400380D01*
X126952285Y-92400380D02*
X126380857Y-92400380D01*
X126666571Y-92400380D02*
X126666571Y-91400380D01*
X126571333Y-91543238D01*
X126476095Y-91638476D01*
X126380857Y-91686095D01*
D16*
X97348523Y-105417380D02*
X96078523Y-105417380D01*
X96078523Y-105115000D01*
X96139000Y-104933571D01*
X96259952Y-104812619D01*
X96380904Y-104752142D01*
X96622809Y-104691666D01*
X96804238Y-104691666D01*
X97046142Y-104752142D01*
X97167095Y-104812619D01*
X97288047Y-104933571D01*
X97348523Y-105115000D01*
X97348523Y-105417380D01*
X96501857Y-103603095D02*
X97348523Y-103603095D01*
X96018047Y-103905476D02*
X96925190Y-104207857D01*
X96925190Y-103421666D01*
M02*
